<?xml version="1.0" encoding="UTF-8"?>
<svg id="Layer_1" data-name="Layer 1" xmlns="http://www.w3.org/2000/svg" viewBox="0 0 24 24">
  <defs>
    <style>
      .cls-1 {
        fill: #fad04a;
      }

      .cls-2 {
        fill: #f9b031;
      }

      .cls-3 {
        fill: #f18d42;
      }

      .cls-4 {
        fill: #f9c223;
      }

      .cls-5 {
        fill: #d9e8ad;
      }

      .cls-6 {
        fill: #5f968f;
      }

      .cls-7 {
        fill: #87c230;
      }

      .cls-8 {
        fill: #966b4c;
      }

      .cls-9 {
        fill: #f6e397;
      }

      .cls-10 {
        fill: #f69e67;
      }

      .cls-11 {
        fill: #6d9991;
      }

      .cls-12 {
        fill: #87c231;
      }

      .cls-13 {
        fill: #f7ab82;
      }

      .cls-14 {
        fill: #f0cf31;
      }

      .cls-15 {
        fill: #f9b18b;
      }

      .cls-16 {
        fill: #fbc54e;
      }

      .cls-17 {
        fill: #f8d6bd;
      }

      .cls-18 {
        fill: #f69f68;
      }

      .cls-19 {
        fill: #805940;
      }

      .cls-20 {
        fill: #d6e5ab;
      }

      .cls-21 {
        fill: #f29551;
      }

      .cls-22 {
        fill: #f9e4a5;
      }

      .cls-23 {
        fill: #f8b089;
      }

      .cls-24 {
        fill: #f9d7c1;
      }

      .cls-25 {
        fill: #f9e0ac;
      }

      .cls-26 {
        fill: #f39756;
      }

      .cls-27 {
        fill: #f8d0b7;
      }

      .cls-28 {
        fill: #5b9992;
      }

      .cls-29 {
        fill: #769f95;
      }

      .cls-30 {
        fill: #5e958e;
      }

      .cls-31 {
        fill: #233039;
      }

      .cls-32 {
        fill: #f69447;
      }
    </style>
  </defs>
  <path class="cls-28" d="M11.24,18.31c-.08.03-.15-.14-.22-.14-.74.1-1.47.01-2.19-.24-.04-.02-.1-.05-.09-.06l.03-.08c.64.22,1.38.15,2.07.11.18.08.29.27.4.41Z"/>
  <g>
    <path class="cls-30" d="M12.33,18.78c.18-.34.46-.65.75-.92,1.59.26,2.89-.21,4.04-1.35.68-.67,1.45-2.31,1.6-3.21.16.02.43.16.4.38-.08.67-.33,1.26-.64,1.85-.57,1.09-1.51,1.95-2.67,2.39-.67.25-1.36.23-2.07.26-.48.02-1.08.64-1.41.6Z"/>
    <path class="cls-29" d="M16.46,7.24l-.58-.27c.7-.64.7-1.26.49-2.09.14.05.25.17.33.32.36.59.35,1.32-.11,1.85-.05.06-.16.1-.14.18Z"/>
    <g>
      <path class="cls-11" d="M13.05,12.63c.62.12,1.26-.07,1.68-.53.44-.49.57-1.15.32-1.79.69.14,1.34-.09,1.75-.62s.44-1.25.17-1.86c.08-.02.13.04.19.1.38.4.51.89.41,1.46-.08.42-.37.84-.83,1.07s-.89.16-1.44.06c.5.81.3,1.73-.51,2.2-.49.29-1.06.26-1.58.06-.09-.03-.16-.07-.16-.15Z"/>
      <g>
        <path class="cls-31" d="M16.37,4.88c.21.83.21,1.44-.49,2.09l.58.27c.17.18.4.37.5.6.27.61.24,1.33-.17,1.86s-1.06.76-1.75.62c.25.64.12,1.3-.32,1.79-.41.46-1.05.65-1.68.53-.31-.06-.57-.27-.83-.49v5.89c.15-.13.24-.26.37-.4-.15-.18-.14-.38-.13-.59.03-.81.2-1.59.63-2.28,1.17-1.88,3.54-2.32,5.56-1.85.11.07.07.3.06.39-.15.9-.92,2.53-1.6,3.21-1.15,1.14-2.45,1.61-4.04,1.35-.28.27-.57.58-.75.92-.16.31-.14.44-.09.87.85.09,1.57.52,2.1,1.19.85-.22,1.59.16,2.1.79.57-.09,1.16-.03,1.67.22.69.33,1.23.89,1.49,1.66h3.3c.13,0,.2.18.19.26-.01.07-.06.22-.19.22h-5.85s-7.69,0-7.69,0H1.21c-.15,0-.26-.08-.29-.18-.04-.15.06-.31.22-.31l3.26-.02c.28-.75.8-1.36,1.48-1.72.52-.27,1.15-.28,1.72-.23.53-.68,1.31-.99,2.11-.85.53-.58,1.21-.94,2-1.04.11-.67-.1-.84-.48-1.35-.11-.14-.22-.33-.4-.41-.69.04-1.42.11-2.07-.11-1.89-.64-3.13-2.58-3.51-4.51-.02-.1-.02-.19.02-.27.04-.07.12-.11.23-.13,1.08-.19,2.16-.18,3.19.18,1.1.38,1.97,1.16,2.45,2.2.41.91.31,2.7.24,2.42.04.17.19.28.32.41l.03-1.99-.02-3.96c-.43.36-.87.57-1.36.54-.53-.03-1.02-.33-1.3-.73-.35-.5-.39-1.06-.21-1.62-.95.19-1.81-.41-2.01-1.31s.3-1.75,1.21-2.05c-.76-.63-.84-1.69-.25-2.43s1.61-.87,2.42-.32c.08-.95.84-1.66,1.75-1.64s1.66.69,1.74,1.66c.96-.7,2.11-.32,2.67.64Z"/>
        <g>
          <g>
            <path class="cls-19" d="M10.74,23.52c-.03-.13.07-.21.15-.31.73-.95.85-1.9.74-3.04,1.05-.19,1.91.33,2.57,1.19,1.47-.51,1.95.83,2.07.8,1.16-.34,2.35.2,2.84,1.36h-8.37Z"/>
            <path class="cls-8" d="M11.62,20.16c.1,1.14-.01,2.09-.74,3.04-.08.1-.18.18-.15.31h-5.84c.47-1.18,1.67-1.74,2.83-1.48.09,0,.17-.13.22-.19.47-.62,1.2-.84,1.94-.64.46-.58,1.06-.98,1.74-1.04Z"/>
          </g>
          <g>
            <path class="cls-6" d="M11.15,15.26c.2-.14.25.52.48.43v-2.89c-.27.16-1.34.3-1.28-.12.5.03.94-.18,1.36-.54l.02,3.96-.03,1.99c-.14-.13-.28-.24-.32-.41.07.28.17-1.5-.24-2.42Z"/>
            <path class="cls-21" d="M14.7,9.68l-1.68-1.29c.07-.19.1-.34.11-.54l1.87-.45c.75-.18,1.51.24,1.66,1.01.1.52-.13,1.02-.53,1.29s-1,.32-1.43-.01Z"/>
            <path class="cls-26" d="M14.47,10.2c-.02.08-.27-.2-.21-.12-.03-.03-.11.01-.09.07.14.42.18.92-.11,1.27-.7.86-1.3.58-1.2.56-.03,0-.08-.09-.09.01-.39-.26-.59-.65-.58-1.18l.03-1.81c.17-.08.31-.14.48-.26l1.19.91c.22.17.42.34.58.54Z"/>
            <path class="cls-10" d="M15.58,4.78s.11.05.16.05c.03,0,.03.03.05.05-.07.06-.13.13-.1.26.18.79-.29,1.25-.69,1.75-.65.19-1.3.37-2.01.49-.11-.15-.21-.28-.35-.41.22-.39.38-.8.62-1.15.05-.08.47-.4.47-.47.07,0,.13-.05.21-.09.62-.38.99-.14,1.64-.48Z"/>
            <path class="cls-2" d="M10.53,5.51l.75,1.47-.34.4c-.8-.21-1.59-.31-2.32-.61-.32-.28-.57-.7-.43-1.12.06-.18.21-.43.43-.51.45-.16.98-.13,1.4.06.15.07.56.47.51.29Z"/>
            <path class="cls-4" d="M13.04,5.14l-.82,1.64c-.18,0-.31-.01-.51,0l-.82-1.69s.06-.05.05-.08c0-.02-.06-.03-.11-.07.02-.2-.07-.38-.04-.54.05,0,.06.04.12.02,0,0,.44-.83,1.26-.62.6.15.82.65.87,1.23-.03.02-.07.06-.05.09,0,.02.02.03.05.03Z"/>
            <path class="cls-18" d="M9.21,9.68s0-.03-.03-.07c-.16.21-.39.15-.57.01-.4-.3-.65-.7-.52-1.23.11-.45.49-.79.95-.87.07-.01.12-.02.11-.08l1.68.38.12.56-1.74,1.29Z"/>
            <path class="cls-18" d="M10.26,12.18s.02-.05.03-.07c.02-.02,0-.1.04-.11.03,0,.08.07.13.05.25-.1.38-.33.58-.49.12-.1.2-.19.2-.38-.36.22-.84.3-1.16-.06-.14-.16-.2-.38-.15-.61l.17-.73c.01-.05.05-.1.05-.15l1.09-.88c.17.14.33.2.52.27l-.03,1.86c-.01.82-.7,1.43-1.46,1.3Z"/>
            <g>
              <path class="cls-7" d="M18.18,13.45c-.54,2.14-2.17,4.25-4.68,3.97.29-.35.59-.62.9-.91.13-.12.13-.28.01-.39-.11-.1-.24-.06-.36.04-.37.33-.69.68-1.06.98,0-.12-.02-.24.02-.37.19-.67.41-1.32.88-1.89,1.04-1.25,2.8-1.57,4.28-1.43Z"/>
              <path class="cls-5" d="M18.18,13.45c-1.48-.14-3.25.18-4.28,1.43-.47.56-.69,1.21-.88,1.89-.04.13-.03.25-.02.37-.08-.06-.08-.14-.08-.21.06-.83.29-1.63.82-2.29,1.06-1.3,2.88-1.59,4.45-1.33.02.07,0,.11-.02.14Z"/>
            </g>
            <g>
              <path class="cls-12" d="M10.99,17.05s.02.13-.05.16l-1.06-1.04c-.13-.12-.29-.11-.37-.02-.1.12-.09.25.02.36.31.3.61.57.89.92-2.5.28-4.12-1.81-4.64-3.97.88-.09,1.76,0,2.61.29,1.39.47,2.37,1.74,2.52,3.14,0,.05.04.09.02.13,0,.02.02.04.05.03Z"/>
              <path class="cls-20" d="M10.99,17.05s-.06-.01-.05-.03c.01-.03-.02-.08-.02-.13-.15-1.4-1.13-2.67-2.52-3.14-.86-.29-1.74-.38-2.61-.29-.03-.06-.04-.11-.02-.15.02-.03.06-.03.11-.03.87-.1,1.72-.09,2.54.18,1.7.54,2.53,1.88,2.57,3.59Z"/>
            </g>
            <path class="cls-15" d="M9.15,7.45c.01.06-.04.07-.11.08-.46.08-.84.43-.95.87-.13.53.13.93.52,1.23.18.13.41.19.57-.01.03.04.03.06.03.07-.29.23-.65.26-.99.18.06-.05-.02-.12-.08-.17-.36-.29-.54-.67-.48-1.13.13-1.07,1.34-1.25,1.2-1.1.02-.02.04-.03.03-.07.08.02.18.03.26.05Z"/>
            <path class="cls-1" d="M13.15,4.98c-.01.05-.06.14-.11.16-.03,0-.04-.02-.05-.03-.02-.04.02-.07.05-.09-.04-.58-.27-1.08-.87-1.23-.82-.2-1.26.62-1.26.62-.05.02-.06-.01-.12-.02.07-.39.32-.77.67-.96.53-.28,1.05-.09,1.41.35.6.76.07.9.28,1.2Z"/>
            <path class="cls-14" d="M12.47,7.46c.27.29.23.74-.12.98-.31.22-.82.11-.95-.24-.02-.21.02-.4.17-.55.19-.19.68-.24.89-.19Z"/>
            <path class="cls-3" d="M14.47,10.2c.34.51.3,1.19-.13,1.63s-1.08.49-1.57.16c.01-.1.06,0,.09-.01-.1.02.49.29,1.2-.56.29-.35.26-.85.11-1.27-.02-.06.06-.1.09-.07-.06-.08.19.21.21.12Z"/>
            <path class="cls-24" d="M8.89,7.4s-.02.05-.03.07c.14-.15-1.07.02-1.2,1.1-.06.47.12.85.48,1.13.06.04.14.12.08.17-.39-.08-.7-.35-.85-.68-.19-.41-.16-.84.08-1.21.32-.49.92-.73,1.44-.57Z"/>
            <path class="cls-16" d="M10.31,5.03c.11.12.15.33.22.47.05.18-.36-.23-.51-.29-.42-.19-.95-.22-1.4-.06-.22.08-.37.32-.43.51-.08-.03-.11.12-.19.03.1-.43.4-.78.78-.97.57-.28,1.11-.08,1.53.32Z"/>
            <path class="cls-22" d="M13.15,4.98c-.21-.3.32-.44-.28-1.2-.35-.44-.88-.63-1.41-.35-.35.19-.6.57-.67.96-.03.16.06.34.04.54.05.04.1.05.11.07,0,.03,0,.09-.05.08-.31-.47-.32-1.21.17-1.69.39-.37.97-.48,1.47-.22.73.38.8,1.13.62,1.79Z"/>
            <path class="cls-25" d="M10.31,5.03c-.41-.4-.95-.61-1.53-.32-.38.19-.68.54-.78.97.08.09.12-.05.19-.03-.14.41.11.84.43,1.12-.52-.21-.83-.74-.74-1.33.08-.53.51-.96,1.03-1.07.57-.11,1.09.19,1.39.66Z"/>
            <path class="cls-27" d="M10.1,9.78c-.16.01-.45.67-.51.89-.14.59.15,1.27.71,1.43,0,.03-.02.05-.03.07-.45-.07-.82-.34-.98-.76-.31-.8.19-1.39.86-1.79,0,.06-.03.1-.05.15Z"/>
            <path class="cls-32" d="M15,6.88c.39-.5.87-.96.69-1.75-.03-.13.03-.19.1-.26.29.34.32.82.15,1.27-.16.41-.52.61-.93.73Z"/>
            <path class="cls-17" d="M15.73,4.83s-.12-.02-.16-.05c-.77-.63-1.85.25-1.85.57,0,.07-.41.39-.47.47.29-.7.62-1.47,1.51-1.47.37,0,.76.17.96.48Z"/>
            <path class="cls-9" d="M12.47,7.46c-.21-.05-.7,0-.89.19-.15.15-.18.34-.17.55-.21-.29-.07-.7.21-.88.34-.23.62-.1.85.14Z"/>
            <path class="cls-23" d="M15.58,4.78c-.64.34-1.01.1-1.64.48-.08.05-.14.09-.21.09,0-.32,1.08-1.2,1.85-.57Z"/>
            <path class="cls-13" d="M10.3,12.1c-.56-.16-.85-.84-.71-1.43.05-.23.35-.88.51-.89l-.17.73c-.06.23,0,.45.15.61.32.37.8.29,1.16.06,0,.19-.08.28-.2.38-.2.15-.32.38-.58.49-.05.02-.1-.05-.13-.05-.04,0-.02.09-.04.11Z"/>
          </g>
        </g>
      </g>
    </g>
  </g>
</svg>