<?xml version="1.0" encoding="UTF-8"?>
<svg id="Layer_2" data-name="Layer 2" xmlns="http://www.w3.org/2000/svg" viewBox="0 0 12.6 23.68">
  <defs>
    <style>
      .cls-1 {
        fill: #3e4b55;
      }

      .cls-2 {
        fill: #384552;
      }

      .cls-3 {
        fill: #394552;
      }

      .cls-4 {
        fill: #198b52;
      }
    </style>
  </defs>
  <g id="Layer_1-2" data-name="Layer 1">
    <g>
      <path class="cls-4" d="M6.83,12.83c-.38.06-.75.02-1.14.02l-.78-3.36c-.32-1.38-1.29-4.21-2.48-4.97,1.43.39,2.46,2.69,2.92,3.94l-.43-2.83c-.18-1.17-.68-3.36-1.33-4.34.6.27,1.21,1.71,1.43,2.32.48,1.35.78,2.72.94,4.15,0,.08.04,0,.06,0,0,0-.05-.53-.05-.63-.09-2.44-.13-4.65.27-7.12.3,1.44.37,2.84.38,4.29,0,.62-.03,1.18.02,1.81.39-1.45,1.03-4,2.25-4.89-.71.93-1.29,3.56-1.48,4.76l-.52,3.13c.34-.97.68-1.91,1.22-2.79.33-.53,1.11-1.62,1.82-1.73-.49.41-.86.95-1.16,1.55-1.04,2.03-1.45,4.39-1.93,6.7Z"/>
      <path class="cls-3" d="M6.2,23.4c-1.53-1.73-2.41-4-1.9-6.26.13-.58.35-1.06.68-1.52.39-.54.7-1.12.89-1.77.18-.03.33-.03.5-.01v7.79c.01.62.01,1.17-.17,1.78Z"/>
      <path class="cls-2" d="M11.95,21.01c-1.1,1.55-3.21,2.46-5.09,2.67,1.6-.78,3.32-2.12,3.92-3.97.45-1.39.02-2.8-1.11-3.68l-1.28-.99c-.45-.35-.77-.87-.97-1.45l1.93,1.27c1.04.68,2.05,1.17,2.74,2.31.73,1.21.68,2.69-.14,3.84Z"/>
      <path class="cls-3" d="M5.62,23.65c-1.86-.19-3.99-1.2-5.02-2.74-.79-1.18-.79-2.67,0-3.87.71-1.06,1.72-1.57,2.73-2.23l1.83-1.2c-.2.6-.55,1.12-1.01,1.48l-1.2.93c-1.23.96-1.64,2.61-.99,4.08.74,1.67,2.09,2.67,3.65,3.54Z"/>
      <path class="cls-3" d="M5.74,23.33c-1.11-.47-2.04-1.21-2.78-2.12-1.15-1.4-1.51-3.33-.12-4.71.96-.96,1.75-1.02,2.54-2.63.04-.07.13-.08.18-.05.03.02.03.08,0,.16-.53,1.41-1.38,1.8-1.6,3.41-.36,2.2.39,4.16,1.78,5.94Z"/>
      <path class="cls-3" d="M10.56,19.41c-.46,1.75-2.05,3.17-3.69,3.92,1.5-1.91,2.31-4.27,1.6-6.63-.3-1.06-1.18-1.75-1.41-2.94.2.16.28.38.4.58.71,1.17,1.43,1.3,2.29,2.16.78.78,1.09,1.85.81,2.92Z"/>
      <path class="cls-3" d="M8.27,17.09c.52,2.18-.27,4.4-1.68,6.11-.03-.43.05-.77.05-1.18l.02-8.28c.36.79.62,1.48,1.09,2.12.26.36.41.78.52,1.22Z"/>
      <path class="cls-1" d="M7.4,13.49c-.75.01-1.46.03-2.21,0-.09,0-.11-.31-.03-.36.72-.01,1.48-.03,2.22,0,.1,0,.09.28.01.36Z"/>
    </g>
  </g>
</svg>