<?xml version="1.0" encoding="UTF-8"?>
<svg id="Layer_2" data-name="Layer 2" xmlns="http://www.w3.org/2000/svg" viewBox="0 0 13.69 15.49">
  <defs>
    <style>
      .cls-1 {
        fill: #d3e6b3;
      }

      .cls-2 {
        fill: #8b5637;
      }

      .cls-3 {
        fill: #1b5761;
      }

      .cls-4 {
        fill: #fefefe;
      }

      .cls-5 {
        fill: #81bd4a;
      }

      .cls-6 {
        fill: #fdfdfd;
      }
    </style>
  </defs>
  <g id="Layer_1-2" data-name="Layer 1">
    <g id="Generative_Object" data-name="Generative Object">
      <g>
        <path class="cls-3" d="M1.52,15.49c-.16,0-.23-.11-.24-.21s.07-.24.19-.24h4.37s.51-3.93.51-3.93l-1.3-1.36-1.32.12c-.4.04-.77.05-1.16,0-1.26-.19-2.24-1.17-2.5-2.37-.28-1.29.29-2.57,1.41-3.27-.03-1.43,1.06-2.66,2.5-2.77.45-.6,1.05-1.08,1.78-1.31,1.44-.46,2.97.09,3.85,1.3,1.41.1,2.49,1.28,2.47,2.69,1.26.68,1.88,2.1,1.51,3.48s-1.54,2.24-2.94,2.26c-.65.01-1.27-.04-1.92-.12l-1.38,1.45.46,3.83h4.34c.14,0,.23.07.25.19.01.11-.06.25-.22.25H1.52Z"/>
        <g>
          <path class="cls-5" d="M11.63,4.01c.01.2-.05.38.13.47.57.29,1.04.75,1.29,1.37.33.83.23,1.74-.28,2.48-.46.65-1.21,1.08-2.06,1.11-.53.02-1.05-.01-1.59-.09l1.49-1.61c.1-.11.07-.26-.03-.33s-.22-.04-.31.05l-2.21,2.34s-.02-.02-.04-.02h-.82c0-.16-.09-.34-.05-.51.03-.11.16-.21.25-.29l1.74-1.72c.1-.09.07-.23-.02-.31s-.21-.07-.31.02l-1.69,1.64-.06-2.19c0-.12-.18-.2-.27-.17-.11.03-.19.11-.19.24l.02,2.07-1.57-1.76c-.1-.11-.25-.08-.32,0-.09.1-.08.22,0,.32l1.87,2.11-.09.54-.79.02-2.27-2.35c-.1-.11-.23-.13-.34-.03-.09.09-.09.23.01.33l1.52,1.61c-.6.07-1.15.14-1.73.12-1.13-.04-2.08-.83-2.38-1.87-.33-1.13.12-2.29,1.09-2.94.34-.23.26-.16.28-.67.02,0,.03,0,.04,0,.31-1,1.2-1.69,2.25-1.7.74-1.22,2.23-1.75,3.56-1.3.68.23,1.25.68,1.61,1.31,1,0,1.85.64,2.18,1.58.01.03-.02.08,0,.1.01.02.03.05.06.05Z"/>
          <path class="cls-1" d="M11.63,4.01s-.05-.03-.06-.05c0-.02.02-.07,0-.1-.33-.95-1.18-1.58-2.18-1.58-.37-.63-.93-1.08-1.61-1.31-1.33-.45-2.82.08-3.56,1.3-1.05.01-1.94.71-2.25,1.7-.01,0-.03,0-.04,0,.11-.84.6-1.58,1.41-1.91.63-.26.82-.05.99-.29.33-.47.74-.86,1.28-1.09,1.34-.59,2.88-.11,3.67,1.09.06.09.13.12.24.12,1.15.05,2.05.98,2.12,2.11Z"/>
          <polygon class="cls-2" points="7.34 15.03 6.3 15.03 6.69 12.13 6.84 10.89 6.9 11.45 7.34 15.03"/>
          <path class="cls-6" d="M8.05,9.8l-.76.82c-.05-.28-.09-.57-.1-.85h.82s.03.02.04.03Z"/>
          <path class="cls-4" d="M6.52,9.77c-.04.23-.04.48-.09.75-.27-.21-.47-.49-.7-.73l.79-.02Z"/>
        </g>
      </g>
    </g>
  </g>
</svg>