<?xml version="1.0" encoding="UTF-8"?>
<svg id="Layer_2" data-name="Layer 2" xmlns="http://www.w3.org/2000/svg" xmlns:xlink="http://www.w3.org/1999/xlink" viewBox="0 0 15.44 16.63">
  <defs>
    <style>
      .cls-1 {
        fill: none;
      }

      .cls-2 {
        fill: #a2c43c;
      }

      .cls-3 {
        fill: url(#linear-gradient);
      }

      .cls-4 {
        fill: #80b03a;
      }

      .cls-5 {
        fill: #2f4c19;
      }

      .cls-6 {
        fill: #9fc23c;
      }
    </style>
    <linearGradient id="linear-gradient" x1="504.78" y1="260.02" x2="506.95" y2="595.01" gradientTransform="translate(-7.78 -7.23) scale(.03)" gradientUnits="userSpaceOnUse">
      <stop offset="0" stop-color="#b2cb2d"/>
      <stop offset="1" stop-color="#6da439"/>
    </linearGradient>
  </defs>
  <g id="Layer_1-2" data-name="Layer 1">
    <g>
      <path class="cls-5" d="M10.15,11.22c1.16.89,2.83.55,3.52-.74.84-.14,1.5-.79,1.7-1.58.22-.87-.12-1.74-.83-2.27.19-.32.32-.63.34-.99.09-1.27-.97-2.3-2.24-2.19.05-.72-.28-1.38-.84-1.77-.58-.41-1.33-.5-2.02-.2C9.47.59,8.65,0,7.71,0c-.94,0-1.75.58-2.07,1.47-.7-.3-1.44-.21-2.03.22-.54.39-.87,1.05-.82,1.75-.79-.08-1.54.32-1.93.96-.43.7-.4,1.54.04,2.21-.72.54-1.06,1.42-.83,2.3.2.78.85,1.42,1.68,1.57.69,1.3,2.37,1.62,3.52.75.26,1.2.89,1.82,2.09,2v1.66c-.56-.27-1.18-.1-1.52.43-.35-.42-.9-.54-1.38-.32-.44.2-.72.67-.66,1.2H.63c-.13,0-.21.09-.22.2,0,.09.05.23.22.23h14.17c.16,0,.26-.05.27-.21,0-.09-.07-.22-.21-.22h-3.06c.06-.52-.2-.98-.64-1.19-.43-.21-.93-.14-1.31.18-.35-.67-1.12-.9-1.78-.6v-1.37c1.18-.08,1.84-.87,2.09-2ZM5.62,10.85c.15-.19.26-.38.36-.6.47.11.92.07,1.38-.15v2.73c-1.12-.14-1.65-.91-1.74-1.98ZM8.3,14.97c.27-.12.56-.1.82.06.61.37.24.92.69.88.08-.03.13-.1.18-.19.18-.34.57-.47.91-.34.33.13.54.47.45.83h-1.63s-3.98,0-3.98,0h-1.5c-.09-.43.18-.79.57-.87.37-.08.75.17.84.56.02.1.06.17.15.21.42.04.14-.35.56-.73.19-.17.43-.23.68-.15.5.16.35.71.68.63.13-.03.16-.14.16-.28,0-.27.19-.5.43-.61ZM7.88,9.44c-.1-.09-.21-.1-.31-.01-.47.45-1.13.57-1.76.3-.53-.23-.93-.77-.95-1.42,0-.14-.08-.21-.18-.23-.08-.01-.22.07-.23.19-.02.77.42,1.47,1.12,1.83-.29.72-.96,1.17-1.73,1.18-.75,0-1.41-.41-1.73-1.07-.06-.12-.13-.13-.26-.16-1-.17-1.63-1.19-1.35-2.16.13-.46.43-.81.82-1.05.11-.07.15-.21.06-.31-.59-.68-.52-1.69.16-2.28.4-.35.92-.47,1.44-.34.08.02.15,0,.2-.05.05-.05.08-.12.06-.21-.13-.56.06-1.13.49-1.52.53-.48,1.3-.55,1.9-.17.07.04.15.05.2.03.07-.03.12-.08.14-.16.18-.83.9-1.4,1.73-1.41.82,0,1.55.58,1.72,1.41.02.09.08.13.14.16.05.03.13,0,.2-.04.55-.33,1.21-.32,1.74.03.51.34.79.95.67,1.59-.02.09-.04.16.01.23.04.05.11.13.21.1.56-.14,1.12,0,1.54.39.63.6.68,1.56.12,2.22-.05.06-.06.13-.05.21.01.06.06.11.14.15.64.39.97,1.12.81,1.86-.15.69-.74,1.25-1.48,1.33-.11.01-.15.12-.2.2-.35.66-1.04,1.04-1.78,1.01-.72-.03-1.37-.48-1.66-1.18.71-.36,1.13-1.06,1.13-1.84,0-.11-.11-.18-.19-.18-.1,0-.22.07-.22.18,0,.64-.37,1.2-.91,1.45-.62.29-1.3.17-1.79-.28ZM8.06,12.83v-2.75c.43.2.9.28,1.38.17.11.22.21.41.37.6-.09,1-.65,1.91-1.75,1.98Z"/>
      <path class="cls-5" d="M9.67,9.72c.54-.25.91-.81.91-1.45,0-.11.13-.19.22-.18.07,0,.19.07.19.18,0,.78-.42,1.48-1.13,1.84.28.7.94,1.15,1.66,1.18.74.03,1.42-.35,1.78-1.01.04-.08.09-.19.2-.2.74-.08,1.32-.64,1.48-1.33.16-.74-.17-1.47-.81-1.86-.08-.05-.13-.09-.14-.15-.01-.07,0-.15.05-.21.56-.66.51-1.62-.12-2.22-.42-.39-.97-.54-1.54-.39-.09.02-.17-.05-.21-.1-.05-.07-.03-.14-.01-.23.13-.63-.16-1.25-.67-1.59-.53-.35-1.19-.36-1.74-.03-.07.05-.15.06-.2.04-.07-.03-.12-.07-.14-.16-.17-.83-.9-1.41-1.72-1.41-.83,0-1.55.58-1.73,1.41-.02.08-.07.14-.14.16-.05.02-.13.01-.2-.03-.61-.38-1.37-.31-1.9.17-.43.39-.62.95-.49,1.52.02.08,0,.16-.06.21-.05.05-.12.07-.2.05-.51-.13-1.03,0-1.44.34-.69.6-.75,1.6-.16,2.28.09.1.05.24-.06.31-.39.25-.69.59-.82,1.05-.28.98.35,1.99,1.35,2.16.13.02.2.04.26.16.32.66.99,1.07,1.73,1.07.77,0,1.44-.46,1.73-1.18-.69-.36-1.14-1.06-1.12-1.83,0-.12.14-.2.23-.19.1.02.18.09.18.23.02.65.42,1.18.95,1.42.62.27,1.28.14,1.76-.3.1-.09.21-.07.31.01.49.44,1.18.56,1.79.28Z"/>
      <path class="cls-3" d="M9.67,9.72c.54-.25.91-.81.91-1.45,0-.11.13-.19.22-.18.07,0,.19.07.19.18,0,.78-.42,1.48-1.13,1.84.28.7.94,1.15,1.66,1.18.74.03,1.42-.35,1.78-1.01.04-.08.09-.19.2-.2.74-.08,1.32-.64,1.48-1.33.16-.74-.17-1.47-.81-1.86-.08-.05-.13-.09-.14-.15-.01-.07,0-.15.05-.21.56-.66.51-1.62-.12-2.22-.42-.39-.97-.54-1.54-.39-.09.02-.17-.05-.21-.1-.05-.07-.03-.14-.01-.23.13-.63-.16-1.25-.67-1.59-.53-.35-1.19-.36-1.74-.03-.07.05-.15.06-.2.04-.07-.03-.12-.07-.14-.16-.17-.83-.9-1.41-1.72-1.41-.83,0-1.55.58-1.73,1.41-.02.08-.07.14-.14.16-.05.02-.13.01-.2-.03-.61-.38-1.37-.31-1.9.17-.43.39-.62.95-.49,1.52.02.08,0,.16-.06.21-.05.05-.12.07-.2.05-.51-.13-1.03,0-1.44.34-.69.6-.75,1.6-.16,2.28.09.1.05.24-.06.31-.39.25-.69.59-.82,1.05-.28.98.35,1.99,1.35,2.16.13.02.2.04.26.16.32.66.99,1.07,1.73,1.07.77,0,1.44-.46,1.73-1.18-.69-.36-1.14-1.06-1.12-1.83,0-.12.14-.2.23-.19.1.02.18.09.18.23.02.65.42,1.18.95,1.42.62.27,1.28.14,1.76-.3.1-.09.21-.07.31.01.49.44,1.18.56,1.79.28Z"/>
      <path class="cls-1" d="M9.44,10.25c-.48.11-.94.04-1.38-.17v2.75c1.1-.07,1.66-.98,1.75-1.98-.16-.19-.26-.39-.37-.6Z"/>
      <path class="cls-1" d="M7.36,10.1c-.46.22-.91.26-1.38.15-.09.22-.21.41-.36.6.09,1.07.61,1.85,1.74,1.98v-2.73Z"/>
      <path class="cls-4" d="M7.72,15.86c-.33.08-.19-.48-.68-.63-.25-.08-.49-.02-.68.15-.41.37-.13.77-.56.73,0,.01,0,.04.02.03.02,0,.05-.01.04.04-.01.02-.07-.01-.1,0-.01,0-.04,0-.02.04h3.98s.1-.3.1-.3c-.44.04-.08-.51-.69-.88-.26-.16-.56-.18-.82-.06-.24.11-.43.35-.43.61,0,.14-.03.25-.16.28Z"/>
      <path class="cls-2" d="M11.35,16.2c.1-.36-.11-.7-.45-.83-.34-.13-.73,0-.91.34-.05.09-.1.17-.18.19l-.1.3h1.63Z"/>
      <path class="cls-6" d="M5.76,16.16s.09.02.1,0c.01-.05-.02-.04-.04-.04-.02,0-.03-.02-.02-.03-.09-.03-.13-.11-.15-.21-.09-.39-.47-.63-.84-.56-.39.08-.66.44-.57.86h1.5s.01-.03.02-.03Z"/>
    </g>
  </g>
</svg>