<?xml version="1.0" encoding="UTF-8"?>
<svg id="Layer_2" data-name="Layer 2" xmlns="http://www.w3.org/2000/svg" viewBox="0 0 20.2 16.71">
  <defs>
    <style>
      .cls-1 {
        fill: #592c1e;
      }

      .cls-2 {
        fill: #de9b76;
      }

      .cls-3 {
        fill: #9c5533;
      }

      .cls-4 {
        fill: #98c373;
      }

      .cls-5 {
        fill: #582b1d;
      }

      .cls-6 {
        fill: #cbe48e;
      }

      .cls-7 {
        fill: #5f9534;
      }

      .cls-8 {
        fill: #a2ca75;
      }

      .cls-9 {
        fill: #542a1d;
      }

      .cls-10 {
        fill: #cbe296;
      }

      .cls-11 {
        fill: #245621;
      }

      .cls-12 {
        fill: #a7cb4a;
      }

      .cls-13 {
        fill: #48271b;
      }

      .cls-14 {
        fill: #572b1d;
      }

      .cls-15 {
        fill: #a0c975;
      }

      .cls-16 {
        fill: #4f8739;
      }

      .cls-17 {
        fill: #cae48d;
      }

      .cls-18 {
        fill: #467526;
      }

      .cls-19 {
        fill: #5e9434;
      }

      .cls-20 {
        fill: #d9ec9c;
      }

      .cls-21 {
        fill: #467626;
      }

      .cls-22 {
        fill: #7fb33c;
      }

      .cls-23 {
        fill: #7fb33b;
      }

      .cls-24 {
        fill: #582b1e;
      }

      .cls-25 {
        fill: #4a7927;
      }

      .cls-26 {
        fill: #336423;
      }

      .cls-27 {
        fill: #79a636;
      }
    </style>
  </defs>
  <g id="Layer_1-2" data-name="Layer 1">
    <g id="Generative_Object" data-name="Generative Object">
      <g>
        <g>
          <g>
            <path class="cls-11" d="M15.85,13.52c-.11-.03-.25-.11-.34-.19.7-.61,1.37-1.23,1.91-2.01.9-1.31,1.66-2.73,2.14-4.23.02-.08.11-.15.08-.27-1.15.16-2.27.41-3.37.79-.59.2-1.11.45-1.65.77l-1.98,1.14-.09.61c-.18,1.23-.64,2.39-1.15,3.52-.15.02-.3-.05-.45-.04.21-.44.41-.89.59-1.36.63-1.68.97-3.68.71-5.49-.3-2.03-.95-4.02-1.98-5.78-.06-.1-.08-.23-.19-.32-1.17,1.98-1.85,3.88-2.13,6.17-.26,2.08.02,3.7.74,5.63-.17-.02-.32-.12-.49-.16.02-.02.01-.04,0-.08-.25-.7-.44-1.39-.57-2.1l-.1-.55c-.58-.4-1.2-.72-1.81-1.08s-1.24-.67-1.93-.89c-1.05-.34-2.12-.6-3.23-.74,0,.11.05.21.1.27.36,1.26,1.01,2.45,1.7,3.58.63,1.05,1.44,1.93,2.38,2.68-.08.08-.15.19-.27.25C2.23,11.95.8,9.25,0,6.61c-.03-.08.03-.14.05-.18.03-.05.13-.08.21-.07,1.07.1,2.11.31,3.17.62-.11-1.39-.07-2.76.14-4.13.01-.08.07-.13.11-.16.05-.03.13-.04.2,0,.65.41,1.25.85,1.87,1.37.18-1.04.42-2.03.79-2.99.03-.07.09-.11.15-.12.05-.01.12,0,.18.06.59.54,1.14,1.1,1.69,1.71.39-.92.82-1.77,1.34-2.6.05-.08.13-.12.21-.12s.14.05.19.13c.52.82.94,1.69,1.32,2.61.56-.62,1.11-1.21,1.72-1.75.05-.05.14-.04.19-.03.06.02.1.07.13.14.36.95.61,1.91.78,2.95.61-.5,1.21-.95,1.86-1.36.07-.04.14-.03.2,0s.1.09.12.19c.21,1.36.24,2.72.14,4.1,1.03-.31,2.06-.51,3.12-.62.11-.01.18-.01.24.06.05.05.1.12.07.23-.42,1.42-1.01,2.77-1.8,4.03-.69,1.1-1.53,2.07-2.54,2.85Z"/>
            <g>
              <g>
                <path class="cls-7" d="M12.7,7.06c1.06-1.29,2.2-2.51,3.56-3.48.14,1.16.12,2.34.02,3.55-.58.22-1.12.47-1.71.75l.28-.93c.42-.17.8-.35,1.21-.55.09-.04.11-.16.09-.23-.01-.05-.1-.14-.18-.11l-.94.48.76-2.17c-.23.3-.35.64-.5.99l-.49,1.13-.36-.98c-.02-.05-.08-.08-.12-.09-.08-.03-.23.09-.22.23l.55,1.25-.44,1.1-.55-1.25c-.04-.1-.16-.14-.24-.11-.08.03-.14.09-.15.2l.65,1.41-1.23.75c.05-.66.07-1.29,0-1.93Z"/>
                <path class="cls-8" d="M16.26,3.58c-1.37.97-2.51,2.19-3.56,3.48l-.06-.52c1.02-1.26,2.23-2.33,3.57-3.24.06.1.04.2.05.29Z"/>
              </g>
              <g>
                <path class="cls-19" d="M7.52,7.04c-.08.65-.07,1.29-.01,1.96l-1.23-.77c.22-.46.44-.92.64-1.41.04-.1-.1-.19-.17-.2-.09,0-.18.05-.22.14l-.54,1.2-.44-1.1.55-1.27c0-.1-.07-.17-.15-.2-.08-.03-.17.04-.2.13l-.35.94-.45-1.05c-.17-.41-.33-.8-.56-1.17l.81,2.32c-.31-.13-.57-.31-.87-.47-.1-.06-.21-.04-.26.07-.03.06,0,.18.08.23.4.22.8.41,1.21.58l.28.92c-.56-.29-1.11-.53-1.71-.76-.09-1.18-.13-2.37.02-3.53.02-.02.04,0,.06.01,1.32.99,2.41,2.09,3.44,3.38.02.03.05.05.08.04Z"/>
                <path class="cls-26" d="M6.28,8.23c-.19-.12-.43-.23-.65-.34l-.28-.92c-.42-.17-.82-.36-1.21-.58-.09-.05-.11-.16-.08-.23.05-.11.16-.13.26-.07.29.16.56.34.87.47l-.81-2.32c.23.37.39.76.56,1.17l.45,1.05.35-.94c.03-.09.13-.16.2-.13.08.03.16.1.15.2l-.55,1.27.44,1.1.54-1.2c.05-.09.14-.15.22-.14.07,0,.21.1.17.2-.2.49-.42.95-.64,1.41Z"/>
                <path class="cls-15" d="M7.52,7.04s-.05-.01-.08-.04c-1.04-1.29-2.12-2.39-3.44-3.38-.02-.02-.04-.03-.06-.01,0-.1,0-.2.04-.31,1.34.91,2.58,2.01,3.6,3.26l-.06.49Z"/>
              </g>
              <g>
                <path class="cls-27" d="M11.9,3.48c.49-.6,1-1.18,1.52-1.74.28.86.48,1.75.62,2.66-.54.48-1.02.97-1.5,1.49-.05-.07-.04-.15-.07-.24.05-.12.07-.23.1-.36.42-.22.8-.46,1.18-.72.08-.06.09-.18.05-.24-.04-.07-.15-.09-.22-.04l-.93.61c.16-.81.38-1.55.49-2.35-.11.21-.17.43-.25.68l-.5,1.63c-.09-.15-.14-.29-.19-.44l-.32-.95Z"/>
                <path class="cls-10" d="M13.42,1.74c-.52.56-1.03,1.14-1.52,1.74l-.09-.25c.49-.57,1-1.12,1.55-1.63.04.05.05.1.06.14Z"/>
              </g>
              <g>
                <path class="cls-16" d="M8.31,3.42l-.35,1.05-.15.4-.34-1.12c-.12-.38-.22-.76-.36-1.13-.04.1,0,.19.02.29l.43,2.02-.98-.65c-.07-.05-.16,0-.19.05-.14.2.25.38.39.48.28.18.54.36.85.5.06.23.16.35.04.58-.5-.52-.98-1.02-1.52-1.48.17-.92.34-1.82.64-2.66l1.51,1.68Z"/>
                <path class="cls-4" d="M8.31,3.42l-1.51-1.68s0-.09.05-.14c.54.5,1.05,1.04,1.54,1.61-.02.08-.05.14-.07.21Z"/>
              </g>
            </g>
          </g>
          <g>
            <path class="cls-12" d="M10.96,13.61l-.67.02v-4.71s1.08-.92,1.08-.92c.15-.13.28-.25.44-.35.06-.04.07-.1.07-.16,0-.05-.04-.1-.1-.14-.14-.08-.28-.04-.4.06-.38.32-.71.65-1.09,1.01l-.04-1.71.53-.47.69-.62c.09-.08.1-.22.02-.29-.08-.09-.22-.09-.32,0l-.93.91-.05-1.33,1-.93c.07-.11.05-.22-.05-.28-.08-.06-.18-.02-.26.06l-.69.68-.1-2.24c0-.07.09-.17-.02-.23-.08.83-.08,1.63-.1,2.48l-.68-.77s-.09-.06-.12-.05c-.11.02-.18.25-.08.37l.87.91-.02,1.34-.91-.9c-.09-.08-.2-.11-.3-.05-.07.04-.15.17-.07.27.1.13.25.21.36.34l.9.82-.03,1.68-1.13-1.01c-.08-.06-.16-.08-.27-.06-.07.01-.16.08-.18.18,0,.13.1.17.18.23l1.41,1.17v4.51s-.02.04-.03.04c-.28-.37-.66-.66-1.05-.92.02-.04,0-.09-.03-.16-.47-1.4-.73-2.83-.65-4.31s.38-2.76.8-4.1c.05-.16.1-.28.16-.43.35-.88.74-1.72,1.18-2.54,1.03,1.76,1.68,3.74,1.98,5.78.27,1.81-.07,3.81-.71,5.49-.18.47-.38.92-.59,1.36Z"/>
            <path class="cls-20" d="M10.28.98c-.44.82-.84,1.66-1.18,2.54-.06.15-.11.26-.16.43-.42,1.34-.73,2.69-.8,4.1s.19,2.91.65,4.31c.02.07.05.11.03.16-.04.03-.07-.06-.12-.06-.71-1.92-.99-3.54-.74-5.63.28-2.29.97-4.19,2.13-6.17.11.1.13.23.19.32Z"/>
            <path class="cls-25" d="M10.28,13.62s-.15.08-.22.04c-.08-.04-.13-.14-.2-.23,0,0,.03-.01.03-.04v-4.51s-1.4-1.17-1.4-1.17c-.08-.07-.19-.11-.18-.23.02-.11.11-.17.18-.18.11-.02.18,0,.27.06l1.13,1.01.03-1.68-.9-.82c-.11-.13-.26-.21-.36-.34-.07-.1,0-.22.07-.27.1-.06.21-.03.3.05l.91.9.02-1.34-.87-.91c-.1-.12-.03-.36.08-.37.04,0,.09.01.12.05l.68.77c.02-.85.02-1.65.1-2.48.11.06.02.15.02.23l.1,2.24.69-.68c.09-.08.18-.12.26-.06.09.07.11.18.05.28l-1,.93.05,1.33.93-.91c.1-.08.24-.08.32,0,.07.08.06.21-.02.29l-.69.62-.53.47.04,1.71c.37-.36.71-.69,1.09-1.01.12-.1.26-.14.4-.06.06.04.09.09.1.14,0,.06-.01.13-.07.16-.16.1-.3.23-.44.35l-1.08.92v4.71Z"/>
          </g>
          <g>
            <g>
              <path class="cls-23" d="M19.56,7.09c-.48,1.5-1.24,2.92-2.14,4.23-.54.79-1.21,1.41-1.91,2.01-.5-.19-1.04-.23-1.57-.03-.25-.11-.49-.2-.75-.21.04-.08.11-.14.18-.21l1.09-1.12c.64.08,1.28.14,1.93.18.11,0,.18-.1.17-.2-.03-.14-.13-.23-.27-.24l-1.49-.09,1.12-1.15c.55.06,1.07.1,1.62.12.11,0,.19-.12.17-.2-.01-.06-.08-.16-.17-.17-.41-.06-.81-.04-1.26-.06l.81-.78c.45.01.87.02,1.31,0,.1,0,.16-.13.15-.2s-.09-.14-.18-.14l-.92.02,1.63-1.59c-.27.17-.51.36-.76.56l-1.02.83.05-.81c0-.08-.02-.14-.08-.18.73-.27,1.5-.45,2.27-.59Z"/>
              <path class="cls-22" d="M16.98,7.78s0,.03.03.04v1.15s-.9.77-.9.77c-.04-.43,0-.83-.07-1.23-.01-.09-.14-.16-.2-.15-.07,0-.16.07-.17.17l.09,1.49-1.14,1.05-.1-1.37c0-.13-.06-.24-.19-.28-.12-.03-.26.06-.25.19l.05,1.25c0,.23.02.45.06.68l-1.52,1.51s-.04.06-.05.08c-.35.15-.68.31-.97.59-.08-.02-.17,0-.23-.07.5-1.13.97-2.29,1.15-3.52.17-.11.33-.25.5-.38.56-.41,1.16-.73,1.78-1.05.7-.36,1.4-.69,2.15-.92Z"/>
              <path class="cls-6" d="M19.56,7.09c-.77.13-1.54.32-2.27.59-.09.03-.21.07-.31.1-.74.23-1.44.56-2.15.92-.62.32-1.21.65-1.78,1.05-.18.13-.33.27-.5.38l.09-.61,1.98-1.14c.54-.31,1.06-.56,1.65-.77,1.1-.37,2.22-.62,3.37-.79.02.11-.06.19-.08.27Z"/>
              <path class="cls-21" d="M13.2,13.1c-.19,0-.41.03-.59.03.01-.02.03-.05.05-.08l1.52-1.51c-.04-.23-.05-.44-.06-.68l-.05-1.25c0-.13.13-.23.25-.19.13.05.18.16.19.28l.1,1.37,1.14-1.05-.09-1.49c.01-.1.1-.17.17-.17.06,0,.19.06.2.15.06.4.03.79.07,1.23l.9-.77v-1.15s-.03-.02-.02-.04c.1-.03.22-.07.31-.1.06.04.09.1.08.18l-.05.81,1.02-.83c.25-.2.49-.39.76-.56l-1.63,1.59.92-.02c.09,0,.17.06.18.14s-.05.2-.15.2c-.44.02-.87,0-1.31,0l-.81.78c.45.02.85,0,1.26.06.1.01.16.11.17.17.02.08-.06.21-.17.2-.55-.02-1.07-.06-1.62-.12l-1.12,1.15,1.49.09c.14,0,.24.1.27.24,0,.1-.06.21-.17.2-.66-.04-1.29-.1-1.93-.18l-1.09,1.12c-.07.07-.14.13-.18.21Z"/>
            </g>
            <g>
              <path class="cls-23" d="M2.93,7.67c-.02.05-.1.08-.09.15l.04.86c-.59-.52-1.16-.98-1.77-1.41-.01.06.06.07.09.09l1.53,1.49c-.31.02-.61-.01-.93-.01-.1,0-.17.05-.18.14-.01.09.04.18.15.21l1.32-.02.83.79c-.44.01-.85,0-1.28.05-.1.01-.17.11-.18.17-.01.08.07.21.17.2l1.63-.11,1.13,1.15c-.55.02-1.06.03-1.57.09-.09.04-.15.12-.18.19-.02.06.02.24.12.23.66-.02,1.3-.11,1.95-.18l.75.77-.68.42c-.38.06-.73.17-1.04.41-.94-.75-1.74-1.64-2.38-2.68-.69-1.14-1.34-2.33-1.7-3.58.77.12,1.53.32,2.27.57Z"/>
              <path class="cls-22" d="M7.64,10.1c.12.71.32,1.41.57,2.1.01.04.02.06,0,.08-.43-.09-.87-.07-1.29.07l-.88-.85c.05-.18.05-.35.06-.53l.04-1.38c0-.1-.06-.17-.13-.19-.07-.03-.15,0-.21.05-.07.06-.1.14-.11.24l-.09,1.36-1.13-1.03.08-1.46c0-.08-.03-.15-.1-.18-.04-.02-.11-.04-.16,0-.11.06-.14.16-.15.27l-.05,1.11-.9-.79c.03-.42,0-.81,0-1.2.86.24,1.92.79,2.74,1.23.57.31,1.1.64,1.6,1.06.04.03.07.06.1.05Z"/>
              <path class="cls-17" d="M7.64,10.1s-.07-.02-.1-.05c-.5-.41-1.02-.75-1.6-1.06-.82-.44-1.88-.99-2.74-1.23-.09-.02-.16-.13-.27-.09-.74-.25-1.5-.46-2.27-.57-.04-.06-.09-.16-.1-.27,1.11.15,2.18.4,3.23.74.69.22,1.31.52,1.93.89s1.23.68,1.81,1.08l.1.55Z"/>
              <path class="cls-18" d="M2.93,7.67c.11-.04.18.07.27.09,0,.39.02.79,0,1.2l.9.79.05-1.11c0-.11.03-.21.15-.27.05-.03.12-.01.16,0,.07.03.09.1.1.18l-.08,1.46,1.13,1.03.09-1.36c0-.1.03-.18.11-.24.06-.06.14-.08.21-.05.07.03.14.1.13.19l-.04,1.38c0,.18-.01.35-.06.53l.88.85c-.16.05-.32.09-.46.18l-.75-.77c-.65.07-1.29.16-1.95.18-.1,0-.14-.17-.12-.23.02-.07.09-.15.18-.19.51-.06,1.02-.07,1.57-.09l-1.13-1.15-1.63.11c-.11,0-.19-.12-.17-.2,0-.06.08-.15.18-.17.43-.05.84-.04,1.28-.05l-.83-.79-1.32.02c-.11-.03-.16-.12-.15-.21.01-.08.08-.14.18-.14.31,0,.61.03.93.01l-1.53-1.49s-.1-.03-.09-.09c.61.44,1.18.89,1.77,1.41l-.04-.86c0-.07.08-.1.09-.15Z"/>
            </g>
          </g>
        </g>
        <g>
          <path class="cls-13" d="M8.21,12.29c.16.04.31.14.49.16.05,0,.08.09.12.06.4.26.77.56,1.05.92.07.09.12.19.2.23.07.04.18-.02.22-.04l.67-.02c.15,0,.3.07.45.04.06.06.15.05.23.07.28-.27.62-.44.97-.59.18,0,.4-.04.59-.03.26.01.5.11.75.21.53-.2,1.07-.16,1.57.03.09.08.23.15.34.19.31.25.59.51.81.84.72,0,1.43.11,1.88.75.28.4.42.86.46,1.35,0,.09-.02.24-.16.24H1.38c-.13,0-.19-.1-.19-.21,0-.54.19-1.04.56-1.43.67-.71,1.41-1.1,2.41-.98l.3-.47c.12-.06.19-.17.27-.25.31-.24.66-.35,1.04-.41l.68-.42c.14-.09.3-.13.46-.18.42-.13.86-.16,1.29-.07Z"/>
          <path class="cls-2" d="M18.42,15.76c-.49-.54-1.14-.67-1.96-.6-.61-.9-1.33-1.46-2.45-1.01-.81-.49-1.53-.21-2.14.42-.62-.22-1.26-.2-1.89-.03l-.31-.45c-.19-.27-.42-.49-.67-.68-.5-.38-1.09-.45-1.7-.34-.5.09-.84.43-1.26.65-.22.11-.9-.04-1.54,1.12-.7-.2-1.36-.04-1.91.38-.37.29-.7.64-.86,1.07-.03.02-.08.04-.14.02.03-.39.21-.76.5-1.03.64-.6,1.2-.92,2.12-.76.12.02.19,0,.24-.1.28-.58.79-1.05,1.47-1.01.33-.29.69-.51,1.1-.64,1.15-.36,2.09.3,2.73,1.21.09.13.18.18.34.14.54-.12,1.09-.11,1.63.08l.44-.35c.47-.38,1.1-.41,1.63-.12.08.05.16.05.25.02,1.04-.42,1.87.24,2.42,1.07.85-.03,1.67.09,1.96.98Z"/>
          <g>
            <path class="cls-3" d="M18.42,15.76c.05.16.13.32.15.56l-16.83-.03c.16-.43.49-.78.86-1.07.54-.43,1.21-.59,1.91-.38.64-1.17,1.31-1.01,1.54-1.12.42-.22.76-.56,1.26-.65.6-.11,1.2-.04,1.7.34.25.19.48.41.67.68l.31.45c.63-.17,1.27-.19,1.89.03.61-.62,1.33-.9,2.14-.42,1.12-.45,1.84.11,2.45,1.01.82-.07,1.47.06,1.96.6Z"/>
            <g>
              <path class="cls-9" d="M15.3,14.95c.17-.05.33.05.38.2s-.05.32-.2.37-.32-.03-.38-.18.02-.34.19-.39Z"/>
              <path class="cls-14" d="M13.01,14.73c.16-.06.33.02.38.16.07.16-.01.33-.17.39-.14.06-.3,0-.37-.15-.07-.15-.01-.34.16-.4Z"/>
              <path class="cls-5" d="M10.68,15.47c.17-.04.31.07.35.21.04.16-.06.3-.21.34s-.3-.05-.34-.19c-.05-.15.04-.32.2-.36Z"/>
              <path class="cls-24" d="M5.29,15.32c.16-.03.3.09.33.21.04.16-.08.31-.22.34s-.29-.06-.33-.22c-.03-.14.06-.31.23-.34Z"/>
              <path class="cls-1" d="M6.88,14.25c.15-.06.31.03.36.15.06.16-.01.32-.17.38-.13.05-.29,0-.36-.16-.05-.12,0-.3.16-.37Z"/>
            </g>
          </g>
        </g>
      </g>
    </g>
  </g>
</svg>