<?xml version="1.0" encoding="UTF-8"?>
<svg id="Layer_2" data-name="Layer 2" xmlns="http://www.w3.org/2000/svg" viewBox="0 0 17.87 14.86">
  <defs>
    <style>
      .cls-1 {
        fill: none;
      }

      .cls-2 {
        fill: #513334;
      }

      .cls-3 {
        fill: #f4ab81;
      }

      .cls-4 {
        fill: #3da764;
      }

      .cls-5 {
        fill: #d1782b;
      }

      .cls-6 {
        fill: #723719;
      }

      .cls-7 {
        fill: #297741;
      }

      .cls-8 {
        fill: #297842;
      }

      .cls-9 {
        fill: #9ed2b1;
      }

      .cls-10 {
        fill: #e0ebb5;
      }

      .cls-11 {
        fill: #a2d4b5;
      }

      .cls-12 {
        fill: #a9cd43;
      }

      .cls-13 {
        fill: #523435;
      }

      .cls-14 {
        fill: #513433;
      }

      .cls-15 {
        fill: #1f5c21;
      }

      .cls-16 {
        fill: #9ed2b2;
      }

      .cls-17 {
        fill: #9ed3b2;
      }
    </style>
  </defs>
  <g id="Layer_1-2" data-name="Layer 1">
    <g>
      <path class="cls-2" d="M5.22,11.05c-.08.03-.22.02-.29.02-.14,0-.16.07-.23.14.59.73,1.24,1.4,1.9,2.07.23.03.44-.06.64-.07-.69-.7-1.41-1.39-2.02-2.17Z"/>
      <path class="cls-14" d="M12.63,11.02l.02.04c.18.43-1.33,1.47-2.03,2.16l.64.06c.67-.67,1.31-1.35,1.92-2.08-.05-.05-.09-.1-.19-.11l-.36-.07Z"/>
      <path class="cls-12" d="M7.6,7.21c-.1-.12-.06-.28.04-.36.11-.08.25-.07.34.04l.7.83v-1.9s-1.34-1.47-1.34-1.47c-.11-.12-.08-.29.04-.38.1-.07.24-.05.34.06l.96,1.03v-1.38c0-.15.09-.27.24-.29.12,0,.26.08.27.22l.02.93.98-1.02c.1-.11.25-.15.37-.06.1.08.14.25.03.36l-1.39,1.44v2.45s.68-.8.68-.8c.09-.13.25-.15.35-.07.13.09.14.25.04.37l-1.07,1.3c-.01.3.01.6,0,.89,1.01-.03,2.15-.56,2.39-1.66.36.02.67,0,.97-.18.58-.33.88-1.06.63-1.69-.13-.34-.42-.58-.7-.79-.13-.09-.19-.22-.12-.35.07-.12.22-.17.35-.09.15.09.27.19.42.33.26-.33.38-.75.33-1.17-.02-.23-.17-.39-.26-.58-.5-1.11-1.74-1.61-2.86-.97-.16-.31-.37-.6-.66-.79-.49-.32-1.09-.31-1.56.05-.26.2-.46.45-.6.75-1.09-.64-2.37-.15-2.85.97-.07.16-.19.28-.24.47-.11.46.02.92.31,1.28l.39-.31c.12-.1.29-.05.36.05.1.15.03.28-.09.37-.27.21-.55.43-.69.75-.26.62,0,1.38.58,1.72.32.19.66.22,1.02.2.21,1.1,1.4,1.64,2.37,1.65v-.89s-1.08-1.31-1.08-1.31Z"/>
      <path class="cls-10" d="M7.52,2.24c.14-.3.34-.55.6-.75.47-.35,1.07-.37,1.56-.05.3.2.5.48.66.79,1.13-.64,2.36-.14,2.86.97.03-.49-.11-.98-.45-1.37-.61-.7-1.67-.81-2.44-.27-.24-.56-.63-1.03-1.3-1.07-.71-.04-1.21.4-1.48,1.07-.69-.5-1.67-.46-2.3.13-.42.39-.62.95-.58,1.5.48-1.12,1.76-1.6,2.85-.97Z"/>
      <path class="cls-1" d="M10.61,13.23c.7-.7,2.21-1.73,2.03-2.16l-.02-.04c-.39-.08-1-.51-1.31-.76l-1.56,2.92.86.04Z"/>
      <path class="cls-1" d="M8.11,13.19s.02-.02,0-.04l-1.54-2.89c-.44.33-.8.61-1.34.8.61.78,1.33,1.46,2.02,2.17l.86-.03Z"/>
      <path class="cls-1" d="M9.33,12.88l1.62-2.96c.03-.06-.4-.11-.58-.23-.39.12-.78.21-1.18.22v3.18c.06-.05.09-.12.14-.21Z"/>
      <path class="cls-1" d="M8.68,13.1v-3.18c-.41-.01-.79-.12-1.19-.23l-.56.23,1.67,3.06c.03.06.04.1.09.12Z"/>
      <path class="cls-13" d="M9.2,13.09c0,.09.06.09.13.09h.43s1.56-2.92,1.56-2.92c-.13-.1-.23-.25-.37-.34l-1.62,2.96c-.05.09-.08.16-.13.21Z"/>
      <path class="cls-2" d="M8.11,13.19l.56-.02s.01-.05.01-.06c-.04-.02-.05-.06-.09-.12l-1.67-3.06c-.09.04-.16.11-.23.2-.04.05-.12.08-.13.14l1.54,2.89s0,.03,0,.04Z"/>
      <path class="cls-15" d="M16.76,6.2c-.25-.18-.52-.3-.81-.43.2-.65.18-1.31-.14-1.88-.43-.75-1.25-1.19-2.12-1.2-.11-.65-.45-1.19-.96-1.56-.65-.47-1.46-.47-2.18-.27C10.15.37,9.57,0,8.91,0c-.65,0-1.2.4-1.57.87-.68-.18-1.43-.21-2.09.21-.52.34-.95.91-1.05,1.61-.85,0-1.65.42-2.1,1.16-.35.58-.37,1.25-.17,1.91-.34.15-.65.3-.94.53C.23,6.9-.14,7.86.05,8.81c.16.82.77,1.38,1.54,1.6.05.47.3.88.72,1.12.8.44,1.76.33,2.4-.31.07-.07.09-.14.23-.14.08,0,.22,0,.29-.02.54-.18.9-.47,1.34-.8.01-.06.1-.09.13-.14.07-.1.14-.17.23-.2l.56-.23c.4.11.79.22,1.19.23,0-.17,0-.34,0-.51-.97-.01-2.17-.55-2.37-1.65-.36.02-.7-.01-1.02-.2-.57-.34-.84-1.1-.58-1.72.14-.32.42-.54.69-.75.13-.1.19-.22.09-.37-.07-.1-.24-.15-.36-.05l-.39.31c-.28-.36-.41-.83-.31-1.28.04-.19.17-.31.24-.47-.05-.55.16-1.11.58-1.5.64-.59,1.62-.63,2.3-.13.27-.67.77-1.11,1.48-1.07.67.04,1.06.51,1.3,1.07.76-.55,1.83-.44,2.44.27.33.38.47.88.45,1.37.09.19.23.35.26.58.04.42-.07.84-.33,1.17-.15-.14-.27-.24-.42-.33-.13-.08-.28-.02-.35.09-.08.14-.01.26.12.35.28.21.57.45.7.79.25.63-.05,1.36-.63,1.69-.3.17-.61.2-.97.18-.23,1.1-1.38,1.63-2.39,1.66v.51c.39-.02.77-.1,1.17-.22.18.13.61.17.58.23.14.09.24.24.37.34.31.25.92.68,1.31.76l.36.07c.09.02.13.06.19.11.61.64,1.58.75,2.37.33.45-.24.7-.66.76-1.14.78-.21,1.39-.79,1.54-1.63.18-1-.25-2-1.08-2.58ZM4.41,5.35c-.58.84-.26,1.96.47,2.55.28.23.68.29,1.03.34.2.46.54.86.99,1.14-.11.04-.26-.04-.33.06l-.22.3c-.29.39-.76.65-1.25.82l-.41-.14-.89-1.27.23-1.13c.03-.15-.07-.26-.21-.29-.35-.07-.3.57-.4.78l-.71-1.13c-.08-.12-.25-.13-.35-.05-.11.08-.13.22-.05.35l.81,1.32-1.05-.43c-.13-.05-.27.03-.31.16-.03.08,0,.23.11.29l1.75.75.68.96c-.04.07-.01.17-.05.2-.49.43-1.19.46-1.74.13-.44-.26-.44-.62-.41-1.08-1.05-.12-1.6-.69-1.59-1.72.01-1.21.91-1.86,2.02-2.17.1,0-.08-.31-.13-.46-.14-.46-.18-.98.07-1.44.32-.6.96-.98,1.63-1l-.18.42c-.06.62.07,1.24.5,1.73ZM16.48,9.81c-.23.1-.46.15-.71.19.03.36.06.71-.26.96-.55.44-1.34.45-1.89-.01-.05-.04-.05-.18-.04-.24l.68-.94,1.73-.74c.13-.05.17-.2.12-.32-.04-.09-.17-.19-.3-.14l-1.07.44.84-1.36c.08-.13,0-.27-.09-.33-.12-.07-.26-.03-.34.08l-.7,1.1c-.1-.22-.06-.89-.45-.76-.13.04-.19.18-.17.32l.22,1.09-.89,1.27-.42.13c-.48-.19-.9-.47-1.25-.82-.26-.26-.09-.34-.56-.34.46-.26.81-.66,1.01-1.15.35-.03.69-.12.97-.33.03-.05.07-.1.1-.08.71-.5,1.01-1.72.43-2.49.44-.49.55-1.1.51-1.73l-.2-.42c1.05.01,2.02,1.01,1.78,2.07l-.08.34c-.04.17-.18.32-.16.49.35.11.69.23,1.02.42.65.39,1.02,1.04,1.04,1.78.02.64-.28,1.24-.9,1.51Z"/>
      <path class="cls-4" d="M3.91,3.62c-.45.08-.86.31-1.17.67-.52.61-.32,1.36-.31,1.33,0,.01-.02.02-.04.02.05.15.23.47.13.46.05,0,.13.12.1.15-1.04.43-1.83.91-2.12,2.02-.01,1.03.54,1.59,1.59,1.72-.03.46-.04.82.41,1.08.55.33,1.25.3,1.74-.13.04-.04,0-.13.05-.2l-.68-.96-1.75-.75c-.12-.05-.14-.21-.11-.29.05-.14.18-.22.31-.16l1.05.43-.81-1.32c-.08-.13-.06-.26.05-.35.1-.08.28-.08.35.05l.71,1.13c.1-.22.05-.86.4-.78.14.03.24.14.21.29l-.23,1.13.89,1.27.41.14c.49-.17.96-.42,1.25-.82,0,0-.01-.02,0-.04-.13-.19-.23-.38-.32-.59-.36,0-.7-.1-.91-.38-.18-.24-.24-.54-.24-.83-.73-.59-1.05-1.71-.47-2.55-.43-.49-.56-1.11-.5-1.73Z"/>
      <path class="cls-4" d="M15.24,6.26c0-.06.03-.14.08-.16-.02-.17.12-.32.16-.49-.08-.01-.01-.09,0-.13.13-.95-.63-1.67-1.5-1.85.04.63-.07,1.24-.51,1.73.58.77.28,1.98-.43,2.49-.07.35-.09.76-.41,1.03-.22.18-.49.24-.78.25-.1.23-.2.43-.34.61.35.35.76.63,1.25.82l.42-.13.89-1.27-.22-1.09c-.03-.14.03-.28.17-.32.39-.13.34.55.45.76l.7-1.1c.08-.12.21-.15.34-.08.1.06.17.2.09.33l-.84,1.36,1.07-.44c.12-.05.26.05.3.14.05.12,0,.26-.12.32l-1.73.74-.68.94c-.02.05-.01.2.04.24.56.47,1.34.46,1.89.01.31-.25.29-.6.26-.96.25-.04.48-.09.71-.19.62-.27.91-.87.9-1.51-.07-.01-.04-.1-.06-.15-.27-1.01-1.16-1.53-2.08-1.88Z"/>
      <path class="cls-7" d="M12.62,8.87c.33-.27.34-.68.41-1.03-.04-.02-.07.03-.1.08-.28.21-.62.3-.97.33-.21.49-.55.89-1.01,1.15.47,0,.3.08.56.34.13-.18.24-.38.34-.61.29,0,.56-.07.78-.25Z"/>
      <path class="cls-8" d="M6.03,9.11c.09.21.19.4.32.59-.01.02,0,.04,0,.04l.22-.3c.07-.1.22-.02.33-.06-.45-.28-.79-.68-.99-1.14-.35-.05-.75-.11-1.03-.34,0,.29.06.59.24.83.21.28.55.38.91.38Z"/>
      <path class="cls-9" d="M2.75,4.29c.31-.36.72-.59,1.17-.67l.18-.42c-.66.02-1.3.4-1.63,1-.25.46-.21.98-.07,1.44.02,0,.03,0,.04-.02-.02.03-.21-.72.31-1.33Z"/>
      <path class="cls-16" d="M15.47,5.47s-.07.12,0,.13l.08-.34c.24-1.05-.73-2.05-1.78-2.07l.2.42c.88.17,1.63.89,1.5,1.85Z"/>
      <path class="cls-17" d="M2.63,6.25s-.05-.16-.1-.15c-1.11.31-2,.96-2.02,2.17.29-1.11,1.07-1.59,2.12-2.02Z"/>
      <path class="cls-11" d="M16.34,6.52c-.33-.19-.67-.31-1.02-.42-.05.03-.09.1-.08.16.93.36,1.81.87,2.08,1.88.01.05-.01.14.06.15-.02-.74-.39-1.39-1.04-1.78Z"/>
      <path class="cls-6" d="M9.75,13.18h-.43c-.07,0-.13,0-.13-.09v-3.18s0-.51,0-.51c0-.29-.02-.58,0-.89l1.07-1.3c.1-.12.08-.28-.04-.37-.1-.08-.26-.06-.35.07l-.68.8v-2.45s1.38-1.44,1.38-1.44c.11-.11.07-.28-.03-.36-.12-.09-.26-.05-.37.06l-.98,1.02-.02-.93c0-.14-.14-.23-.27-.22-.15.01-.23.13-.23.29v1.38s-.96-1.03-.96-1.03c-.1-.11-.24-.13-.34-.06-.12.08-.15.26-.04.38l1.35,1.47v1.9s-.7-.83-.7-.83c-.09-.11-.24-.12-.34-.04-.1.08-.13.24-.04.36l1.08,1.31v.89c0,.17,0,.34,0,.51v3.18s0,.04-.01.06l-.56.02-.86.03c-.21,0-.42.1-.64.07-1.47.2-2.91.52-4.31,1.08H.81c-.15,0-.25.11-.26.23,0,.12.08.27.24.27h16.27c.15,0,.24-.09.26-.21.02-.1-.05-.28-.19-.28h-1.56c-1.39-.55-2.82-.94-4.31-1.08l-.64-.06-.86-.04ZM14.01,14.35h-.64c-.17,0-.33,0-.49-.02.01.02,0,.03-.04.03h-7.79s-.04-.02-.03-.03c-.26.05-.78.03-1.11.02.67-.21,1.34-.35,2.06-.46,2.6-.41,5.55-.27,8.05.46Z"/>
      <path class="cls-3" d="M5.96,13.89c-.72.11-1.39.25-2.06.46.34,0,.85.03,1.11-.02,2.44-.48,5.44-.48,7.87,0,.15.03.32.03.49.03h.64c-2.5-.74-5.45-.88-8.05-.47Z"/>
      <path class="cls-5" d="M5.01,14.33s0,.04.03.03h7.79s.05,0,.04-.03c-2.42-.48-5.43-.49-7.87,0Z"/>
    </g>
  </g>
</svg>