<?xml version="1.0" encoding="UTF-8"?>
<svg id="Layer_2" data-name="Layer 2" xmlns="http://www.w3.org/2000/svg" viewBox="0 0 13.23 18.27">
  <defs>
    <style>
      .cls-1 {
        fill: #148750;
      }

      .cls-2 {
        fill: #447936;
      }

      .cls-3 {
        fill: #7bb448;
      }

      .cls-4 {
        fill: #80b346;
      }

      .cls-5 {
        fill: #765336;
      }

      .cls-6 {
        fill: #996e47;
      }

      .cls-7 {
        fill: #107847;
      }

      .cls-8 {
        fill: #0e653d;
      }

      .cls-9 {
        fill: #96c845;
      }

      .cls-10 {
        fill: #6fa945;
      }

      .cls-11 {
        fill: #0e814d;
      }
    </style>
  </defs>
  <g id="Layer_1-2" data-name="Layer 1">
    <g id="Generative_Object" data-name="Generative Object">
      <g>
        <path class="cls-11" d="M7.06,17.91h.07s5.43,0,5.43,0c.09,0,.14.13.13.19s-.05.17-.16.17H.67c-.11,0-.15-.14-.15-.2,0-.07.07-.16.17-.16l5.41-.03c.31.06.63.04.95.03Z"/>
        <g>
          <path class="cls-7" d="M10.82,11.26l2.41,3.95-6.1.03-.52-.05v-4.35s3.88,0,3.88,0c.09.09.22.5.33.43Z"/>
          <path class="cls-1" d="M6.6,10.83v4.35s-.5.05-.5.05l-6.1-.03,1.09-1.8s.05,0,.07-.01c.02-.02.03-.04.05-.07l1.51-2.49h3.89Z"/>
          <path class="cls-8" d="M10.24,10.3l.57.96c-.1.06-.24-.34-.33-.43h-3.89s-3.89,0-3.89,0l-1.51,2.49s-.03.05-.05.07c-.02.02-.04.02-.07.01l1.9-3.12,7.26.02Z"/>
        </g>
        <g>
          <g>
            <path class="cls-9" d="M6.9.48s-.05.01-.09,0c.02.02-.11-.27-.17-.26-.03,0-.04.05-.04.09v4.91s.02.13.06.13h2.23c.27-.01.59.03.87,0,.02,0,.02-.05,0-.05-.03,0-.07-.02-.03-.03.01,0,.03,0,.04,0,.04.02.06.07.08.13-.36.01-.72,0-1.08,0h-4.29s-.05.04-.07.05c0,0,0-.02,0-.04h-1.08S6.61,0,6.61,0l.29.48Z"/>
            <path class="cls-4" d="M6.9.48l2.89,4.78s-.03,0-.04,0c-.04,0,0,.03.03.03.01,0,.02.05,0,.05-.28.04-.6,0-.87,0h-2.23s-.06-.09-.06-.12V.31s0-.08.04-.09c.06-.01.19.27.17.26.04.02.06.02.09,0Z"/>
          </g>
          <g>
            <path class="cls-3" d="M6.6,5.81v4.38c.19.04.38,0,.58,0h.56c.36,0,.71,0,1.07,0h1.29c.11,0,.23.02.34-.03.07-.03.11,0,.18.01.17.02.35.01.52,0h.46s-.04-.06-.01-.07c.02,0,.03-.02.04,0,.03.05.09.06.08.17-.5-.05-.99.01-1.46.01l-7.26-.02h-1.49s2.75-4.53,2.75-4.53c0,0-.01.04,0,.06h2.35Z"/>
            <path class="cls-10" d="M11.62,10.12s-.02,0-.04,0c-.03.01,0,.03.01.07h-.46c-.17,0-.35,0-.52,0-.07,0-.11-.05-.18-.01-.11.05-.22.03-.34.03h-1.29c-.36,0-.71,0-1.07,0h-.56c-.19,0-.39.03-.58-.01v-4.38s2.39-.03,2.39-.03l2.63,4.34Z"/>
            <path class="cls-2" d="M8.78,5.4l.21.39-2.39.03h-2.35s0-.06,0-.06l.18-.31s.04-.03.07-.06h4.29Z"/>
          </g>
        </g>
        <g>
          <path class="cls-6" d="M7.06,17.91c-.32,0-.64.03-.95-.03v-2.15s.95,0,.95,0c.02.07.04.13,0,.19v1.98Z"/>
          <path class="cls-5" d="M7.13,15.23v2.67s-.07,0-.07,0v-1.98c.03-.06.01-.12,0-.19h-.95c0-.16-.02-.33-.01-.5l.51-.05.52.05Z"/>
        </g>
      </g>
    </g>
  </g>
</svg>