<?xml version="1.0" encoding="UTF-8"?>
<svg id="Layer_2" data-name="Layer 2" xmlns="http://www.w3.org/2000/svg" xmlns:xlink="http://www.w3.org/1999/xlink" viewBox="0 0 21.62 17.17">
  <defs>
    <style>
      .cls-1 {
        fill: #539436;
      }

      .cls-2 {
        fill: #99d06e;
      }

      .cls-3 {
        fill: #6aa843;
      }

      .cls-4 {
        fill: #509035;
      }

      .cls-5 {
        fill: #276d2a;
      }

      .cls-6 {
        fill: url(#linear-gradient);
      }

      .cls-7 {
        fill: #6daa44;
      }

      .cls-8 {
        fill: #f0f0f3;
      }

      .cls-9 {
        fill: #63a040;
      }

      .cls-10 {
        fill: #4b8731;
      }

      .cls-11 {
        fill: #bee07e;
      }

      .cls-12 {
        fill: #a2ca49;
      }

      .cls-13 {
        fill: #8ac95b;
      }

      .cls-14 {
        fill: #69a643;
      }

      .cls-15 {
        fill: #6eaa45;
      }

      .cls-16 {
        fill: #fcfbfa;
      }

      .cls-17 {
        fill: #89c45d;
      }

      .cls-18 {
        fill: #387c30;
      }

      .cls-19 {
        fill: #8bc85e;
      }

      .cls-20 {
        fill: #9bd16e;
      }

      .cls-21 {
        fill: #add24d;
      }

      .cls-22 {
        fill: #b8d950;
      }

      .cls-23 {
        fill: #6fa840;
      }

      .cls-24 {
        fill: #9cc547;
      }

      .cls-25 {
        fill: #30752d;
      }

      .cls-26 {
        fill: #34782e;
      }

      .cls-27 {
        fill: #9ec849;
      }

      .cls-28 {
        fill: #6aa643;
      }

      .cls-29 {
        fill: #9ac548;
      }
    </style>
    <linearGradient id="linear-gradient" x1="7.66" y1="8.25" x2="7.84" y2="12.5" gradientUnits="userSpaceOnUse">
      <stop offset="0" stop-color="#478834"/>
      <stop offset="1" stop-color="#286f2c"/>
    </linearGradient>
  </defs>
  <g id="Layer_1-2" data-name="Layer 1">
    <g id="Generative_Object" data-name="Generative Object">
      <g>
        <path class="cls-8" d="M4.56,16.18s0,.07-.02.06c-.04-.01-.06.02-.09.02l-.65.03-.57.03-.53.03-.42.03c-.14.01-.27,0-.41.02l-.54.07c-.06,0-.13,0-.19.03-.04.02-.06.13-.01.19h9.03s10.25,0,10.25,0c.09,0,.05-.1.05-.14,0-.08-.07-.07-.14-.08l-.29-.04-.3-.03-.38-.03c-.14,0-.27-.03-.42-.03l-.56-.03-.63-.03-.68-.03c-.13,0-.26-.01-.38-.02,0,0,0-.02,0-.03.28.02.55,0,.81.02l.69.03.53.03.48.03.38.03s.62.06.65.07c.1.02.16.01.25.08.12.09.31.01.45.05s.62.06.64.11c0,.02.08.07.03.09-.18.08-.37.1-.57.12-1.23.13-2.46.18-3.71.21-4.38.12-8.74.12-13.13,0-1.23-.04-2.43-.09-3.64-.22-.2-.02-.38-.04-.56-.13.11-.2.92-.16,1.09-.23.12-.05.21-.08.34-.09.35-.04.63-.06.99-.09l.48-.03.53-.03.6-.03c.16,0,.32,0,.48-.02.02-.11,0-.2-.02-.31-.12-.73-.34-1.42-.63-2.09-.04-.01-.01-.06.01-.05.33.77.62,1.57.71,2.42Z"/>
        <g>
          <path class="cls-10" d="M2.46,8.38s-.01.04,0,.06c.98.83,1.86,1.94,2.48,3.05.76,1.35,1.46,3.12,1.55,4.69.03.02.05.01.05,0,.04-.29-.14-1.23-.24-1.59-.57-2.08-1.61-4-3.09-5.54.07-.05,0-.08.02-.11.77.58,1.41,1.32,1.95,2.14.66,1.01,1.14,2.11,1.44,3.24.17.6.22,1.22.21,1.88l1.48-.02h.57s.02-.07.04-.05c-.08.08.57.03.57.03.02,0,.05.02.07,0h.86s.42,0,.42,0c.18,0,.35-.02.53,0l.15.02c.06,0,.08-.02.08-.07l.07.06h.44c.16,0,.31,0,.47,0h.58s.05.01.07.01h.73c.1,0,.2.03.31,0,.01,0,0-.05,0-.06.02.1.42.07.52.07.02,0,.05,0,.07,0,.3.03.6.02.91.03.1,0,.2.02.31.01.02.02.03,0,.06,0,.12.02.39.04.5,0,.02,0,.03.03.06.03.12,0,.25.01.38.02l.68.03.63.03.56.03c.14,0,.28.02.42.03l.38.03.3.03.29.04c.07,0,.15,0,.14.08,0,.04.04.14-.05.14h-10.25s-9.03,0-9.03,0c-.04-.06-.02-.17.01-.19.06-.03.13-.02.19-.03l.54-.07c.14-.02.27-.01.41-.02l.42-.03.53-.03.57-.03.65-.03s.05-.03.09-.02c.02,0,.02-.04.02-.06.1.11.55.06.7.03.02.02.05.01.07.01.1,0,.2.02.32-.03-.05-.5-.07-.98-.18-1.45-.34-1.55-.9-3.06-1.74-4.45-.48-.8-1.03-1.51-1.72-2.15.01-.04.07-.04.06.03l.38.21Z"/>
          <path class="cls-27" d="M7.44,11.87c.2.39.3.82.42,1.25s.21.84.29,1.28c.01.07.09.11.05.19-.02.04.06.07.06.1-.04.46.1,1,.05,1.47l-1.48.02c0-.66-.05-1.28-.21-1.88.03,0,.04-.02.03-.06-.74-3.49-2.6-6.81-4.96-9.49.38.2.7.44,1.05.7,1.23.93,2.3,2.04,3.16,3.32.66.98,1.16,2.05,1.54,3.09Z"/>
          <path class="cls-21" d="M9.71.57c.43.83.76,1.7.99,2.62.41,1.6.57,3.16.66,4.81.6-2,1.47-3.99,2.92-5.44-.27.42-.34.71-.56,1.06-.05.01-.09.06-.13.12-.38.7-.71,1.41-.98,2.17-.52,1.49-.98,3-1.2,4.56-.07.49-.03.98-.06,1.45-.08,1.35-.19,2.92-.51,4.23h-.42c.23-2.08.53-4.16.44-6.24v-.2c-.03-.4,0-.79,0-1.19v-.52s-.03-.52-.03-.52c-.12-2.23-.37-4.76-1.18-6.86,0-.02,0-.05.02-.06s.03.01.04,0Z"/>
          <path class="cls-22" d="M9.71.57s-.03,0-.04,0-.03.04-.02.06c.82,2.1,1.06,4.63,1.18,6.86l.03.52v.52c0,.4-.02.8,0,1.19v.2c.1,2.08-.2,4.16-.43,6.24h-.86s.02-.11.03-.16c.26-.95.37-1.95.38-2.97,0-.41.05-.78.01-1.17.06-.02.04-.09.05-.16.19-2.97.27-6.29-.13-9.24-.11-.81-.29-1.7-.55-2.47.13.2.26.38.36.57Z"/>
          <path class="cls-23" d="M16.69,2.53c-.08-.02-.1.08-.15.13l-.34.41c-1.38,1.65-2.56,4.54-3.14,6.64s-.9,4.29-.96,6.46h-.44s-.07-.06-.07-.06l-.02-.81c0-.11.09-.23-.01-.35-.05.13-.01.23-.04.34-.07.3-.09.59-.17.88-.17-.02-.35,0-.53,0,.32-1.3.42-2.88.51-4.23.21.03.27-.13.42.03.03-.1,0-.19,0-.29,0-.04.06-.07.04-.14,0-.03-.02-.06.01-.09.02-.02.02,0,.06,0-.07.48-.11.96-.13,1.45,0,.1-.06.22,0,.32.38-2.46.96-4.79,2.1-7.03.75-1.48,1.74-2.94,3.01-3.97-.05.14-.1.23-.16.33Z"/>
          <path class="cls-9" d="M16.69,2.53c-1.1,1.7-1.94,3.56-2.57,5.51-.47,1.45-.78,2.93-.99,4.44,0,.05-.04.06-.03.09,0,.05,0,.09-.03.16-.35,1.12-.56,2.28-.5,3.44-.16,0-.31,0-.47,0,.06-2.17.37-4.35.96-6.46s1.76-4.98,3.14-6.64l.34-.41c.04-.05.07-.15.15-.13Z"/>
          <path class="cls-12" d="M13.96,16.17h-.73c0-.14-.02-.29,0-.44s.01-.3.03-.46c.12-1.18.4-2.31.82-3.4,0-.02.01-.04.02-.05,0-.01-.04-.03-.04-.05.72-1.85,1.9-3.71,3.35-5.16.05-.05.07-.13.09-.17.12-.08.24-.17.39-.24-.09.17-.21.27-.34.43-1.57,2-2.55,4.33-3.16,6.75-.23.92-.39,1.85-.45,2.79Z"/>
          <path class="cls-29" d="M14.08,11.77c-.39,1.02-.7,2.08-.82,3.21l-.04.4c-.04.35.02.54-.05.8h-.58c-.06-1.17.15-2.33.5-3.45.02-.07.04-.11.03-.16.02,0,.04,0,.05,0,.03,0,0-.04,0-.07.8-2.39,2.28-4.62,4.35-6.06-.02.04-.04.12-.09.17-1.45,1.45-2.63,3.31-3.35,5.16Z"/>
          <path class="cls-24" d="M13.71,3.63c-.64,1.53-1.26,3.69-1.49,5.34l-.35,2.47s-.04-.03-.06,0c-.03.03-.02.06-.01.09.02.07-.04.11-.04.14,0,.1.03.19,0,.29-.16-.16-.22,0-.42-.03.03-.47,0-.95.06-1.45.23-1.56.68-3.08,1.2-4.56.27-.76.6-1.47.98-2.17.03-.06.08-.11.13-.12Z"/>
          <path class="cls-14" d="M5.26,16.21c-.15.02-.6.08-.7-.03-.09-.85-.37-1.65-.71-2.42-.48-1.11-1.2-2.1-2.02-3,.05,0,.11.03.17.07.7.52,1.3,1.13,1.83,1.82.8,1.05,1.27,2.27,1.43,3.55Z"/>
          <path class="cls-3" d="M5.48,14.74c.1.47.13.95.18,1.45-.13.05-.22.02-.32.03-.17-1.44-.75-2.8-1.69-3.93-.35-.42-.71-.8-1.13-1.13l-.51-.41s-.04-.01-.03-.03c0,0,.02,0,.03-.02.94.38,1.75,1.04,2.36,1.87.47.64.81,1.35,1.06,2.1,0,.03-.02.06.01.06.01,0,.03,0,.05,0Z"/>
          <path class="cls-19" d="M3.22,8.93s.05.06-.02.11c1.48,1.54,2.52,3.46,3.09,5.54.1.36.28,1.3.24,1.59,0,.01-.01.02-.05,0-.08-1.56-.78-3.33-1.55-4.69-.62-1.11-1.5-2.22-2.48-3.05-.01-.02.03-.05,0-.06.28.15.51.37.76.55Z"/>
          <g>
            <path class="cls-25" d="M15.86,14.44c-.1.57-.11,1.18-.1,1.77-.3-.01-.61,0-.91-.03-.03-2.71,1.26-6.68,2.9-8.88.58-.78,1.18-1.49,1.83-2.18.05-.05.12-.08.11-.15.07-.04.13-.12.22-.14-.16.28-.35.49-.52.73-.39.53-.78,1.04-1.12,1.61-1.28,2.15-2.1,4.82-2.41,7.27Z"/>
            <path class="cls-7" d="M19.99,9.29s.04,0,.03.02l-.54.48c-.79.7-1.5,1.47-2.06,2.37-.77,1.23-1.23,2.63-1.34,4.06-.1,0-.2,0-.31-.01-.01-.59,0-1.19.1-1.77.05-.03.04-.1.05-.16.1-.36.22-.7.37-1.05.72-1.72,2.04-3.14,3.7-3.94Z"/>
            <path class="cls-26" d="M15.8,11.04c-.43,1.21-.79,2.47-.92,3.79l-.04.43-.05.93c-.1,0-.5.03-.52-.07-.09-1.79.36-3.62,1.02-5.26,0,0,.02-.01.02-.02-.09.02.48.2.49.2Z"/>
            <path class="cls-28" d="M20.27,9.23c-.53.57-1.06,1.13-1.54,1.78-1.18,1.58-1.92,3.26-2.11,5.21-.1.04-.38.02-.5,0,.3-2.91,1.59-4.81,3.76-6.71.11-.1.24-.16.34-.28.02-.02.04-.03.04,0Z"/>
            <path class="cls-4" d="M15.8,11.04s-.57-.19-.49-.2c0,0-.02,0-.02.02.34-.84.71-1.71,1.22-2.53.75-1.2,1.62-2.32,2.78-3.1.04-.01.09.03.14-.02l-.85.97c-1.37,1.56-2.15,3.09-2.79,4.87Z"/>
            <path class="cls-17" d="M19.69,4.97c.01.07-.06.1-.11.15-.65.69-1.25,1.4-1.83,2.18-1.63,2.2-2.93,6.16-2.9,8.88-.02,0-.05,0-.07,0l.05-.93.04-.43c.13-1.32.49-2.57.92-3.79.63-1.78,1.42-3.3,2.79-4.87l.85-.97c-.05.05-.11,0-.14.02.12-.1.25-.21.4-.25Z"/>
            <path class="cls-20" d="M20.27,9.23s-.02-.03-.04,0c-.09.12-.22.18-.34.28-2.18,1.9-3.47,3.8-3.76,6.71-.02.01-.04.03-.06,0,.11-1.43.57-2.83,1.34-4.06.57-.9,1.27-1.68,2.06-2.37l.54-.48s-.02-.03-.03-.02c.11-.06.23-.12.36-.16,0,.06-.06.07-.08.09Z"/>
          </g>
          <path class="cls-2" d="M2,10.7s-.03,0-.03.02c0,.02.02.02.03.03l.51.41c.42.34.78.71,1.13,1.13.94,1.14,1.52,2.49,1.69,3.93-.02,0-.05,0-.07-.01-.16-1.28-.63-2.49-1.43-3.55-.53-.7-1.13-1.3-1.83-1.82-.06-.04-.12-.07-.17-.07-.06-.06-.16-.1-.18-.19.14,0,.24.09.34.13Z"/>
          <path class="cls-11" d="M13.23,16.17s-.05,0-.07,0c.07-.26.01-.44.05-.8l.04-.4c.12-1.13.43-2.19.82-3.21,0,.02.04.03.04.05,0,0-.01.03-.02.05-.42,1.09-.7,2.22-.82,3.4-.02.16,0,.31-.03.46s0,.3,0,.44Z"/>
          <path class="cls-16" d="M11.59,16.1s-.02.07-.08.07l-.15-.02c.08-.28.1-.58.17-.88.02-.11-.01-.21.04-.34.1.12.01.24.01.35l.02.81Z"/>
          <g>
            <path class="cls-15" d="M8.54,10.49c.01.2.06.37.12.58.44,1.67.51,3.36.25,5.05-.02-.01-.04,0-.04.05h-.57c.05-.47-.09-1-.05-1.46,0-.03-.08-.06-.06-.1.04-.08-.04-.12-.05-.19-.07-.44-.17-.86-.29-1.28s-.22-.87-.42-1.25c-.3-1.93-.93-3.94-1.65-5.79,1.25,1.23,2.16,2.76,2.71,4.42.03-.01.04-.02.05-.01Z"/>
            <path class="cls-6" d="M9.49,16.15s-.65.05-.57-.03c.26-1.69.18-3.38-.25-5.05-.05-.21-.11-.39-.12-.58,0-.01,0-.03-.03-.04-.46-2.74-1.35-5.37-2.79-7.73,0-.02,0-.04-.01-.05,0-.01.02-.04.03-.04.08-.04.97,1.42,1.06,1.58,1.48,2.42,2.47,4.85,2.7,7.69.03.34.04.65.04.99l-.03,2.05-.03,1.23Z"/>
            <path class="cls-1" d="M5.82,2.41c1.43,1.48,2.57,3.31,3.21,5.26-.09.08-.21.14-.34.15-.34-.91-.74-1.81-1.26-2.66l-1.7-2.79s.04.04.05.05c.01.02.06.02.04-.01Z"/>
            <path class="cls-5" d="M9.98,11.86c.03.38,0,.76-.01,1.17-.02,1.02-.12,2.01-.38,2.97-.04,0-.03-.02-.04-.05,0-.03.03-.04.03-.07v-1.59c.01-.69.07-1.34.02-2.03-.05-.75-.1-1.5-.27-2.21.19-.13.24.04.31-.1.01-.03-.04-.05-.04-.07,0-.02.02-.07,0-.08-.01-.01-.05,0-.05-.04.02-.39-.13-.14-.02-.37.24.8.37,1.64.45,2.48Z"/>
            <path class="cls-13" d="M5.82,2.41s-.03.03-.04.01c0-.01-.04-.03-.05-.05-.02-.04-.05-.07-.09-.1-.02.08.04.1.09.1l1.7,2.79c.52.85.92,1.75,1.26,2.66.27.72.47,1.48.64,2.23s.22,1.46.27,2.21c.05.69,0,1.34-.01,2.03v1.59s-.05.04-.04.07c0,.02,0,.05.04.05-.01.05,0,.11-.03.15-.02.02-.05,0-.07,0l.03-1.23.03-2.05c0-.34,0-.64-.04-.99-.24-2.84-1.23-5.26-2.7-7.69-.09-.15-.98-1.62-1.06-1.58-.01,0-.04.03-.03.04,0,.01.02.03.01.05l-.6-.99c.26.21.5.43.7.69Z"/>
            <path class="cls-18" d="M9.53,9.39c-.1.23.05-.03.02.37,0,.03.04.03.05.04.01.01,0,.06,0,.08,0,.02.06.04.04.07-.07.14-.12-.02-.31.1-.17-.75-.37-1.51-.64-2.23.13-.02.25-.07.34-.15.18.54.41,1.08.5,1.68,0,.02,0,.02,0,.03Z"/>
            <path class="cls-1" d="M5.73,2.38s-.11-.02-.09-.1c.04.03.07.06.09.1Z"/>
          </g>
        </g>
      </g>
    </g>
  </g>
</svg>