<?xml version="1.0" encoding="UTF-8"?>
<svg id="Layer_2" data-name="Layer 2" xmlns="http://www.w3.org/2000/svg" viewBox="0 0 16.67 16.87">
  <defs>
    <style>
      .cls-1 {
        fill: #7fb638;
      }

      .cls-2 {
        fill: #7fb738;
      }

      .cls-3 {
        fill: #39692b;
      }

      .cls-4 {
        fill: #324355;
      }
    </style>
  </defs>
  <g id="Layer_1-2" data-name="Layer 1">
    <g id="Generative_Object" data-name="Generative Object">
      <g>
        <path class="cls-4" d="M16.38,16.87H.28c-.19,0-.28-.19-.28-.32,0-.14.1-.32.27-.32h2.09c.6-.56,1.24-1.04,1.98-1.42.49-.25.96-.44,1.5-.54.67-.13,1.32-.07,1.97.2l.27-5.44.24-3.57c0-.07-.1-.19.04-.23-.02.24.01.45.02.68l.24,3.91.23,4.65c.65-.28,1.3-.34,1.98-.21.59.12,1.12.34,1.66.63.67.37,1.25.81,1.81,1.32h2.1c.17.01.27.19.27.33,0,.12-.08.32-.29.32Z"/>
        <g>
          <path class="cls-3" d="M12.73,9.52l.82-.77c-.23.1-.4.25-.61.38l-2.5,1.74-1.29.82c-.03-1.48.6-2.83,1.88-3.57,1.08-.62,2.51-.8,3.78-.74-.07,1.28-.4,2.72-1.18,3.74-.99,1.3-2.59,1.59-4.15,1.16,1.15-.9,2.21-1.79,3.25-2.76Z"/>
          <path class="cls-3" d="M3.61,9.02c-.16-.09-.26-.23-.44-.25,1.28,1.25,2.6,2.4,4.02,3.52-1.56.43-3.2.14-4.2-1.23-.74-1.01-1.08-2.43-1.14-3.67,1.25-.06,2.67.11,3.75.72,1.3.73,1.94,2.09,1.9,3.59-.33-.18-.6-.36-.9-.56-1.02-.68-2-1.38-3-2.11Z"/>
          <path class="cls-2" d="M7.9,6.97c-1.11-.66-2.19-1.52-3.1-2.13.89.92,1.82,1.69,2.79,2.5-1.2.33-2.4.06-3.05-1.09-.39-.69-.58-1.48-.62-2.28.87-.04,1.8.07,2.56.46.96.5,1.41,1.47,1.41,2.53Z"/>
          <path class="cls-1" d="M9.05,7.34c1.02-.82,1.99-1.65,2.92-2.57l-1.47,1.04c-.57.4-1.11.79-1.74,1.16,0-1.05.46-2.05,1.42-2.53.75-.39,1.69-.51,2.55-.46-.04.81-.22,1.58-.61,2.27-.64,1.15-1.82,1.41-3.07,1.09Z"/>
          <path class="cls-1" d="M8.41,1.52c0-.15.05-.26-.03-.38-.05.12-.03.22-.04.34l-.25,3.42c-.97-.75-1.46-1.84-.98-3.06.27-.69.7-1.29,1.22-1.83.6.61,1.13,1.38,1.34,2.2.29,1.09-.24,2.04-1.1,2.7-.03-.15-.03-.26-.04-.41l-.13-2.98Z"/>
        </g>
      </g>
    </g>
  </g>
</svg>