<?xml version="1.0" encoding="UTF-8"?>
<svg id="Layer_2" data-name="Layer 2" xmlns="http://www.w3.org/2000/svg" xmlns:xlink="http://www.w3.org/1999/xlink" viewBox="0 0 21.32 20.56">
  <defs>
    <style>
      .cls-1 {
        fill: #c5d0bf;
      }

      .cls-2 {
        fill: #cedda5;
      }

      .cls-3 {
        fill: #83ab69;
      }

      .cls-4 {
        fill: #6a9055;
      }

      .cls-5 {
        fill: #aacc76;
      }

      .cls-6 {
        fill: #396529;
      }

      .cls-7 {
        fill: #acd677;
      }

      .cls-8 {
        fill: #6ba134;
      }

      .cls-9 {
        fill: #66af1b;
      }

      .cls-10 {
        fill: #e1e8dd;
      }

      .cls-11 {
        fill: #558f10;
      }

      .cls-12 {
        fill: #7c936e;
      }

      .cls-13 {
        fill: #cbd6c0;
      }

      .cls-14 {
        fill: #a3c862;
      }

      .cls-15 {
        fill: #4b7c2a;
      }

      .cls-16 {
        fill: #78ab4a;
      }

      .cls-17 {
        fill: #99bb7e;
      }

      .cls-18 {
        fill: #9fbf83;
      }

      .cls-19 {
        fill: #357403;
      }

      .cls-20 {
        fill: #e3ebda;
      }

      .cls-21 {
        fill: #5a9315;
      }

      .cls-22 {
        fill: #598a40;
      }

      .cls-23 {
        fill: #81a673;
      }

      .cls-24 {
        fill: #316f04;
      }

      .cls-25 {
        fill: #7ebb39;
      }

      .cls-26 {
        fill: #5c784c;
      }

      .cls-27 {
        fill: #b2cf84;
      }

      .cls-28 {
        fill: #b0dc76;
      }

      .cls-29 {
        fill: #8aae56;
      }

      .cls-30 {
        fill: #b1d37c;
      }

      .cls-31 {
        fill: url(#linear-gradient-2);
      }

      .cls-32 {
        fill: #d4dbcc;
      }

      .cls-33 {
        fill: #9dbd8b;
      }

      .cls-34 {
        fill: #b5d07c;
      }

      .cls-35 {
        fill: #729264;
      }

      .cls-36 {
        fill: #4c7f39;
      }

      .cls-37 {
        fill: #62904c;
      }

      .cls-38 {
        fill: #a6c56d;
      }

      .cls-39 {
        fill: #4f8240;
      }

      .cls-40 {
        fill: #d9e5b6;
      }

      .cls-41 {
        fill: #5b952e;
      }

      .cls-42 {
        fill: #5a9149;
      }

      .cls-43 {
        fill: #5c9236;
      }

      .cls-44 {
        fill: #b4ce7d;
      }

      .cls-45 {
        fill: #cedea5;
      }

      .cls-46 {
        fill: url(#linear-gradient);
      }

      .cls-47 {
        fill: #8dbe3f;
      }

      .cls-48 {
        fill: #a0c458;
      }

      .cls-49 {
        fill: #c0dc8f;
      }

      .cls-50 {
        fill: #a7b698;
      }

      .cls-51 {
        fill: #b5cf90;
      }

      .cls-52 {
        fill: #7b9c6a;
      }

      .cls-53 {
        fill: #cad8b2;
      }

      .cls-54 {
        fill: #d6dfcb;
      }

      .cls-55 {
        fill: #9fc069;
      }

      .cls-56 {
        fill: #d8e1c7;
      }

      .cls-57 {
        fill: #afd879;
      }

      .cls-58 {
        fill: #b7cd85;
      }

      .cls-59 {
        fill: #b5d482;
      }

      .cls-60 {
        fill: #bbc6af;
      }

      .cls-61 {
        fill: #9ec564;
      }

      .cls-62 {
        fill: #c9e18e;
      }

      .cls-63 {
        fill: #62974c;
      }

      .cls-64 {
        fill: #afc09a;
      }

      .cls-65 {
        fill: #569c0d;
      }

      .cls-66 {
        fill: #7c9870;
      }

      .cls-67 {
        fill: #5c8b4a;
      }

      .cls-68 {
        fill: #607f50;
      }

      .cls-69 {
        fill: #5d764f;
      }

      .cls-70 {
        fill: #aecf7b;
      }

      .cls-71 {
        fill: #3d8004;
      }

      .cls-72 {
        fill: #a1bb8c;
      }

      .cls-73 {
        fill: #84c43e;
      }

      .cls-74 {
        fill: #619a1d;
      }

      .cls-75 {
        fill: #387309;
      }

      .cls-76 {
        fill: #718f66;
      }

      .cls-77 {
        fill: #72a839;
      }

      .cls-78 {
        fill: #c5daaf;
      }

      .cls-79 {
        fill: #778a65;
      }

      .cls-80 {
        fill: #c4d795;
      }

      .cls-81 {
        fill: #44712d;
      }

      .cls-82 {
        fill: #84b83f;
      }

      .cls-83 {
        fill: #b8d27e;
      }

      .cls-84 {
        fill: #a8bd97;
      }

      .cls-85 {
        fill: #6f8f55;
      }

      .cls-86 {
        fill: #87c241;
      }

      .cls-87 {
        fill: #70b826;
      }

      .cls-88 {
        fill: #a3b096;
      }

      .cls-89 {
        fill: #557944;
      }

      .cls-90 {
        fill: #8ebb5a;
      }

      .cls-91 {
        fill: #87a36e;
      }

      .cls-92 {
        fill: #97ae81;
      }

      .cls-93 {
        fill: #82b13a;
      }

      .cls-94 {
        fill: #9aa88f;
      }

      .cls-95 {
        fill: #598c4b;
      }

      .cls-96 {
        fill: #477734;
      }

      .cls-97 {
        fill: #79b22a;
      }

      .cls-98 {
        fill: #d2dccc;
      }

      .cls-99 {
        fill: #377508;
      }

      .cls-100 {
        fill: #80b330;
      }

      .cls-101 {
        fill: #829f6e;
      }

      .cls-102 {
        fill: #a6b697;
      }

      .cls-103 {
        fill: #96a98c;
      }

      .cls-104 {
        fill: #79ab3f;
      }

      .cls-105 {
        fill: #699b46;
      }

      .cls-106 {
        fill: #75a729;
      }

      .cls-107 {
        fill: #6ba239;
      }

      .cls-108 {
        fill: #8ab743;
      }

      .cls-109 {
        fill: #80a568;
      }

      .cls-110 {
        fill: #9fb58b;
      }

      .cls-111 {
        fill: #57872d;
      }

      .cls-112 {
        fill: #aace81;
      }

      .cls-113 {
        fill: #6e8c62;
      }

      .cls-114 {
        fill: #d0e0a7;
      }

      .cls-115 {
        fill: #70a54d;
      }

      .cls-116 {
        fill: #94bf4f;
      }

      .cls-117 {
        fill: #74a058;
      }

      .cls-118 {
        fill: #81ac5e;
      }

      .cls-119 {
        fill: #b4d07a;
      }

      .cls-120 {
        fill: #5f9833;
      }

      .cls-121 {
        fill: #85b452;
      }

      .cls-122 {
        fill: #dbe8bf;
      }

      .cls-123 {
        fill: #93d153;
      }

      .cls-124 {
        fill: #91a083;
      }

      .cls-125 {
        fill: #bcd386;
      }

      .cls-126 {
        fill: #60824f;
      }

      .cls-127 {
        fill: #59843c;
      }

      .cls-128 {
        fill: #aad15a;
      }

      .cls-129 {
        fill: #639045;
      }

      .cls-130 {
        fill: #cadda5;
      }

      .cls-131 {
        fill: #d4dec4;
      }

      .cls-132 {
        fill: #d1d9c9;
      }

      .cls-133 {
        fill: #8faa79;
      }

      .cls-134 {
        fill: #c7db91;
      }
    </style>
    <linearGradient id="linear-gradient" x1="3.88" y1="8.6" x2="6.15" y2="8.67" gradientUnits="userSpaceOnUse">
      <stop offset="0" stop-color="#afc99f"/>
      <stop offset="1" stop-color="#83a96c"/>
    </linearGradient>
    <linearGradient id="linear-gradient-2" x1="7.54" y1="13.54" x2="6.65" y2="15.21" gradientUnits="userSpaceOnUse">
      <stop offset="0" stop-color="#81a86b"/>
      <stop offset="1" stop-color="#a1bf8d"/>
    </linearGradient>
  </defs>
  <g id="Layer_1-2" data-name="Layer 1">
    <g id="Generative_Object" data-name="Generative Object">
      <g>
        <path class="cls-91" d="M6.7,1.68c0,.07-.09.08-.13.12-.18-.08-.39-.09-.61-.09h-1.1s-.32.51-.32.51c-.39.63-.22.48-.39.81-.09.19-.07.41-.05.62.27-.05.5-.06.71.06-.12.2-.21-.03-.6.09-.36.11-.68.25-.99.46-.19.13-.37.22-.59.28.07.23.09.43.05.64-.02.12,0,.23,0,.36v.32c-.02.1,0,.18.03.29.07.36.25.68.6.84.04.02.12-.04.12.05-.63-.04-.91-.78-.91-1.36-.84.25-.95.71-1.61,1.09.26.44.24.91.46,1.33.51-.42.84-.43,1.39-.2-.06.1-.17,0-.19,0-.12-.01-.24-.01-.36-.02-.48-.02-.81.37-.94.37-.02,0-.02-.08-.04-.04,0,0,0,.03-.03.02-.34-.55-.11-1.21-.69-1.59.22-.05.41-.03.56-.17l.41-.38c.3-.28.65-.46,1.05-.55-.01-.65.15-.65-.22-1.23.28.06.5.04.71-.13.28-.21.58-.38.9-.5-.09-.64.21-1.21.56-1.69.15-.2.19-.41.14-.69.15.09.23.2.38.23.36.07,1.16-.12,1.67.14Z"/>
        <g>
          <path class="cls-39" d="M5.28,14.21c.1.24.18.51.34.74-.09.09-.21.16-.27.27-.34.3-.49.76-.32,1.26.2.59.55.87.8,1.38-.01.1,0,.2,0,.3-.03.05-.08.05-.14.04l-.76-.12-.62-.17c-.26-.07-.5-.09-.77,0,.05-.31-.09-.55-.18-.82l-.35-1.01s-.06-.06-.09-.05c-.02,0-.03.03-.05.03-.05-.27-.09-.57-.02-.85.09-.36.34-.66.63-.85.34.2.74.31,1.12.26.25-.03.49-.17.69-.32.01,0-.05-.05-.06-.06s0-.03.02-.04c.01,0,.03,0,.05,0Z"/>
          <path class="cls-113" d="M5.82,18.16s.03.03.03.05c-.05.04-.06.08-.05.13-.29.07-.61.04-.92-.04l-.86-.24c-.13-.04-.26-.04-.37.01-.11,0-.21.03-.3.09-.02-.01-.04,0-.07,0-.01-.22.13-.41.07-.64-.06-.2-.16-.37-.22-.55l-.18-.49c-.05-.13-.06-.27-.09-.4.03,0,.03-.03.05-.03.03-.02.08,0,.09.05l.35,1.01c.1.28.23.51.18.82.27-.09.51-.07.77,0l.62.17.76.12c.07.01.11,0,.14-.04Z"/>
        </g>
        <g>
          <path class="cls-42" d="M17.9,4.72c.69.1,1.3.42,1.79.93.16.17.34.29.54.36-.1.25-.12.5-.16.75l-.04.25c-.06.39-.13.77-.32,1.12,0,.02.03.04.03.05,0,.03-.02.05-.05.11.29.17.47.42.64.67-.08.09-.12.2-.06.31.07.12.12.24.2.36.16.22.14.4.41.64-.11.11-.21.23-.28.37-.14.3-.31.56-.51.84-.03.05-.04.11-.1.1-.01-.07-.06-.14-.08-.21-.23-.71-.88-1.37-1.62-1.22l-.26.05s-.02-.04-.04-.03c-.05-.12-.09-.28-.16-.4,0-.09.12-.07.19-.16.48-.18.73-.73.85-1.22.08-.33.1-.67.12-1.01.02-.25.18-.41.33-.63-.73,0-.85-.43-1.49-.75.11-.26.16-.53.1-.83l-.09-.42s0-.03,0-.05c0-.02.03-.02.05-.02Z"/>
          <path class="cls-66" d="M19.73,8.2s-.02-.04-.03-.05c.19-.36.26-.73.32-1.12l.04-.25c.04-.26.06-.5.16-.75-.2-.08-.38-.19-.54-.36-.48-.52-1.1-.84-1.79-.93v-.04c.73-.13,1.45.37,1.96.89.2.2.42.3.71.29.05,0,0,.09-.01.11-.47.37-.22.84-.47,1.61-.08.24-.17.48-.35.63Z"/>
        </g>
        <path class="cls-110" d="M16.86,3.61s.06.02.08.03c.04.03.05-.03.05-.06.02.1.4.31.75.17.05-.02.11-.05.17-.03-.23.43-.15.5-.07.95,0,.02.05,0,.05,0v.04s-.04,0-.05.02c0,.02,0,.03,0,.05l.09.42c.06.3,0,.57-.1.83-.02-.01-.06-.03-.07-.06.07-.06.03-.13.04-.21.02-.15.06-.27.03-.44l-.21-1.1c-.01-.06-.01-.2-.09-.23l-.81-.32c-.4-.16-.84-.21-1.25-.08-.19.06-.28.25-.45.37.35-.69,1.23-.62,1.83-.35Z"/>
        <g>
          <path class="cls-95" d="M.84,10.65c.07.16.17.31.28.46l.24.32c.14.19.38.29.61.35.16.18.35.11.56.05-.2.52-.08.92-.65,1.48.34.04.56.17.78.38.26.24.52.51.81.68-.3.19-.54.5-.63.85-.37.03-.69-.17-.98-.35.03-.11,0-.17-.08-.24-.49-.37-.73-.87-1.21-1.06.01-.12.06-.19.1-.29-.07,0-.13,0-.18-.03.09-.22.1-.46.14-.71.07-.46.17-.89.42-1.29-.14-.19-.23-.38-.32-.58.03-.03.08-.04.12-.03Z"/>
          <path class="cls-76" d="M1.85,14.87c-.97-.58-.91-1.15-1.75-1.16.14-.17.3-.28.38-.46.05.03.11.03.18.03-.05.09-.09.16-.1.29.48.18.72.69,1.21,1.06.09.07.11.13.08.24Z"/>
        </g>
        <g>
          <path class="cls-36" d="M19.99,11.6c.01.07.03.14.08.18,0,.28.18.52.46.65-.1.15-.27-.03-.54.25-.06.07-.17.1-.17.19-.13.04-.07.2-.04.31.06.25.12.49.15.74.04.45.24.66.17.71-.02.01-.07.02-.08.05-.01.02.06.07.02.09.02,0-.18.15-.21.18-.5.51-1.47,1.1-2.21.72.26-.25.64-.33,1.01-.27,0-.05-.02-.11-.05-.15-.39-.44-.12-1.12-.2-1.69.73.1.57-.14.78-.27.35-.21.62-.7,1.04-.95-.18-.18-.35-.74-.38-.93.03-.01.05-.04.08-.05.02.07.07.14.08.21Z"/>
          <path class="cls-126" d="M19.82,12.89c.2.35.28.77.32,1.19.03.29.15.5.41.68-.3.03-.53.07-.73.22.03-.03.23-.19.21-.18.04-.02-.03-.07-.02-.09.02-.03.07-.04.08-.05.07-.06-.12-.26-.17-.71-.02-.25-.08-.49-.15-.74-.03-.11-.09-.27.04-.31Z"/>
        </g>
        <g>
          <path class="cls-115" d="M2.77,7.91c.09.04.1.07.16.14.16.2.31.38.36.65l.1.61c.05.31.16.59.31.84.1.15.2.29.35.4-.03,0-.02.08-.03.08-.37-.02-.74.1-1,.4-.21.24-.38.51-.49.8-.21.06-.39.13-.56-.05-.23-.06-.46-.15-.61-.35l-.24-.32c-.11-.15-.21-.29-.28-.46-.05-.32-.27-.59-.42-.88-.02-.06-.03-.14-.04-.18.16-.1.46-.84.79-1.24.03-.04.05-.07.04-.11.03.01.03-.01.03-.02.03-.04.03.05.04.04.13,0,.46-.39.94-.37.12,0,.24,0,.36.02.02,0,.13.1.19,0Z"/>
          <path class="cls-101" d="M.84,10.65s-.09,0-.12.03l-.22-.45c-.1-.21-.28-.33-.5-.43l.38-.22s.02.13.04.18c.15.29.37.56.42.88Z"/>
        </g>
        <path class="cls-105" d="M18.29,10.17c-.06.11.25,0,.49.1.46.18.78.56.96,1.01.02.06.07.12.08.17.04.19.21.75.38.93-.42.24-.69.74-1.04.95-.21.13-.05.37-.78.27-.04-.31-.19-.62-.31-.9-.06-.12-.14-.2-.21-.29s-.15-.17-.24-.24c.26-.28.36-.59.95-.72-.47-.32-.39-.71-.59-1.24.02,0,.03,0,.04.03l.26-.05Z"/>
        <g>
          <path class="cls-33" d="M16.48,5.73s.03.05.07.04c.64-.05,1.36.41,1.85.82.19.16.39.24.62.33-.23.66-.15,1.66-.6,2.22l-.4.49c-.07.09-.19.07-.19.16-.34-.57-.73-1.03-1.46-.86h-.1s-.04-.06-.04-.09c.17-.23.25-.51.29-.8.09-.66-.08-1,.32-1.53-.2-.03-.36,0-.52-.08s-.34-.16-.48-.28c-.01-.01.06-.06.06-.04,0,.01.02-.03.01-.04.15-.18.36-.3.58-.36Z"/>
          <path class="cls-98" d="M17.77,5.97s.04.05.07.06c.64.32.76.76,1.49.75-.15.21-.31.37-.33.63-.03.34-.04.68-.12,1.01-.12.49-.38,1.04-.85,1.22l.4-.49c.46-.56.37-1.56.6-2.22-.23-.1-.43-.17-.62-.33-.49-.41-1.21-.87-1.85-.82-.03,0-.07-.02-.07-.04.51-.14.83.07,1.29.24Z"/>
        </g>
        <g>
          <path class="cls-35" d="M20.07,11.79c-.05-.04-.07-.12-.08-.18.06,0,.07-.06.1-.1.19-.27.36-.54.51-.84.07-.14.17-.26.28-.37-.27-.24-.26-.42-.41-.64-.08-.12-.13-.24-.2-.36-.06-.11-.02-.22.06-.31.14.22.29.45.38.73.18.52.65.54.61.62s-.39.04-.62.51c-.11.23-.44.84-.63.96Z"/>
          <path class="cls-102" d="M19.9,11.39s-.05.04-.08.05c0-.05-.05-.11-.08-.17-.18-.45-.51-.83-.96-1.01-.24-.1-.55.02-.49-.1.73-.15,1.38.51,1.62,1.22Z"/>
        </g>
        <path class="cls-107" d="M6.56,1.8c-.25.23-.52.44-.73.74-.25.36-.4.8-.28,1.2,0-.01.03.2.03.2-.01.03-.08.01-.12.03-.34.1-.65.12-1.01-.04.18.67-.18.96-.34,1.65-.08.34-.09.67.03.98.06.15.13.29.25.42,0,.02,0,.03,0,.03-.59.38-.69.89-1.46,1.03-.06-.07-.06-.1-.16-.14-.55-.23-.87-.23-1.39.2-.23-.42-.21-.89-.46-1.33.67-.38.77-.84,1.61-1.09,0,.58.28,1.32.91,1.36,0-.09-.08-.03-.12-.05-.35-.16-.54-.48-.6-.84-.02-.11-.04-.19-.04-.29v-.32c.02-.13-.01-.24,0-.36.04-.21.02-.41-.05-.64.22-.06.4-.16.59-.28.31-.21.63-.35.99-.46.39-.12.48.11.6-.09-.22-.12-.45-.11-.71-.06-.02-.2-.04-.43.05-.62.17-.33,0-.18.39-.81l.32-.51h1.1c.22,0,.42,0,.61.08Z"/>
        <g>
          <path class="cls-1" d="M4.29,10.63c-.05.02-.1-.02-.14-.03-.04,0-.04-.07-.06-.02-.02.04.02.04.02.05,0,.03.04.02.07.05-.11,0-.61,0-.7.11-.08.11-.19.13-.27.2-.4.35-.61,1-.73,1.5-.06.25-.14.48-.29.72.26.1.47.23.65.42.37.41.82.68,1.29.9.11.05.22.08.39.04.02,0,.04,0,.06.02,0,.01.02.02,0,.04-.38.05-.78-.06-1.12-.26-.3-.18-.55-.44-.81-.68-.22-.21-.44-.33-.78-.38.58-.56.45-.96.65-1.48.11-.29.28-.56.49-.8.26-.29.64-.41,1-.4.02,0,0-.07.03-.08-.15-.11-.25-.25-.35-.4.2.05-.1-.27.02-.26.09.26.28.47.51.66.04.03.08.05.07.09Z"/>
          <path class="cls-23" d="M5.65,12.77s0,.02,0,.02c-.09,0-.12.11-.17.16-.32.37-.37.83-.2,1.25-.02,0-.03,0-.05,0-.02,0-.02.03-.02.04s.07.05.06.06c-.2.15-.45.29-.69.32.01-.02,0-.03,0-.04-.01-.02-.04-.02-.06-.02-.17.04-.28,0-.39-.04-.47-.21-.92-.48-1.29-.9-.17-.19-.39-.32-.65-.42.15-.24.23-.46.29-.72.12-.5.33-1.15.73-1.5.08-.07.19-.1.27-.2.09-.11.59-.1.7-.11-.04-.03-.07-.02-.07-.05.02,0,.04,0,.04-.03.05.01.09.05.14.03.05.07.19.1.29.06.02-.01,0-.11,0-.14,0-.02.03-.04.06-.05l-.08.77c-.03.25-.14.46-.29.69.27-.01.49.05.7.21l.61.47s.09.06.06.12Z"/>
        </g>
        <g>
          <path class="cls-67" d="M8.16,15.77c0,.34.1.19.15.33-.05-.01-.08.04-.08.03-.03-.04.04-.1-.02-.11-.15.14.45.68.56.76-.02.02-.02.03-.03.04,0,.03.11.02.11.04.02.17-.05.36-.14.49-.12-.04-.01.16-.17.13-.18.13-.33.33-.57.39s-.47.08-.69.08c-.36-.01-1.02-.06-1.32.11,0-.09-.03-.15-.05-.21-.05-.21-.17-.39-.29-.59-.21-.33-.64-1-.54-1.39.03-.1,0-.22.05-.32.04-.08.3-.41.21-.35.07-.11.18-.18.27-.27l.25.33c.21.27.3.56.25.93.59-.54,1.02-.19,2.04-.43Z"/>
          <path class="cls-12" d="M8.71,17.36c-.05.07-.07.16-.14.23-.21.23-.51.4-.82.45-.44.08-.88.03-1.34.02-.16,0-.22.1-.23.18-.09-.1-.08.02-.38.09-.01-.04,0-.09.05-.13,0-.02-.03-.04-.03-.05,0-.1,0-.2,0-.3.02.02.06,0,.09,0,.02.06.05.12.05.21.3-.17.96-.12,1.32-.11.22,0,.46-.02.69-.08s.39-.26.57-.39c.15.02.05-.17.17-.13Z"/>
          <path class="cls-103" d="M5.92,17.85s-.06.02-.09,0c-.25-.51-.59-.79-.8-1.38-.18-.5-.02-.96.32-1.26.08-.06-.17.27-.21.35-.06.1-.03.21-.05.32-.1.39.33,1.06.54,1.39.12.19.24.38.29.59Z"/>
        </g>
        <g>
          <path class="cls-96" d="M17.56,15.73c.23.31.4.61.35,1.02-.02.16-.07.33-.15.45-.02-.07.05-.13.05-.21-.05-.02-.09,0-.14,0-.24.55-.34.61-.55,1.21,0,.02-.05.02-.06.01-.28-.12-.75,0-.9-.04-.07-.01-.86-.09-.82.1l-.08-.04c0-.12.1-.21.17-.31.4-.52.72-1.02.56-1.73.25,0,.44-.07.64-.12.28-.07.54-.19.81-.34.04-.02.08-.04.12-.01Z"/>
          <path class="cls-68" d="M17.75,17.21s.01.05,0,.08l-.4.77c-.09.17,0,.35,0,.53-.06-.01-.11-.04-.13-.07-.03-.24-.2-.17-.16-.3,0,0,.05,0,.06-.01.21-.61.31-.66.55-1.21.05,0,.09-.02.14,0,0,.09-.07.15-.05.21Z"/>
          <path class="cls-89" d="M17.06,18.22c-.04.13.13.06.16.3-.13-.13-.29-.15-.46-.16-.53,0-.99.1-1.51-.07-.02-.02-.03-.06,0-.05l.08.04c-.04-.19.74-.11.82-.1.15.03.62-.08.9.04Z"/>
        </g>
        <g>
          <path class="cls-64" d="M13.12,1.41c-.06-.03-.07.05-.12.06l-.13-.17c-.19.11-.38.15-.58.19-.52.11-1.42.23-1.63.85.61.33.92.57,1.13,1.22-.01.02-.05.03-.07.05-.06-.07-.06-.17-.1-.25-.24-.49-.85-.82-1.32-1.03-.6-.27-.54-.51-.69-.27-.21.33-.79.4-1.42,1.11-.33.38-.08.55-.27.6-.01,0-.02.02-.01.04,0,.02.03.01.06.02-.05.15.12.5.04.48-.17-.33-.2-.69-.01-1.04.17-.32.42-.57.72-.76l.61-.4s.06-.05.07-.08c0-.03-.03-.04-.02-.07.03,0,.06.02.09,0,.02-.01,0-.06.04-.07.1-.04.08-.18.19-.27.21.4.46.48.85.65.4-.8,1.39-.84,1.43-.89,0,0,0-.03,0-.04.05.08.16.02.22,0,.51.08.76-.42.81-.37s-.02.2.1.43Z"/>
          <path class="cls-97" d="M11.74,3.6c-.24.22-1.47.18-1.89.9-.05.08-.09.18-.06.25.02.02,0,.04,0,.07,0,.03-.06,0-.06.04-.17-.05-.35-.08-.55-.09,0-.06-.03-.08-.04,0l-1.01-.04s.04-.1,0-.16c-.05-.08-.07-.18-.11-.25.08.02-.09-.33-.04-.48-.03-.01-.06,0-.06-.02,0-.03,0-.04.01-.04.19-.05-.06-.22.27-.6.63-.72,1.2-.78,1.42-1.11.16-.24.09,0,.69.27.48.21,1.09.54,1.32,1.03.04.08.04.18.1.25Z"/>
        </g>
        <path class="cls-121" d="M13,1.47c.43.59,1.3,1.16,1.21,1.81-.01.08,0,.15-.03.21-.02.03,0,.09.03.12-.04.07-.04.19-.09.27-.53-.08-.95.05-1.27.48-.36-.28-.74-.57-.81-1.01-.1.05-.16.18-.24.2-.21-.65-.53-.89-1.13-1.22.21-.62,1.11-.75,1.63-.85.2-.04.39-.08.58-.19l.13.17Z"/>
        <g>
          <path class="cls-92" d="M8.52,1.5c.09.05.2.1.31.12.13.02.25.08.38.15l-.11.07c-.12-.01-.4-.23-.5-.04-.4-.12-.81-.27-1.22-.46-.27.29-.57.53-.92.72-.09.05-.13.14-.2.21-.32.3-.66.83-.64,1.25-.04.05-.03.14-.03.21-.01,0-.02,0-.03,0-.12-.4.03-.83.28-1.2.21-.3.48-.5.73-.74.04-.04.13-.05.13-.12.44-.27.41-.37.54-.85.39.65.92.48,1.28.67Z"/>
          <path class="cls-104" d="M9.11,1.84c.06.09.17.12.27.13-.01.03.03.05.02.07,0,.03-.04.06-.07.08l-.61.4c-.3.19-.54.45-.72.76-.19.35-.16.71.01,1.04.04.08.06.17.11.25.04.06.05.11,0,.16-.16,0-.32-.06-.46-.16-.03-.03-.05-.08-.1-.09-.36-.69-1.27-.66-1.95-.54-.06-.37.1-.02,0-.41-.03-.42.32-.96.64-1.25.07-.07.12-.16.2-.21.35-.19.65-.43.92-.72.42.18.82.34,1.22.46.1-.18.38.03.5.04Z"/>
        </g>
        <g>
          <path class="cls-52" d="M12.2,1.35c-.06.02-.16.08-.22,0-.34-.36-.98-.49-1.39-.8-.04-.03-.12-.13-.17-.09-.49.41-.95.48-1.44.93-.08.07-.15.14-.15.24-.12-.02-.22-.08-.31-.12.05-.02.08.04.14.02.32-.48.77-.72,1.28-.95.25-.11.4-.29.51-.57.1.28.24.46.49.56.46.19.99.38,1.27.79Z"/>
          <path class="cls-63" d="M11.99,1.35s0,.04,0,.04c-.04.05-1.03.09-1.43.89-.4-.16-.65-.24-.85-.65-.11.08-.09.22-.19.27-.04.02-.01.06-.04.07-.03.02-.06,0-.09,0-.1,0-.22-.04-.27-.13l.11-.07c-.13-.07-.25-.13-.38-.15,0-.1.07-.17.15-.24.49-.44.95-.51,1.44-.93.05-.04.14.06.17.09.41.31,1.05.44,1.39.8Z"/>
        </g>
        <path class="cls-131" d="M14.12,3.88c.28.04.54.12.83.2,0-.11.08-.1.07,0,.21.08.41,0,.66-.03-.34.63.13.99.19,1.94,0,.02,0,.06,0,.07,0,0,.02,0,.03.02,0,0,0,.05-.01.04,0-.02-.07.03-.06.04.14.12.32.2.48.28s.32.05.52.08c-.4.53-.23.87-.32,1.53-.04.29-.13.57-.29.8s-.39.4-.65.45c.01-.02-.01-.04,0-.05.17-.12.48-.37.6-.57.16-.27.24-.56.25-.87l.03-.7c0-.16.08-.3.11-.47-.23-.02-.42-.11-.61-.23-.28-.17-.56-.31-.87-.43-.23-.08-.44-.1-.68-.1-.1,0-.21-.02-.31.04l-.05.03s-.05,0-.04-.03c.52-.36,1.26-.06,1.8.23.02-.06-.06-.03-.07-.08,0-.02,0-.05,0-.08,0-.3-.08-.58-.16-.87l-.11-.38c-.05-.16,0-.33-.03-.52-.51.09-.81-.19-1.49-.23-.5-.03-.72.04-1.09.38.38.4.74.79.67,1.4,0,.06-.05.12-.08.18-.04.06.02-.45-.05-.4.05-.31-.25-.63-.38-.79-.15-.18-.29-.36-.5-.52-.16-.12-.45-.44-.58-.65-.14.16-.28.23-.46.26-.34.06-.66.15-.97.25s-.57.31-.73.62c-.03-.08.02-.17.06-.25.42-.72,1.64-.67,1.89-.9.02-.02.05-.03.07-.05.09-.02.14-.15.24-.2.07.43.45.73.81,1.01.33-.43.75-.56,1.27-.48Z"/>
        <g>
          <path class="cls-133" d="M13.12,1.41c.05.08.1.17.19.24l.57.51c.51-.36,1.12-.3,1.69-.23.22.03.41-.02.58-.15.05-.04.1-.08.17-.08-.28.71.51,1.01.67,1.88,0,.03,0,.08-.05.06-.02-.01-.05-.02-.08-.03-.1-.31-.29-.58-.45-.88l-.26-.48c-.03-.06-.02-.17-.08-.21-.1-.03-.23.04-.34.03l-.45-.04c-.45-.04-.94-.04-1.35.2.32.4.54.94.29,1.38-.03-.03-.05-.09-.03-.12.03-.06.02-.14.03-.21.1-.65-.78-1.22-1.21-1.81.05,0,.05-.09.12-.06Z"/>
          <path class="cls-16" d="M16.86,3.61c-.6-.27-1.47-.34-1.83.35.17-.12.26-.3.45-.37.42-.13.85-.08,1.25.08l.81.32c.08.03.08.18.09.23l.21,1.1c.03.16,0,.29-.03.44-.01.08.03.16-.04.21-.46-.17-.78-.38-1.29-.24-.22.06-.43.17-.58.36,0-.02-.02,0-.03-.02,0-.01,0-.04,0-.07-.05-.94-.53-1.31-.19-1.94-.26.04-.46.11-.66.03.02-.1-.06-.11-.07,0-.29-.08-.55-.16-.83-.2.05-.08.05-.19.09-.27.25-.44.03-.98-.29-1.38.4-.24.9-.24,1.35-.2l.45.04c.11.01.24-.06.34-.03.06.04.05.15.08.21l.26.48c.16.3.36.57.45.88Z"/>
        </g>
        <g>
          <path class="cls-94" d="M18.38,13.59c.08.57-.19,1.25.2,1.69.03.04.06.1.05.15-.37-.06-.75.01-1.01.27-.01-.02-.03,0-.04.01,0,0,0,.02-.01.02-.04-.02-.07-.01-.12.01-.26.15-.53.27-.81.34,0-.1.17-.06.15-.16.22-.09.45-.18.68-.31.29-.17.57-.32.93-.33-.37-.43-.09-.86-.18-1.6-.04-.37-.11-.73-.31-1.04-.05-.08-.12-.17-.05-.24.07.09.15.16.21.29.13.28.27.6.31.9Z"/>
          <path class="cls-4" d="M17.86,12.4c-.08.07,0,.16.05.24.21.31.27.67.31,1.04.09.74-.19,1.17.18,1.6-.36,0-.63.16-.93.33-.23.13-.46.22-.68.31-.27.06-.55.14-.85.11-.04-.02-.15-.29-.18-.17-.02,0-.03,0-.04-.02-.01-.03.01-.05.02-.08.02-.07-.08-.03-.1-.06-.11-.18-.23-.21-.12-.24.02,0,.02-.04.01-.06l.66-.5c.19-.15.41-.22.66-.21-.15-.31-.25-.29-.28-.7-.03-.34-.07-.67-.19-.97.21-.07.4-.18.58-.31.23-.17.45-.34.65-.55.09.08.16.15.24.24Z"/>
        </g>
        <g>
          <path class="cls-13" d="M7.57,4.47c-.27-.05-.24-.72-2.25-.32-.24.05-.44.06-.68,0,.07.61-.27.84-.44,1.64-.02.08-.13.07-.03.63,0,.04.05.12-.01.14-.12-.3-.11-.64-.03-.98.16-.69.52-.98.34-1.65.36.15.67.13,1.01.04.04-.01.1,0,.12-.03,0,0-.03-.21-.03-.2,0,0,.02,0,.03,0,0-.07-.01-.16.03-.21.11.39-.06.04,0,.41.68-.12,1.58-.15,1.95.54Z"/>
          <path class="cls-3" d="M7.57,4.47s.07.07.1.09c-.02,0-.05,0-.05.04-.11.56-.58.75-.96,1.28-.15.21-.39.44-.36.82,0,.05-.03.1,0,.15-.25-.22-.61-.34-.95-.27s-.66.23-.96.42c0,0,0-.02,0-.03-.13-.13-.19-.28-.25-.42.06-.01.02-.09.01-.14-.1-.56.02-.55.03-.63.17-.8.51-1.02.44-1.64.24.06.44.04.68,0,2.01-.4,1.98.27,2.25.32Z"/>
        </g>
        <g>
          <path class="cls-10" d="M3.72,9.88c-.12-.01.19.31-.02.26-.16-.25-.26-.53-.31-.84l-.1-.61c-.05-.28-.2-.45-.36-.65.77-.14.87-.65,1.46-1.03.29-.19.61-.35.96-.42.06.07-.2.08-.16.16-.42.16-.79.41-1.13.72-.38.35-.31.4-.88.69.16.14.2.3.24.46.1.42.16.85.3,1.26Z"/>
          <path class="cls-46" d="M6.3,6.86c0,.06.07.11.1.15.09.16.27.2.42.3l-.84.91.28,1c-.29.09-.29-.09-.73.06-.56.18-.75.71-.88,1.23-.04.01-.06.03-.06.05,0,.03.03.12,0,.14-.09.04-.24.01-.29-.06,0-.03-.03-.06-.07-.09-.23-.18-.42-.4-.51-.66-.14-.41-.2-.84-.3-1.26-.04-.17-.09-.32-.24-.46.57-.29.5-.34.88-.69.33-.31.71-.56,1.13-.72-.04-.09.22-.1.16-.16.34-.07.69.06.95.27Z"/>
          <path class="cls-37" d="M4.15,10.6s-.02.03-.04.03c0-.01-.04,0-.02-.05.02-.04.02.01.06.02Z"/>
        </g>
        <path class="cls-15" d="M10.86,17.29s.05.04.09.03c.2.24.52.37.83.45.06.04-.15-.01-.06.04l.04.02c.19.11-.09.69-.36.94l-.26.24c-.08.07-.24.08-.33.11-.25.08-.88.41-.99.63-.25-.17-.51-.32-.8-.44-.26-.11-.48-.27-.72-.4-.08-.05-.17-.03-.22-.16-.03-.09-.33-.05-.31-.7.31-.05.6-.22.82-.45.07-.08.09-.17.14-.23.09-.13.16-.32.14-.49,0-.02-.11,0-.11-.04,0-.01.01-.02.03-.04.5.36,1.25.53,1.32,1.1.09-.1.16-.21.24-.31.15-.18.35-.21.53-.29Z"/>
        <g>
          <path class="cls-69" d="M9.32,19.58c-.24.14-.48.27-.76.35-.2.06-.38.12-.55.21s-.25.22-.38.41c-.02-.35-.16-.55-.4-.69-.15-.09-.3-.26-.45-.37-.23-.16-.35-.37-.46-.58.02-.01.03-.02.05-.03.03,0,.07.02.09.04.24.28.53.5.83.73.17.14.33.27.44.47.16-.17.32-.26.53-.31.09-.02.18-.08.28-.09s.16-.07.25-.11c.11-.05.23-.03.34-.12.05-.04.18.04.21.09Z"/>
          <path class="cls-6" d="M7.76,18.05c-.02.65.28.61.31.7.04.13.13.11.22.16.24.13.46.29.72.4.29.12.55.28.8.44.05.03.02.09.06.12l-.12.24c-.06-.23-.2-.45-.42-.53-.03-.05-.15-.13-.21-.09-.11.09-.23.07-.34.12-.09.05-.15.1-.25.11s-.19.06-.28.09c-.2.05-.37.14-.53.31-.11-.2-.27-.33-.44-.47-.29-.23-.58-.45-.83-.73-.02-.02-.06-.05-.09-.04-.02,0-.03.01-.05.03-.11-.2-.18-.42-.14-.67.01-.09.07-.19.23-.18.46,0,.91.06,1.34-.02Z"/>
        </g>
        <g>
          <path class="cls-79" d="M16.79,15.92c.02.1-.15.06-.15.16-.2.05-.39.12-.64.12.16.71-.17,1.21-.56,1.73-.08.1-.17.2-.17.31-.03,0-.02.03,0,.05-.1-.03-.03.39-.08.48-.11-.06-.16-.18-.27-.2,0-.03-.03-.04-.04-.06-.26-.16-.94-.04-1.51-.32-.04-.02-.08-.05-.06-.08.02-.04.05-.03.08-.04.32.09.65.15.98.18.25.02.48.09.7.22.08,0,.06-.13.08-.18.17-.55.89-1.27.81-1.8l-.05-.33c-.02-.11-.09-.2-.12-.31.03-.12.14.16.18.17.3.03.58-.05.85-.11Z"/>
          <path class="cls-111" d="M15.76,15.86c.03.11.1.2.12.31l.05.33c.09.54-.63,1.26-.81,1.8-.02.05,0,.18-.08.18-.22-.13-.45-.2-.7-.22-.34-.03-.67-.09-.98-.18,0-.01,0-.03,0-.04-.01-.02-.02-.02-.04.01-.06-.05-.13-.1-.22-.1-.01-.03,0-.07-.04-.06.15-.37.63-.6.92-1.19.16-.33.19-.7.02-1.01-.02-.04,0-.1-.04-.15.03-.01.06,0,.05-.03.06.06.16.08.24.12.38.16.8.01,1.17-.18.04-.02.09-.04.12-.06,0,.02,0,.05-.01.06-.12.03,0,.07.12.24.02.02.12-.01.1.06-.01.03-.03.06-.02.08,0,.02.02.03.04.02Z"/>
        </g>
        <g>
          <path class="cls-26" d="M14.9,18.58c-.3.54-.72.77-1.23,1.05-.16.09-.39.12-.48.3-.01.03-.04.06-.04.09-.05.05-.08.14-.11.21-.02.02-.02.01-.03.01-.01,0-.04-.02-.02-.03-.1-.24-.28-.4-.53-.47-.28-.08-.55-.2-.81-.3-.01-.01-.03-.05-.04-.06-.02-.04-.06-.06-.06-.1,0-.04.08-.1.13-.08l1.14.51c.08.03.11.12.2.14.35-.43,1.05-.58,1.42-.92l.42-.4s.05.03.04.06Z"/>
          <path class="cls-81" d="M13.06,17.91s.03.03.04.06c.09,0,.16.04.22.1.02-.03.03-.04.04-.01,0,.02.01.03,0,.04-.03,0-.06,0-.08.04-.02.03.02.06.06.08.57.27,1.25.16,1.51.32l-.42.4c-.37.35-1.07.49-1.42.92-.09-.02-.12-.11-.2-.14l-1.14-.51s-.12.04-.13.08c0,.03.03.06.06.1-.19-.06-.32-.24-.48-.37l.26-.24c.26-.24.54-.83.36-.94l-.04-.02c-.08-.05.13,0,.06-.04l.55.14c.27.07.44.22.6.44.01-.19.08-.31.14-.44Z"/>
        </g>
        <path class="cls-17" d="M15.57,9.3s0,.03-.03.03c-.03-.04,0-.08-.05-.08-.18-.31-.46-.5-.81-.52-.18.03.09-.37-.08-.35.03-.28.04-.56.11-.86-.38-.33-.77-.72-1.19-.98.02-.02,0-.05-.03-.03-.13-.11.33-.43.39-.51.03-.02.09-.05.13-.06-.01.03.02.04.04.03l.05-.03c.1-.06.2-.04.31-.04.24,0,.45.02.68.1.3.11.59.26.87.43.19.11.37.2.61.23-.03.17-.1.3-.11.47l-.03.7c-.01.31-.08.6-.25.87-.12.2-.43.45-.6.57,0,0,.02.04,0,.05Z"/>
        <g>
          <path class="cls-47" d="M13.02,4.78c.13.16.43.48.38.79-.02.12.02.22-.04.25-.03.01-.06,0-.09-.02-.24-.13-.59.05-.82,0-.11-.02-.19-.06-.31-.05-.11.01-.23,0-.33-.06l-.41-.21c-.17-.09-.36-.08-.53,0-.1.05-.29-.04-.45-.02,0-.03-.03-.07-.05-.08.04-.04-.02-.07-.04-.1-.08-.24-.37-.37-.62-.43,0-.04.07-.01.06-.04,0-.03.02-.06,0-.07.16-.3.41-.51.73-.62.26.02-.12.04.3.22l1.02-.29c.32.25.56.57.84.89.08.09.23-.13.34-.17Z"/>
          <path class="cls-34" d="M13.02,4.78c-.11.04-.27.26-.34.17-.28-.32-.52-.64-.84-.89l-1.02.29c-.43-.18-.04-.2-.3-.22.31-.1.63-.19.97-.25.18-.03.33-.11.46-.26.13.21.41.53.58.65.21.15.35.34.5.52Z"/>
        </g>
        <g>
          <path class="cls-18" d="M14.01,5.94s-.1.04-.13.06l-.17-.16c-.08.02-.13-.02-.18-.05.07-.62-.29-1-.67-1.4.37-.34.59-.41,1.09-.38.68.04.98.32,1.49.23.03.19-.02.36.03.52l.11.38c.08.29.16.57.16.87,0,.03,0,.06,0,.08.01.04.09.01.07.08-.54-.29-1.28-.59-1.8-.23Z"/>
          <path class="cls-129" d="M13.88,6c-.05.08-.52.4-.39.51l-.27-.13c.04-.11.23-.27.23-.41.03-.05.07-.11.08-.18.05.03.09.07.18.05l.17.16Z"/>
        </g>
        <g>
          <path class="cls-54" d="M17.83,9.8c.07.11.11.27.16.4.19.53.12.92.59,1.24-.59.13-.69.44-.95.72-.19.21-.42.39-.65.55-.05,0-.02-.04.04-.05.22-.19.33-.36.46-.54.15-.21.29-.43.53-.56.09-.05.19-.07.25-.19-.16-.19-.22-.44-.29-.69-.12-.5-.3-.99-.65-1.37-.1-.11-.25-.18-.36-.28-.06-.05-.5-.08-.59-.09.74-.17,1.12.3,1.46.86Z"/>
          <path class="cls-118" d="M16.36,8.94c.09,0,.53.04.59.09.12.1.26.17.36.28.35.39.53.87.65,1.37.06.25.13.5.29.69-.06.12-.16.14-.25.19-.24.13-.39.35-.53.56,0,0-.03,0-.03,0-.11.19-.31.27-.44.4-.18.18-.4.28-.63.4-.09-.19-.19-.33-.31-.47.03.01.04,0,.05-.01.02-.03.04-.07.04-.11,0-.09.12-.14.14-.21s.03-.14.06-.2c.05-.09,0-.22.02-.32.02-.07.03-.1,0-.15-.1-.17-.3-.29-.35-.48-.01-.04-.04-.05-.06-.07-.04-.05,0-.08.02-.13,0-.05-.04,0-.05,0-.03-.04-.23-1.35-.38-1.43.02,0,.02-.02.03-.03.26-.06.49-.24.65-.45,0,.03.02.07.04.07h.1Z"/>
          <path class="cls-43" d="M16.37,11.45c.03.06.03.08,0,.15-.03.11.02.23-.02.32-.03.06-.04.13-.06.2s-.13.12-.14.21c0,.04-.01.08-.04.11-.01.01-.03.02-.05.01-.08-.1-.2-.14-.31-.2-.51-.29-.46-.08-.49-.08-.01,0-.03.03-.03,0l.36-.38c.2-.2.53-.4.77-.33Z"/>
        </g>
        <g>
          <path class="cls-32" d="M5.65,12.79l-.21.28c-.15.2-.2.47-.16.71l.03.19c.03.19.36.82.52,1,.18.22.47.67.45.96.12-.12.26-.23.45-.23h.95c.34-.02.92-.21,1.18-.47.09-.09.14-.19.24-.28.05-.04.16-.32.17-.27-.05.32-.22.61-.51.8-.19.12-.39.23-.6.28-1.02.24-1.45-.11-2.04.43.05-.37-.04-.66-.25-.93l-.25-.33c-.15-.23-.24-.49-.34-.74-.17-.42-.13-.89.2-1.25.05-.05.08-.16.17-.16Z"/>
          <path class="cls-31" d="M7.12,13.11c.14,0,.25-.06.37-.13.07.27.23.44.54.41,0,.02,0,.06,0,.09-.1.58.74.9,1.16,1.09-.03.02.13.06.09.11,0,0,0,.02-.02.02-.01-.05-.13.24-.17.27-.1.08-.15.18-.24.28-.26.26-.85.45-1.18.45h-.95c-.18.02-.32.12-.45.24.02-.29-.27-.75-.45-.96-.15-.18-.49-.81-.52-1l-.03-.19c-.04-.25,0-.52.16-.71l.21-.28s0-.02,0-.02c.03.01.04-.03.06-.04.37.23.78.38,1.22.41.08,0,.13-.03.19-.03Z"/>
          <path class="cls-22" d="M8.53,12.49c0,.05-.08,0-.14.03-.12.19-.2.41-.28.62-.03.08-.06.16-.08.25-.32.03-.48-.13-.54-.41.1-.06.19-.13.27-.21.1-.1.21-.22.29-.37-.02-.02-.07,0-.07-.02v-.05c.19.04.37.09.55.15Z"/>
        </g>
        <g>
          <path class="cls-117" d="M10.67,14.73c-.07.12.03.17.09.25.15.21.38.32.62.39.36.12.75.15,1.13.16.12.11-.09.37-.17.51-.01.03-.06.06-.04.1-.06.02-.26.43-.37.4-.05-.01-.04-.08-.12-.11-.1.12-.24.09-.34.14-.52.24-.53.29-1.11.45-.12.03-.2-.01-.32-.04-.28-.05-.37-.21-.7-.42-.05-.03-.09-.15-.19-.11-.15.06-.18.22-.28.2-.2-.15-.44-.29-.55-.55-.05-.14-.15.01-.15-.33.21-.05.42-.16.6-.28.29-.19.46-.48.51-.8.02,0,.02-.01.02-.02.04-.05-.12-.09-.09-.11.23.1.82.15.93.6.18-.17.33-.34.54-.44Z"/>
          <path class="cls-60" d="M10.86,17.29c-.17.08-.38.1-.53.29-.08.1-.15.2-.24.31-.07-.57-.83-.74-1.32-1.1-.11-.08-.71-.62-.56-.76.07,0,0,.07.02.11,0,0,.03-.04.08-.03.11.26.34.39.55.55.56.43,1.07.51,1.28.98l.19-.25c.14-.19,1.39-.52,1.59-.86.11.03.31-.38.37-.4.09-.03.08-.14.15-.16,0,.28-.23.49-.43.68-.33.31-.75.45-1.16.63Z"/>
          <path class="cls-72" d="M11.92,16.53c-.2.33-1.45.67-1.59.86l-.19.25c-.21-.47-.72-.56-1.28-.98.1.02.12-.14.28-.2.09-.04.13.08.19.11.32.21.42.36.7.42.12.02.2.07.32.04.58-.16.59-.21,1.11-.45.1-.05.24-.02.34-.14.08.03.07.1.12.11Z"/>
        </g>
        <g>
          <path class="cls-122" d="M8.13,4.73l1.01.04c0-.07.04-.05.04,0,.19.01.37.04.55.09.24.06.54.2.62.43l-.35-.2c-.3-.17-.65-.14-.97-.16s-.62-.04-.94-.04c-.11,0-.22-.07-.33-.05-.08.17-.2.3-.32.43l-.66.65s-.06.03-.08.02c-.01-.01-.05-.03-.03-.05.38-.54.85-.73.96-1.28,0-.03.04-.04.05-.04.13.1.29.16.46.16Z"/>
          <path class="cls-128" d="M10.34,5.3s.07.06.04.1c-.04,0-.05-.05-.1-.06-.17.06-.26.23-.39.33-.08.06-.21.05-.28.12-.03-.07-.08-.14-.13-.18-.22.07-.41.16-.59.28-.11.07-.24.05-.33.1l-.3.18c-.17.1-.77.36-.96.46-.09-.04-.15.01-.18.06-.15.03-.24.15-.38.2-.08.03-.18,0-.27.01-.07.01-.06.07-.06.12-.03-.05-.09-.09-.1-.15-.03-.05,0-.1,0-.15.08-.08.03-.22.12-.3.13-.12.18-.27.3-.39.14.1.34.08.47-.06l.63-.69c.06,0,.11-.07.16-.07h.88c.14,0,.18-.14.17-.25.32.03.67-.01.97.16l.35.2Z"/>
          <path class="cls-62" d="M9.02,4.93c.02.11-.03.24-.17.24h-.88c-.06,0-.1.09-.16.08l-.63.69c-.13.14-.32.16-.47.06-.12.12-.17.28-.3.39-.09.08-.04.22-.12.3-.03-.38.21-.61.36-.82-.02.02.02.04.03.05.01,0,.05,0,.08-.02l.66-.65c.13-.12.24-.25.32-.43.12-.01.22.05.33.05.32,0,.64.01.94.04Z"/>
          <path class="cls-100" d="M9.6,5.79c-.09.1-.22.13-.37.12-.33.18-.19.32-.38.32-.05,0-.39.09-.4.1-.05.04-.04.09-.06.15-.04.13-.21.14-.28.21l-.13.13c-.18-.02-.34.03-.49.08-.2.06-.42.13-.55.31-.04.01-.1.05-.13.09-.14-.1-.33-.14-.42-.3,0-.04-.01-.11.06-.12.1-.02.19.02.27-.01.14-.05.24-.17.38-.2.03-.04.08-.1.18-.06.19-.11.79-.36.96-.46l.3-.18c.09-.05.22-.03.33-.1.18-.12.37-.2.59-.28.06.03.11.11.13.18Z"/>
          <path class="cls-21" d="M10.37,5.39s.05.05.05.08c-.03.24-.11.46-.19.69.1.06.22.01.32-.03.03,0,.1.01.09.05-.14,0-.29.07-.43.1-.27.07-.54.18-.74.42.16.09.88.38.98.4.11.02.23.02.34.04l.2.04c.16.03.32.07.48.14.06.03.18-.01.2.07,0,.03-.03.07-.02.09-.23-.09-.46-.15-.71-.22-.03,0-.08.01-.1,0-.02,0-.04.03-.03.05-.04,0-.47-.03-.39.07-.01,0-.03,0-.03-.02,0-.02,0-.03,0-.05.03-.05.06-.06-.02-.06l-.31-.22c-1.06-.2-1.94.44-2.03,1.5-.04.01-.06.06-.11.06-.02-.03-.06-.1-.11-.1-.24.35-.1,1.18.04,1.48-.08,0-.56.43-.55.43-.04,0-.08,0-.11,0,.02-.01,0-.03,0-.04,0-.03.04-.08.05-.12-.08-.14.01-.23.08-.34.03-.04.04-.13.06-.19.05-.11,0-.22,0-.32-.01-.17.07-.34.09-.52s.1-.43.16-.6l.09-.26c.04-.11.06-.19.08-.32.01-.07.12-.12.07-.23-.03-.06-.06-.14-.15-.13.03-.08.13-.12.15-.22.01-.05,0-.12.04-.14.03-.01.08-.01.1-.03l.07-.06s-.09-.03-.12-.07l.13-.13c.07-.07.24-.09.28-.21.02-.06.01-.11.06-.15.01,0,.35-.1.4-.1.19,0,.05-.14.38-.32.14.01.27-.02.37-.12.07-.07.2-.06.28-.12.14-.11.22-.27.39-.33.05.01.06.07.1.06Z"/>
        </g>
        <g>
          <path class="cls-61" d="M12.2,13.16c.05.22-.14.55-.33.7.02-.19-.4,0-.43.02-1.39.77-1.03.79-2.64.03-.11-.02-.26.06-.33.12-.15-.1-.25-.21-.36-.34-.06-.06-.01-.18-.08-.22-.01-.02,0-.06,0-.09.01-.09.05-.17.08-.25.07,0-.04.17,0,.31h.55c.21-.19.24.12.61,0,.07-.02.16-.05.23-.06l.34-.06c.11-.02.24.04.3-.08.02-.04.04-.08.08-.11.04-.02.49.07.56.08.26.04.52-.03.75.02.13.03.22,0,.35-.02.11-.01.23.03.31-.07Z"/>
          <path class="cls-130" d="M12.29,13.47c-.24.63-1.04.98-1.62,1.26-.21.1-.36.27-.54.44-.11-.45-.7-.5-.93-.6-.42-.19-1.26-.52-1.16-1.09.07.04.02.16.08.22.11.12.21.23.36.34.06-.05.21-.14.33-.12,1.61.76,1.24.74,2.64-.03.04-.02.45-.2.43-.02.2-.15.38-.48.33-.7-.01-.06-.05-.13,0-.18.07.14.16.32.09.49Z"/>
          <path class="cls-8" d="M13.19,10.41c.22-.3-.22.41-.09.22-.06.03-.11.1-.13.18-.04.15-.21.22-.32.31s-.2.19-.31.27c.47-.33-.76.66-.38.31l-.12.11s-.05-.01-.06,0c-.02.02-.03.04-.04.05l-.55.24c.09-.04-.68.44-.71.44.07.1.17.11.27.13.38.09.76,0,1.13-.09,0,.06.09.01.11.03.12.09.17.26.22.36-.05.05,0,.12,0,.18-.07.09-.2.05-.31.07-.13.02-.22.04-.35.02-.24-.05-.5.01-.75-.02-.08-.01-.53-.1-.56-.08-.04.02-.06.07-.08.11-.07.12-.19.06-.3.08l-.34.06c-.07.01-.16.04-.23.06-.36.11-.39-.2-.61-.02h-.55c-.05-.12.07-.3,0-.3.08-.21.16-.42.28-.62.06-.02.13.02.14-.03.33.1.66.19,1.01.2.19,0,.37.03.55-.04.11-.05.29-.05.33-.19.04-.12.22-.26.25-.4.09-.05.22-.06.31-.1-.03.15.43-.21.5-.25.18-.09.37-.17.46-.37.06-.02.14.01.19-.02.12-.12.36-.25.25-.41l.46-.34c.09-.06.23-.09.34-.15Z"/>
        </g>
        <path class="cls-14" d="M12.85,10.56l-.46.34s-.05.02-.06,0c-.03-.02-.07.01-.11-.04.09-.11.12-.21.17-.31.25-.48.39-1.02.45-1.53-.15-.1-.01-.23-.08-.33-.04.07-.05.15-.12.13.05-.32.07-.64.04-.96.06.02.12,0,.19.07.43.45.63,1.3.44,1.9-.09.29-.29.51-.47.73Z"/>
        <g>
          <path class="cls-74" d="M13.4,5.57c.07-.05,0,.46.05.4,0,.14-.19.3-.23.41-.11-.05-.54-.11-.58.01-.02.06.1.1.24.14-.15.23.04.55.24.74l.34.32c.11.11.16.16.23.28-.04.07-.04.15.03.21.07.07.06.17.09.22.06.08.05.12.05.21,0,.22.05.44,0,.66,0,.03-.07.07-.07.1,0,.19,0,.36-.06.53,0,.02-.05.03-.06.04.06-.05-.07.2-.02.23-.03.05-.13.08-.18.1-.02-.02-.04-.05-.06-.04-.02,0-.04.05-.06.07l-.14.19c-.1.06-.25.09-.34.15.18-.22.37-.44.47-.73.19-.6,0-1.45-.44-1.9-.07-.07-.13-.04-.19-.07-.01-.16-.09-.31-.16-.46-.1-.24-.24-.44-.39-.63-.2-.25-.45-.53-.8-.63-.23-.07-.48.04-.7.05,0-.03-.07-.04-.09-.05-.1.05-.22.1-.32.03.08-.23.16-.46.19-.69.16-.02.35.07.45.02.17-.08.35-.1.53,0l.41.21c.1.05.22.07.33.06.12-.02.2.03.31.05.22.05.58-.13.82,0,.03.01.06.03.09.02.06-.03.02-.13.04-.25Z"/>
          <path class="cls-114" d="M13.52,6.55c.42.25.81.65,1.19.98-.07.3-.08.58-.11.86l-.04.34c-.05.38-.14.74-.38,1.03-.08-.06-.12-.03-.18-.04.11-.32.16-.61.2-.91l.12-.97c.02-.17-.04-.29-.18-.39-.28-.21-.53-.45-.8-.63,0-.06.03-.11.09-.15-.02-.08.04-.12.1-.12Z"/>
          <path class="cls-125" d="M13.22,6.38l.27.13s.05.01.03.03c-.06,0-.12.05-.1.12-.05.04-.08.09-.09.15l-.25-.17c-.08-.05-.14-.09-.22-.11-.13-.04-.26-.07-.24-.14.05-.13.47-.06.58-.01Z"/>
          <path class="cls-55" d="M13.34,6.82c.27.19.52.43.8.63.13.1.2.21.18.39l-.12.97c-.16.07-.07-.34-.07-.44-.01-.15-.02-.28-.02-.44,0-.04-.1-.05-.11-.02-.06.15.03.31-.16.45.04-.24-.1-.35-.17-.49-.06-.12-.12-.18-.23-.28l-.34-.32c-.19-.18-.39-.51-.24-.74.08.03.14.06.22.11l.25.17Z"/>
        </g>
        <g>
          <path class="cls-119" d="M10.22,6.29s-.01.05,0,.07c0,.02.06,0,.05.07.03.03.13.05.19.06l.18.04c-.16-.03.77-.01.71-.03.27.14.48.38.71.61.08-.03.02-.1-.02-.15l.1-.18c.15.19.29.39.39.63.07.16.15.3.16.46l-1.03-.39s.02-.07.02-.09c-.02-.08-.14-.04-.2-.07-.16-.07-.32-.11-.48-.14l-.2-.04c-.11-.02-.22-.02-.34-.04-.09-.01-.82-.31-.98-.4.2-.24.47-.35.74-.42Z"/>
          <path class="cls-134" d="M12.14,6.77l-.1.18s.1.12.02.15c-.23-.22-.44-.46-.71-.61.06.02-.87,0-.71.03l-.18-.04c-.06-.01-.16-.03-.19-.06.02-.06-.04-.05-.05-.07-.01-.02.01-.05,0-.07.14-.03.28-.09.43-.1.22-.01.47-.11.7-.05.35.1.6.38.8.63Z"/>
        </g>
        <g>
          <path class="cls-50" d="M16.98,12.71c-.18.13-.36.23-.58.31,0-.01-.03-.03-.05-.03-.03.01-.07.15-.07.09-.07-.23-.17-.43-.36-.6-.05-.05-.06-.16-.16-.18-.02-.02-.03-.04,0-.04.1.06.22.1.31.2.12.14.22.28.31.47.23-.12.45-.22.63-.4.13-.13.33-.21.44-.4,0,0,.03,0,.03,0-.13.18-.24.34-.46.54-.06,0-.09.04-.04.05Z"/>
          <path class="cls-132" d="M16.4,13.02c.12.3.16.63.19.97.03.4.13.39.28.7-.26,0-.47.06-.66.21l-.66.5s-.08.04-.12.06l.06-.15c.11-.11.25-.17.37-.28.24-.2.47-.38.8-.47-.32-.42-.11-.89-.34-1.43,0-.02-.02-.04-.02-.05,0,.06.04-.07.07-.09.02,0,.04.02.05.03Z"/>
          <path class="cls-109" d="M15.76,12.25s-.01.02,0,.04c.1.02.11.13.16.18.18.17.29.37.36.6,0,.02.02.04.02.05-.08.05-.21.15-.18.28.06.32.13.61.14.93-.12.07-.21.17-.3.26-.49.45-.89.31-.73.83-.2.09-.7.29-.92.18-.03-.01-.07.01-.06.04-.08-.03-.17-.06-.24-.12-.09-.09-.2-.15-.28-.25.13-.43.86-.97.74-1.81-.03-.21-.12-.4-.3-.6.44-.14.75-.41,1.06-.71,0,.04.02,0,.03,0,.03,0-.02-.2.49.08Z"/>
          <path class="cls-88" d="M15.48,15.31l-.06.15c-.37.2-.79.34-1.17.18,0-.02.04-.05.06-.04.22.11.72-.09.92-.18.08-.04.16-.09.25-.11Z"/>
          <path class="cls-84" d="M15.48,15.31c-.09.03-.17.07-.25.11-.16-.52.24-.38.73-.83.1-.09.18-.19.3-.26-.01-.31-.09-.61-.14-.93-.02-.12.1-.23.18-.28.23.54.02,1.01.34,1.43-.33.1-.56.27-.8.47-.12.1-.26.17-.37.28Z"/>
        </g>
        <g>
          <path class="cls-90" d="M14.37,13.5c.02.18-.04.36-.1.53-.05.03-.12-.07-.17-.06-.2.02-.25.21-.31.34-.12.25-.28.47-.42.69-.07.11-.15.12-.27.11-.34-.02-.68-.04-1.03-.08-.16-.02-.3-.06-.46.02-.08.04-.2.03-.25.14-.21.09-.52-.45-.61-.21-.06-.08-.16-.13-.09-.25.57-.28,1.38-.62,1.62-1.26.06.07.17.03.26.01.1-.02.2-.01.31-.03.48-.08.33-.05.75-.32.03-.1.09-.16.15-.23.1.03.22-.02.33,0,.09.02.11.11.15.17.22.3-.02.02.13.42Z"/>
          <path class="cls-51" d="M14.28,14.03c-.14.42-.38.65-.63,1.06-.2.33,0,.34-.1.42-.05.03-.07-.01-.11-.02-.37-.12-.76-.13-1.12-.1,0,.19-.92-.04-.89-.05-.02,0-.05,0-.05.03-.23-.08-.46-.18-.62-.39.09-.24.4.29.61.21.05-.11.17-.1.25-.14.16-.07.3-.04.46-.02.35.04.69.06,1.03.08.12,0,.19,0,.27-.11.15-.22.3-.44.42-.69.06-.13.11-.32.31-.34.05,0,.11.09.17.06Z"/>
          <path class="cls-56" d="M13.73,15.28c-.04.14-.05.29-.03.48-.24-.12-.48-.2-.74-.21h-.45c-.39-.02-.77-.06-1.13-.17,0-.04.03-.03.05-.03-.03,0,.89.24.89.05.36-.03.75-.02,1.12.1.04.01.07.06.11.02.1-.08-.11-.09.1-.42.26-.42.49-.64.63-1.06.06-.17.12-.34.1-.53.06,0,0,.05.05.07.02-.04-.01-.06,0-.08,0,0,.01-.02.04-.02.12.84-.6,1.38-.74,1.81Z"/>
          <path class="cls-41" d="M13.48,12.8c.09.04.18.08.28.11-.07.07-.13.13-.15.23-.42.27-.27.24-.75.32-.1.02-.21,0-.31.03-.09.02-.2.06-.26-.01.06-.17-.02-.35-.09-.49-.05-.1-.11-.27-.22-.36-.02-.02-.1.03-.11-.03.23-.06.8-.2,1-.31.15.23.38.39.62.52Z"/>
        </g>
        <g>
          <path class="cls-53" d="M15.54,9.34c.15.08.35,1.39.38,1.43,0,.01.04-.04.05,0-.03.05-.06.08-.02.13.02.03.05.03.06.07.05.19.25.31.35.48-.24-.07-.57.13-.77.33l-.36.38c-.31.3-.62.57-1.06.71.18.2.27.38.3.6-.02,0-.03.01-.04.02-.02.02,0,.04,0,.08-.05-.02.01-.07-.05-.07-.15-.4.09-.12-.13-.42-.05-.06-.06-.16-.15-.17-.1-.02-.23.03-.33,0s-.19-.06-.28-.11c0-.03.03-.03.05-.03.03,0,.05.02.07.03.11.06.2.01.3,0,.46-.06.74-.28,1.06-.58s.62-.57.98-.81c.02-.01.05-.04.05-.06s0-.06-.02-.08c-.33-.4-.23-1.22-.49-1.62.01-.18-.11-.31-.21-.46-.28-.44-.32-.22-.59-.45.35.02.63.21.81.52.06,0,.03.05.05.08Z"/>
          <path class="cls-77" d="M14.19,8.81c-.04.3-.09.59-.2.91.07,0,.1-.03.18.04.24-.29.34-.66.38-1.03l.04-.34c.17-.02-.1.38.08.35.28.24.32.01.59.45.1.15.22.28.21.46l-.22.24c.08.23.16.45.22.67.05.19.07.38.19.56l-.32.33c-.12.13-.23.25-.35.37-.07.06-.16.06-.17.19,0,.07.06.15.12.21-.32.3-.6.53-1.06.58-.1.01-.18.06-.3,0-.02,0-.04-.03-.07-.03-.02,0-.05,0-.05.03-.24-.12-.47-.29-.62-.52.06-.19.19-.36.3-.55.18-.33.36-.73.33-1.08,0-.09.02-.18,0-.28,0-.03-.08-.03-.1-.02-.09,0,.05.18-.29.28-.13.19.31-.52.09-.22l.14-.19s.04-.07.06-.07c.02,0,.05.03.06.04.05-.02.15-.05.18-.1-.05-.03.09-.29.02-.23.01,0,.05-.03.06-.04.06-.17.06-.34.06-.53,0-.03.06-.06.07-.1.04-.22,0-.44,0-.66,0-.09,0-.13-.05-.21-.03-.05-.02-.15-.09-.22-.06-.06-.07-.14-.03-.21.07.14.21.25.17.49.18-.14.1-.31.16-.45.01-.03.11-.02.11.02,0,.16,0,.29.02.44,0,.1-.09.51.07.44Z"/>
          <path class="cls-27" d="M14.96,12.21c-.06-.06-.13-.14-.12-.21,0-.12.1-.12.17-.19.13-.12.23-.24.35-.37l.32-.33c-.12-.19-.14-.37-.19-.56-.06-.23-.14-.44-.22-.67l.22-.24c.26.4.17,1.22.49,1.62.01.02.02.06.02.08s-.03.04-.05.06c-.36.24-.68.52-.98.81Z"/>
        </g>
        <g>
          <path class="cls-20" d="M5.53,9.27s-.04.03-.03.07c-.08,0-.12.08-.17.13-.52.49-.58,1.23-.63,1.9-.01.16-.05.29-.14.47.6.14.72.48,1.21.74.02-.02.04-.03.05-.01.07.15.31.21.4.26.12.06.25.1.39.15.16.06.28.14.47.09.02,0,.07.01.06.04-.05,0-.11.04-.19.03-.45-.03-.86-.18-1.22-.41-.03,0-.03.05-.06.04.02-.06-.02-.08-.06-.12l-.61-.47c-.21-.16-.43-.23-.7-.21.15-.23.26-.44.29-.69l.08-.77c.13-.52.32-1.05.88-1.23Z"/>
          <path class="cls-112" d="M6.25,9.21c.09.31.19.63.41.86.02.05.06.11.08.16-.18.21-.32.32-.19.61.05.12.08.23.16.34.02.04,0,.3.12.48.05.07,0,.2.07.25.07.06.17.12.18.2.03.15.18.21.27.33.06.08.04.26.16.28.09.02.19,0,.25.03-.08.08-.17.15-.27.21-.12.06-.23.12-.37.13,0-.03-.03-.05-.06-.04-.19.05-.32-.04-.47-.09-.14-.05-.27-.08-.39-.15.05-.1.14-.24.08-.35-.33-.13-.61-.34-.92-.53l-.34-.21c-.12-.07-.05-.18-.04-.29,0-.53.14-1.05.47-1.46.03-.27,0-.47.05-.65,0-.03.05-.03.03-.07.44-.14.44.04.73-.06Z"/>
          <path class="cls-78" d="M5.49,9.34c-.04.18-.02.39-.05.65-.33.42-.46.93-.47,1.46,0,.11-.08.22.04.29l.34.21c.31.19.59.4.92.53.06.1-.02.25-.08.35-.09-.05-.33-.11-.4-.26,0-.02-.03-.01-.05.01-.49-.27-.61-.6-1.21-.74.1-.17.13-.31.14-.47.05-.67.11-1.41.63-1.9.06-.05.09-.13.17-.13Z"/>
          <path class="cls-120" d="M6.82,10.26c.07.13.23.17.37.15.03,0,.08,0,.11,0-.02.05,0,.11,0,.15-.21.54.68,1.73.68,1.78v.05s.05,0,.07.02c-.08.14-.18.26-.29.37-.06-.04-.16-.01-.25-.03-.12-.03-.1-.2-.16-.28-.08-.12-.23-.18-.27-.33-.02-.08-.11-.14-.18-.2-.06-.05-.02-.18-.07-.25-.12-.18-.1-.45-.12-.48-.08-.12-.1-.23-.16-.34-.13-.29,0-.4.19-.61.03,0,.04.04.08.03Z"/>
        </g>
        <g>
          <path class="cls-127" d="M14.01,15.53s-.02.02-.05.03c.04.05.02.11.04.15-.01.6.08.54-.21,1.04-.08,0-.15-.03-.24-.02-.13.02-.28.12-.27.28-.08.04-.13.12-.2.2-.08.09-.18.16-.27.25s-.25.06-.37.03l-.65-.22c-.08.17-.16.16-.14.31-.14-.04-.27-.07-.4-.16-.09-.06-.22-.11-.31-.09-.03,0-.06,0-.09-.03.4-.18.82-.33,1.16-.63.2-.19.43-.4.43-.68,0,.08.05-.06.06-.04-.02-.02-.04-.02-.05-.01-.02.02-.05.04-.01.05-.07.02-.07.12-.15.16-.02-.04.03-.06.04-.1.08-.14.3-.4.17-.51h.45c.27.02.5.1.74.22-.02-.19-.01-.33.03-.48.08.1.19.16.28.25Z"/>
          <path class="cls-124" d="M13.06,17.91c-.05.13-.12.25-.14.44-.17-.23-.34-.38-.6-.44l-.55-.14c-.31-.08-.63-.2-.83-.45.1-.02.22.03.31.09.13.09.26.12.4.16l.5.14c.25.07.49.14.68.33.09-.11.11-.23.17-.33l.14-.22c.18-.29.49-.47.65-.74.29-.5.2-.44.21-1.04.17.31.14.68-.02,1.01-.29.59-.77.82-.92,1.19Z"/>
          <path class="cls-85" d="M13.79,16.74c-.16.28-.46.45-.65.74l-.14.22c-.06.1-.08.23-.17.33-.19-.19-.44-.26-.68-.33l-.5-.14c-.02-.15.06-.13.14-.31l.65.22c.12.04.28.06.37-.03s.19-.16.27-.25c.07-.08.13-.16.2-.2-.01-.17.13-.26.27-.28.08-.01.16.02.24.02Z"/>
          <path class="cls-60" d="M12.45,15.98s0-.04.01-.05c0,0,.03-.01.05.01-.01-.02-.05.13-.06.04Z"/>
        </g>
        <path class="cls-116" d="M7.92,8.6c.12.25.27.5.42.74-.04,0-.11-.05-.13-.01-.07.11-.03.17.02.26.17.3.34.59.58.84.04-.04.09-.08.14-.08.09.18.28.31.31.54l.34.02c-.02.06.02.1.05.15.02.06-.09.04-.12.11.51.08,1.02.07,1.54.04.04-.03.03-.1.03-.15,0-.02-.05-.03-.06-.04,0-.01.02-.03.02-.05l.61-.03.32.02.21-.47c.06.04.12.06.19.09-.05.1-.08.21-.17.31.04.05.07.02.11.04-.06.1-.26.08-.34.16l-.56.61c-.12.13-.28.21-.44.28-.09.04-.22.04-.31.1-.24,0-.47.01-.7-.03-.07-.07-.2-.07-.29-.13-.38-.25-.73-.57-.92-1.02-.38-.19-.71-.49-.9-.9-.13-.29-.28-1.13-.04-1.48.05,0,.09.06.11.1Z"/>
        <path class="cls-71" d="M10.39,7.32s0,.03,0,.05c0,.01.02.02.03.02l.17.22c-.48-.05-.97.08-1.34.39-.1.08.03.18.07.24.05.09.15.18.26.21.09.03.19.11.29.13-.02.05,0,.1-.06.13-.31.14-.24.2-.46.36.02-.09.08-.12.18-.22-.11-.04-.17.04-.25.08l-.17.1s-.11-.05-.15,0c-.08.08-.12.28-.11.31.09.44.23.29.25.46.06,0,.08-.07.08-.1l.33-.45c.04.06.14.04.21.07.29.14.71.1.74.06,0,0,0-.03,0-.05.05.13.16.23.25.39-.14.01-.27-.09-.41-.11-.33-.04-.52.2-.58.49-.05.23,0,.47.17.64-.01.03-.03.05-.05.07-.02.02-.02.07.01.06-.06.08-.18.04-.27.03l-.34-.02c-.03-.22-.22-.36-.31-.54-.18-.35-.4-.68-.61-1.01-.15-.24-.29-.49-.42-.74.04,0,.07-.05.11-.06,0,.13.52-.25.5-.24.38-.24.78-.44,1.16-.65.22-.12.49-.18.7-.33Z"/>
        <path class="cls-108" d="M10.39,7.32c-.21.15-.48.21-.7.33-.06-.06-.06-.14-.12-.22-.43.13-.81.33-1.11.65-.01.02.04.04.04.05,0,.02-.04.04-.03.08s.05.06.06.09c.01,0-.5.37-.5.24.09-1.06.96-1.7,2.03-1.5l.31.22c.08,0,.05.02.02.06Z"/>
        <path class="cls-93" d="M10.82,7.31c.67.07,1.4.45,1.53,1.23-.04.09-.14.12-.22.17-.07.17-.2.28-.2.4-.12-.05-.13-.2-.21-.26.02,0,.08-.03.08-.07,0-.03-.03-.06-.05-.08-.03-.03.07-.08.05-.1-.34-.57-.24-.44-.75-.92-.09.06-.2.1-.15.15-.08-.08-.19-.18-.29-.23l-.17-.22c-.08-.11.35-.07.39-.07Z"/>
        <path class="cls-99" d="M11.65,7.47l1.03.39c.02.32,0,.64-.04.96s-.11.65-.23.94c0-.03-.07-.02-.1-.05.07-.38-.22-.69.08-.83,0-.12-.04-.24-.05-.35-.13-.78-.86-1.17-1.53-1.23-.01-.03.01-.06.03-.05.02,0,.08-.01.1,0,.24.07.48.13.71.22Z"/>
        <g>
          <path class="cls-38" d="M13.49,10.66c-.06-.01-.14.04-.21-.06-.18.4-.34.81-.59,1.21-.1.16-.22.25-.38.3l-1.39.4s-.09,0-.14.03c-.06.03-.06.08-.05.13-.09-.02-.2-.03-.27-.13.03,0,.8-.48.71-.44l.55-.24s.02-.03.04-.05c.02-.01.03,0,.06,0l.12-.11c-.39.35.84-.63.38-.31.12-.08.2-.17.31-.27s.27-.16.32-.31c.02-.08.07-.15.13-.18.33-.1.2-.28.29-.28.03,0,.09,0,.1.02.03.1,0,.2,0,.28Z"/>
          <path class="cls-80" d="M13.49,10.66c.03.35-.15.75-.33,1.08-.1.19-.24.35-.3.55-.2.11-.76.25-1,.31-.37.09-.75.18-1.13.09,0-.05,0-.1.05-.13.05-.03.1-.02.14-.03l1.39-.4c.17-.05.29-.15.38-.3.25-.4.41-.82.59-1.21.06.09.15.04.21.06Z"/>
          <path class="cls-11" d="M12.38,10.9c.1.16-.13.29-.25.41-.05.03-.13,0-.19.02-.09.2-.28.29-.46.37-.08.04-.53.4-.5.25.16-.07.32-.15.44-.28l.56-.61c.08-.09.28-.06.34-.16.01.02.04.01.06,0Z"/>
        </g>
        <g>
          <path class="cls-2" d="M9.29,12.35l-.1.12c.11.07.22.06.33.09,0,.05.01.09.01.13-.34-.02-.68-.11-1.01-.2-.18-.05-.37-.11-.55-.15,0-.04-.89-1.24-.68-1.78l.12-.06c.2.48.4.93.67,1.36.07.11.16.18.29.22l.91.27Z"/>
          <path class="cls-29" d="M9.96,12.03s-.03.03,0,.04l.47.39c-.05.15-.22.14-.33.19-.01-.03-.03-.09-.05-.12-.24-.08-.52-.11-.75-.18l-.91-.27c-.14-.04-.22-.11-.29-.22-.27-.43-.47-.88-.67-1.36l-.12.06s-.01-.11,0-.15c-.01,0,.47-.42.55-.43.19.41.52.71.9.9.19.45.54.78.92,1.02.09.06.22.06.29.13Z"/>
          <path class="cls-58" d="M10.09,12.65c-.18.07-.36.05-.55.04,0-.04,0-.08-.01-.13-.11-.04-.22-.03-.33-.09l.1-.12c.24.07.51.1.75.18.02.03.03.09.05.12Z"/>
        </g>
        <path class="cls-75" d="M10.67,12.06c-.02.13-.21.28-.25.4l-.47-.39s-.01-.04,0-.04c.23.04.47.04.7.03Z"/>
        <path class="cls-49" d="M12.39,10.56c-.06-.03-.13-.05-.19-.09.08-.19.14-.39.18-.59,0-.04.06-.08.03-.12.11-.29.17-.63.23-.94.07.02.09-.06.12-.13.06.1-.08.23.08.33-.06.52-.21,1.05-.45,1.53Z"/>
        <g>
          <path class="cls-40" d="M7.03,7.34c-.22.12-.5.53-.75.76-.11.1-.14.17-.1.32l.33,1.12c.07.25.29.53.14.53-.22-.23-.32-.55-.41-.86l-.28-1,.84-.91s.08-.07.13-.09c.03.03.09.08.09.12Z"/>
          <path class="cls-45" d="M7.23,7.4c-.07.07-.13.17-.2.23l-.74.65c.23.48.32.95.49,1.4-.02-.06.14.48.12.52,0,.03-.05.07-.09.06-.03,0-.05-.03-.08-.03-.03-.05-.06-.11-.08-.16.15,0-.07-.28-.14-.53l-.33-1.12c-.05-.15,0-.22.1-.32.25-.23.52-.64.75-.76.02.13.16-.03.2.05Z"/>
          <path class="cls-48" d="M7.98,6.83s.07.05.12.07l-.07.06s-.07.02-.1.03c-.05.02-.03.09-.04.14-.03.1-.12.14-.15.22,0,.01-.35.42-.3.39-.09.05-.04.14-.06.19-.06.15-.19.29-.24.49-.02.1-.09.18-.1.27l-.02.36c0,.14.04.19.05.28,0,.14-.04.27-.03.42l.03.48.03.1s.04.03.08.04c0,.01.02.03,0,.04-.14.02-.3-.02-.37-.15.04,0,.08-.03.09-.06.01-.04-.15-.58-.12-.52.04.03.14-.07.12-.13-.06-.12-.13-.22-.13-.35-.02-.49-.3-.54.07-1.13.05-.09.19-.13.22-.23.03-.08,0-.15-.02-.21.07-.06.13-.17.2-.23.21-.19.39-.19.34-.43,0-.03-.06-.03-.08-.06.15-.05.31-.1.49-.08Z"/>
          <path class="cls-83" d="M7.49,6.92s.07.03.08.06c.05.24-.12.23-.34.43-.04-.08-.18.08-.2-.05,0-.04-.06-.09-.09-.12.14-.18.36-.25.55-.31Z"/>
          <path class="cls-106" d="M7.19,10.37s-.06,0-.08-.04l-.03-.1-.03-.48c0-.15.03-.28.03-.42,0-.09-.05-.13-.05-.28l.02-.36c0-.09.07-.17.1-.27.05-.2.17-.34.24-.49.02-.05-.03-.14.06-.19-.06.03.29-.38.3-.39.09,0,.13.08.15.13.05.1-.06.15-.07.23-.02.12-.05.21-.08.32l-.09.26c-.06.17-.15.42-.16.6s-.1.35-.09.52c0,.1.05.21,0,.32-.02.05-.03.15-.06.19-.07.11-.16.2-.08.34-.01.04-.05.09-.05.12Z"/>
          <path class="cls-44" d="M6.78,9.68c-.17-.45-.26-.92-.49-1.4l.74-.65c.02.06.05.13.02.21-.03.1-.17.14-.22.23-.37.59-.09.65-.07,1.13,0,.13.07.23.13.35.03.05-.07.15-.12.13Z"/>
        </g>
        <path class="cls-59" d="M11.06,10.96s-.02.04-.02.05c0,.02.05.02.06.04,0,.05,0,.12-.03.15-.52.03-1.03.05-1.54-.04.02-.07.14-.05.12-.11-.03-.05-.07-.08-.05-.15.09,0,.2.04.27-.03.04-.01.04.01.04.05l1.15.03Z"/>
        <path class="cls-30" d="M8.34,9.34c.21.33.44.66.61,1.01-.05,0-.1.04-.14.08-.24-.25-.41-.54-.58-.84-.05-.09-.1-.15-.02-.26.02-.03.09,0,.13.01Z"/>
        <path class="cls-24" d="M12.39,9.89c-.04.2-.1.4-.18.59l-.21.47-.32-.02c.1-.14.36-.31.45-.53l.21-.5s.04-.02.05-.01Z"/>
        <path class="cls-73" d="M10.88,9.52c0,.06-.02.23-.07.24-.03,0-.04,0-.08-.02,0,.06.03.08,0,.1-.22.19,0-.09-.14.17-.02.04-.1.02-.12.05-.14.18-.4.25-.57.09-.05-.05-.11-.06-.17-.05.06-.29.24-.53.58-.49.13.02.27.12.41.11-.09-.16-.2-.26-.25-.39s-.48-.06-.55-.37c.17-.08.32.19.38.23l.05.04s.09-.01.09-.03c.03-.16.1-.33.22-.42.26.31.18.58.23.74Z"/>
        <path class="cls-9" d="M9.9,10.74c-.18-.17-.22-.41-.17-.64.06-.01.12,0,.17.05.18.16.44.09.57-.09.02-.03.1,0,.12-.05.15-.27-.07.01.14-.17.03-.02,0-.04,0-.1.04.02.05.03.08.02.05,0,.07-.18.07-.24.03.1.03.21.04.33,0,.06.1.03.15.06-.1.07-.22.12-.29.23-.04.07-.12.06-.17.1-.12.1-.24.2-.38.28-.12.07-.21.2-.34.23Z"/>
        <path class="cls-25" d="M10.58,8.57s-.05-.06.03-.11c-.23-.13-.49-.23-.77-.17-.1.02-.22.06-.25.16-.11-.03-.21-.12-.26-.21l.1-.16c.05-.08.43-.22.58-.15.02.28.19,0,.3.21.08-.09.36.02.36.02.04.04.07.24.03.39,0,.03.08.09,0,.12,0-.05,0-.1-.05-.09-.03,0-.05,0-.07,0Z"/>
        <path class="cls-70" d="M9.69,7.65c-.38.21-.78.41-1.16.65,0-.03-.05-.06-.06-.09s.03-.06.03-.08c0-.01-.06-.03-.04-.05.3-.32.68-.51,1.11-.65.06.08.06.16.12.22Z"/>
        <path class="cls-19" d="M9.91,8.97c.07.31.5.23.55.37-.01.01,0,.04,0,.05-.03.04-.45.07-.74-.06-.07-.03-.17-.01-.21-.07.11-.14.17-.34.3-.46,0-.14.14.32.11.18Z"/>
        <path class="cls-86" d="M9.35,9.06c-.02.07-.37.54-.18.64,0,.03-.03.1-.08.1-.02-.18-.16-.02-.25-.46,0-.04.03-.23.11-.31.05-.05.11.03.15,0l.17-.1c.08-.04.14-.12.25-.08-.1.1-.16.13-.18.22Z"/>
        <path class="cls-57" d="M10.58,8.57c-.23.01-.47.04-.7,0-.1-.02-.2-.11-.29-.13.03-.1.14-.13.25-.16.28-.06.55.05.77.17-.08.05-.02.07-.03.11Z"/>
        <path class="cls-28" d="M9.8,8.78c-.12.13-.19.32-.3.46l-.33.45c-.19-.1.16-.57.18-.64.22-.16.15-.23.46-.36-.02.01-.02.07-.01.08Z"/>
        <path class="cls-5" d="M11.72,8.85c-.23-.2-.49-.67-.83-1.02-.04-.05.07-.09.15-.15.51.49.41.36.75.92.01.02-.08.07-.05.1.01.01.05.04.05.08,0,.04-.05.07-.08.07Z"/>
        <g>
          <path class="cls-65" d="M10.6,7.6c.1.05.21.15.29.23.34.35.6.81.83,1.02.07.07.09.21.21.26,0-.12.13-.23.2-.4.08-.05.18-.09.22-.17.02.11.05.22.05.35-.3.14-.01.45-.08.83.03.02.09.02.1.05.03.04-.02.08-.03.12-.01,0-.04,0-.05.01l-.21.5c-.09.21-.35.39-.45.53l-.61.03-1.15-.03s0-.07-.04-.05c-.03,0-.03-.05-.01-.06.01-.01.04-.04.05-.07.13-.03.22-.16.34-.23.14-.08.26-.18.38-.28.05-.04.13-.03.17-.1.07-.11.18-.15.29-.23-.05-.02-.14,0-.15-.06-.01-.12-.01-.22-.04-.33-.05-.16.03-.42-.23-.74-.12.1-.19.26-.22.42,0,.02-.08.05-.09.03l-.05-.04c-.07-.05-.22-.32-.38-.23.03.14-.1-.32-.11-.18,0-.01-.01-.07.01-.08.06-.02.04-.08.06-.13.23.04.47,0,.7,0,.02,0,.05.01.07,0,.04,0,.04.04.05.09.07-.03,0-.09,0-.12.04-.15,0-.36-.03-.39,0,0-.28-.12-.36-.02-.11-.2-.28.06-.3-.21-.15-.07-.53.07-.58.15l-.1.16c-.04-.06-.16-.16-.07-.24.37-.31.86-.44,1.34-.39Z"/>
          <path class="cls-82" d="M10.82,10.59c.42-.29.87-.63,1.09-1.18-.04-.01-.08-.04-.13-.05.05-.08.12-.2.22-.21.02.05.09.1.12.13.06.55.01.55-.38.94-.11.11-.21.23-.37.29-.04.02-.08.09-.12.08l-.11-.03c-.1-.03-.22.01-.33.02Z"/>
          <path class="cls-7" d="M10.82,10.59s-.11.05-.15.02c-.17-.11.42-.42.5-.58.16-.13.31-.29.42-.47.06-.08.16-.13.2-.19.05,0,.09.03.13.05-.22.55-.67.89-1.09,1.18Z"/>
          <path class="cls-87" d="M11.59,9.56c-.11.18-.26.33-.42.47-.06-.04-.03-.1-.05-.15,0,.11.1-.32.09-.21,0-.14.05-.77-.11-.74.02-.09,0-.18.06-.28.17.08.32.36.32.46,0,.05-.12.4.03.46.02,0,.06,0,.07-.01Z"/>
          <path class="cls-123" d="M11.12,9.88c-.09-.31-.07-.63-.01-.95.15-.03.11.6.11.74,0-.12-.09.32-.09.21Z"/>
        </g>
      </g>
    </g>
  </g>
</svg>