<?xml version="1.0" encoding="UTF-8"?>
<svg id="Layer_2" data-name="Layer 2" xmlns="http://www.w3.org/2000/svg" viewBox="0 0 16.38 20.9">
  <defs>
    <style>
      .cls-1 {
        fill: #474649;
      }

      .cls-2 {
        fill: #474749;
      }

      .cls-3 {
        fill: #464648;
      }

      .cls-4 {
        fill: #464649;
      }
    </style>
  </defs>
  <g id="Layer_1-2" data-name="Layer 1">
    <g id="Generative_Object" data-name="Generative Object">
      <g>
        <path class="cls-1" d="M5.76,20.56c1.73-.19,3.57-1.6,3.97-3.35.13-.57.03-1.15-.2-1.69-.81-1.86-3.13-2.85-4.86-1.62-.53.37-.86.95-.89,1.59-.02.57.18,1.1.6,1.48.54.49,1.33.55,1.92.12.51-.37.68-1.05.39-1.6-.27-.51-.81-.68-1.4-.61.72-.37,1.6.05,1.8.84s-.18,1.54-.9,1.87c-.89.42-1.93.1-2.48-.72s-.53-1.89.03-2.71c.38-.56.93-.93,1.56-1.14,1.67-.55,3.33.2,4.39,1.6-.35-1.15-1-2.09-1.78-3.03-.34-.41-.61-.83-.83-1.3-.72-1.53-.62-3.32.57-4.57l.64-.67c.38-.4.86-1.13.72-1.73-.11-.49-.66-.77-1.11-.61-.23.08-.38.28-.39.5s.11.44.32.52c-.23-.03-.35-.23-.4-.39-.07-.22,0-.42.13-.58.37-.45,1.11-.32,1.45.08l-.38-1.24c-.19-.6-.11-1.43.58-1.58-.64.38-.58,1.06-.36,1.65.39,1.05.8,1.88.17,2.96.49-.28.96-.49,1.5-.55.74-.08,1.45.21,1.84.84.24.39.28.84.05,1.24-.19.34-.56.62-.99.63-.31,0-.59-.12-.76-.35s-.24-.54-.14-.83c.09-.24.29-.44.56-.44-.34.18-.52.55-.41.89.13.37.49.58.87.49.36-.09.65-.37.74-.75.18-.75-.66-1.5-1.63-1.42-1.13.1-2.29,1.07-2.92,1.99-.85,1.22-.7,2.67-.04,3.93.24.46.53.86.87,1.25,1.08,1.25,1.89,2.64,1.99,4.32.07,1.23-.31,2.4-1.08,3.36-.42.53-.92.94-1.51,1.34l6.98.1,1.44.07c-.09.03-.19.03-.28.03-1.97.15-8.63.17-10.81.12l-5-.12c-.09,0-.2.01-.28-.03,1.01-.1,2-.07,3.01-.11.93-.04,1.82.04,2.75-.06Z"/>
        <path class="cls-4" d="M10.51,13.51c.13-1.11.55-2.29,1.24-3.21.04-.05.14-.04.09-.13-.87.83-1.43,1.92-1.55,3.16-.31-.42-.5-.88-.6-1.37-.11-.58.02-1.14.4-1.6.89-1.09,2.53-1.61,3.94-1.65-.72.51-1.15,1.24-1.24,2.1-.04.37-.11.7-.22,1.04-.33.96-1.1,1.42-2.06,1.65Z"/>
        <path class="cls-3" d="M2.71,11.39c.49.69,1.25,1.21,2.16,1.44-.3.17-.61.22-.92.25-1.67.11-2.37-2.13-2.1-3.49.27.51.65.88,1.17,1.07l.74.27c.78.3,1.23.9,1.31,1.75-.9-.21-1.67-.64-2.36-1.3Z"/>
        <path class="cls-3" d="M12.44,14.75c-.63.09-1.14-.18-1.53-.69.6-.14,1.22-.17,1.83-.02.06.02.11.09.17.01-.62-.25-1.25-.32-1.95-.15.12-.23.33-.38.54-.53,1.03-.7,2.25.65,2.59,1.56-.33-.22-.68-.32-1.06-.27l-.59.08Z"/>
        <path class="cls-2" d="M8.24,17.12c-.09.49-.15.96-.36,1.42-.37-.36-.47-.89-.26-1.36.26-.56.45-.69.4-1.42.48.52.9,1.35.72,2.04-.09.35-.38.6-.73.75.15-.48.26-.94.23-1.43Z"/>
        <path class="cls-4" d="M8.29,7.92c-.41.34-.62.78-.75,1.29-.16-.28-.26-.61-.18-.93.17-.75,1.39-1.12,2.04-1.08-.39.25-.58.62-.67,1.04-.12.55-.51.96-1.08,1.03.13-.51.34-.98.65-1.35Z"/>
        <path class="cls-3" d="M6.49,4.95c0-.08-.08-.11-.12-.15-.03.07.03.09.08.12.22.42.38.84.44,1.35-.34-.05-.62-.27-.79-.57-.3-.66-.05-1.03-.66-1.63.58.05,1.29.34,1.63.79.34.41.23.94-.08,1.36-.04-.48-.22-.89-.5-1.28Z"/>
        <path class="cls-1" d="M14.96,5.35c-1.01-.56-1.71.41-2.61-.67.54-.11,1.07-.06,1.61.06-.49-.23-1.04-.23-1.6-.17.22-.29.52-.45.86-.5.73-.04,1.43.68,1.74,1.29Z"/>
        <path class="cls-2" d="M10.23,2.37c.03-.05.15-.07.1-.17-.26.33-.56.61-.91.88-.08-.31-.02-.63.15-.9.4-.52.91-.32,1.21-1.1.09.47.08.91-.06,1.34-.19.56-.6.93-1.26.76.31-.25.55-.5.76-.83Z"/>
      </g>
    </g>
  </g>
</svg>