<?xml version="1.0" encoding="UTF-8"?><svg id="Layer_1" xmlns="http://www.w3.org/2000/svg" viewBox="0 0 82 82"><defs><style>.cls-1{fill:#fff;}</style></defs><path class="cls-1" d="M41,73.76c-18.06,0-32.76-14.7-32.76-32.76S22.94,8.24,41,8.24s32.76,14.7,32.76,32.76-14.7,32.76-32.76,32.76ZM41,11.24c-16.41,0-29.76,13.35-29.76,29.76s13.35,29.76,29.76,29.76,29.76-13.35,29.76-29.76-13.35-29.76-29.76-29.76Z"/><path class="cls-1" d="M52.46,60.26c-.56,0-1.12-.17-1.59-.52l-9.87-7.17-9.87,7.17c-.95.69-2.23.69-3.18,0-.95-.69-1.35-1.91-.98-3.03l3.77-11.6-9.87-7.17c-.95-.69-1.35-1.91-.98-3.03.36-1.12,1.4-1.87,2.58-1.87h12.2s3.77-11.6,3.77-11.6c.36-1.12,1.4-1.87,2.58-1.87h0c1.18,0,2.21.75,2.57,1.87l3.77,11.6h12.2c1.18,0,2.21.76,2.58,1.88.36,1.12-.03,2.34-.98,3.03l-9.87,7.17,3.77,11.6c.36,1.12-.03,2.34-.99,3.03-.48.35-1.03.52-1.59.52ZM41,49.5c.56,0,1.12.17,1.59.52l9.31,6.77-3.56-10.95c-.36-1.12.03-2.34.99-3.03l9.32-6.77h-11.52c-1.18,0-2.21-.75-2.58-1.87l-3.56-10.95-3.56,10.95c-.36,1.12-1.4,1.87-2.58,1.87h-11.52s9.31,6.77,9.31,6.77c.95.69,1.35,1.91.98,3.03l-3.56,10.95,9.32-6.77c.48-.35,1.03-.52,1.59-.52ZM34.87,33.04h0,0Z"/></svg>