<?xml version="1.0" encoding="UTF-8"?>
<svg id="Layer_1" data-name="Layer 1" xmlns="http://www.w3.org/2000/svg" viewBox="0 0 71.82 71.82">
  <defs>
    <style>
      .cls-1 {
        fill: #0a412d;
      }
    </style>
  </defs>
  <path class="cls-1" d="M53.76,34.75c-.26-4.06-1.88-7.76-4.41-10.64l11.96-10.21,1.82-1.56-3.65-3.65c-.44.51-8.85,10.36-11.77,13.78-2.88-2.53-6.57-4.15-10.64-4.41l1.23-15.67.19-2.39h-5.16c.05.67,1.07,13.57,1.42,18.06-4.06.26-7.76,1.88-10.64,4.41l-10.21-11.96-1.56-1.82-3.65,3.65c.51.44,10.36,8.85,13.78,11.77-2.53,2.88-4.15,6.57-4.41,10.64l-15.67-1.23-2.39-.19v5.16c.67-.05,13.57-1.07,18.06-1.42.26,4.06,1.88,7.76,4.41,10.64l-11.96,10.21-1.82,1.56,3.65,3.65c.44-.51,8.85-10.36,11.77-13.78,2.88,2.53,6.57,4.15,10.64,4.41l-1.23,15.67-.19,2.39h5.16c-.05-.67-1.07-13.57-1.42-18.06,4.06-.26,7.76-1.88,10.64-4.41l10.21,11.96,1.56,1.82,3.65-3.65c-.51-.44-10.36-8.85-13.78-11.77,2.53-2.88,4.15-6.57,4.41-10.64l15.67,1.23,2.39.19v-5.16c-.67.05-13.57,1.07-18.06,1.42h0ZM35.92,50.81c-8.22,0-14.9-6.68-14.9-14.9s6.68-14.9,14.9-14.9,14.9,6.68,14.9,14.9-6.68,14.9-14.9,14.9Z"/>
</svg>