<?xml version="1.0" encoding="UTF-8"?>
<svg id="Layer_1" data-name="Layer 1" xmlns="http://www.w3.org/2000/svg" viewBox="0 0 58.84 71.41">
  <defs>
    <style>
      .cls-1 {
        fill: #0a412d;
      }
    </style>
  </defs>
  <path class="cls-1" d="M41.27,50c-.58.92-1.18,1.84-1.77,2.76l1.09.17c10,1.55,15.24,4.86,15.24,7.33,0,3.85-11.3,8.15-26.42,8.15s-26.42-4.3-26.42-8.15c0-2.47,5.23-5.78,15.24-7.33l.79-.12c-.62-.91-1.23-1.82-1.83-2.74C6.42,51.84,0,55.63,0,60.26c0,7.24,15.16,11.15,29.42,11.15s29.42-3.91,29.42-11.15c0-4.69-6.56-8.51-17.56-10.25h-.01Z"/>
  <path class="cls-1" d="M50.45,20.56c-.46,7.58-4.41,14.14-7.76,20.69-3.49,6.32-7.26,12.38-11.31,18.36,0,0-1.98,2.67-1.98,2.68-5.44-8.12-10.61-16.36-15.09-25.06-1.96-3.9-3.84-7.86-5.01-12.26-1.28-4.48-.5-9.51,1.61-13.63C21.01-7.95,49.78-1.13,50.45,20.56h0ZM47.03,20.56c.18-6.97-4.17-13.74-10.6-16.49-8.42-3.67-18.92.3-22.78,8.63-1.3,2.64-1.91,5.61-1.74,8.54.71,5.05,3.24,9.67,5.64,14.28,2.02,3.72,4.24,7.36,6.57,10.93,2.32,3.56,4.74,7.11,7.25,10.5h-3.75c2.04-2.83,4.05-5.76,5.99-8.71,3.83-5.87,7.55-11.91,10.5-18.24,1.33-2.95,2.75-6.3,2.92-9.45h0Z"/>
  <path class="cls-1" d="M29.41,31.64c-6.15,0-11.15-5-11.15-11.15s5-11.15,11.15-11.15,11.15,5,11.15,11.15-5,11.15-11.15,11.15ZM29.41,12.35c-4.49,0-8.15,3.66-8.15,8.15s3.65,8.15,8.15,8.15,8.15-3.65,8.15-8.15-3.66-8.15-8.15-8.15Z"/>
</svg>