<?xml version="1.0" encoding="UTF-8"?>
<svg id="Layer_1" data-name="Layer 1" xmlns="http://www.w3.org/2000/svg" viewBox="0 0 71.73 72.58">
  <defs>
    <style>
      .cls-1 {
        fill: #0a412d;
      }
    </style>
  </defs>
  <path class="cls-1" d="M69.94,60.42c-4.18,0-7.59-3.06-7.61-6.82,0-1.68.67-3.3,1.92-4.55,1.43-1.43,3.47-2.26,5.61-2.26h1.57l-.06-12.14h-7.72l8.08-8.08-8.52-8.45-1.06,1.06c-2.68,2.68-7.06,2.69-9.75.02-1.3-1.29-2.02-3.01-2.03-4.84,0-1.83.71-3.55,2.01-4.85l1.07-1.06L44.93,0,10.25,34.67H0l.06,12.14h1.56c4.18,0,7.59,3.06,7.61,6.82,0,1.68-.67,3.3-1.92,4.55-1.43,1.43-3.47,2.26-5.61,2.26H.13l.06,12.14h71.38l-.06-12.14h-1.56v-.02ZM44.93,4.24l4.34,4.31c-1.24,1.68-1.91,3.71-1.9,5.83,0,2.63,1.04,5.11,2.92,6.97,3.5,3.47,8.99,3.79,12.85.95l4.34,4.31-8.07,8.07H14.5L44.93,4.24ZM3.3,69.43l-.03-5.98c2.39-.33,4.61-1.41,6.26-3.07,1.84-1.85,2.84-4.25,2.83-6.77-.02-4.99-4.02-9.13-9.18-9.83l-.03-5.98h45.54c.17,5.32.79,25.26.86,27.22h2.82c.07-2.22.22-6.86.48-15.3.18-5.65.34-10.88.34-10.88l.03-1.05h15.04l.03,5.98c-2.39.33-4.61,1.41-6.26,3.07-1.84,1.85-2.84,4.25-2.83,6.77.02,4.99,4.02,9.13,9.18,9.83l.03,5.98H3.3Z"/>
</svg>