<svg id="Layer_1" data-name="Layer 1" xmlns="http://www.w3.org/2000/svg" viewBox="0 0 589.93 410.37"><defs><style>.cls-1{fill:#5c873b;}.cls-2{fill:#00502f;}</style></defs><path class="cls-1" d="M189,95.54a28.27,28.27,0,0,1,11.46-18.72c10.44-7.52,26-18,31.93-23.83s9.06-12.5,16.63-12.78,12.32-3.52,20-10.12,14.2-18.94,23.5-19.49S315.28,26,321.45,31.94s8.89,8.53,8.89,8.53,3-6.41,10.6-13.72S351,10.42,369.59,28.82s40.62,24.33,50.93,37.25a355.15,355.15,0,0,1,20.39,29.12s-10.6,8.15-27,24-29.57,38.66-54.94,9.32l-12-12.29S331.67,128.91,325,134s-23.38,24.82-56.57-2.71l-13.82-12.13s-11,13.61-24.75,10.66-20.8-12.67-25.32-19.74S189,95.54,189,95.54Z" transform="translate(-26.01 -9.59)"/><path class="cls-2" d="M300.29,146.68c-8.51,0-19.2-3.62-32.47-14.63l-13.08-11.48c-2.67,3-12.7,12.87-25.06,10.22-13.34-2.86-20.6-11.8-26-20.18-4.36-6.81-15.19-14.17-15.3-14.24l-.49-.33.05-.59A29,29,0,0,1,199.86,76c2.44-1.76,5.16-3.68,8-5.67,9.07-6.41,19.35-13.67,23.84-18.06,1.54-1.51,2.9-3.08,4.2-4.6,3.65-4.24,7.09-8.24,13.09-8.47,7.1-.27,11.54-3.13,19.41-9.88a71.63,71.63,0,0,0,7.09-7.47c5-5.83,10.27-11.86,17-12.26,8.24-.44,19,10.66,26.12,18,1.37,1.42,2.55,2.63,3.55,3.61,4.06,3.94,6.64,6.4,7.91,7.61A55.51,55.51,0,0,1,340.25,26c1.06-1,2-2.07,2.95-3.08,2.76-3,5.37-5.87,9.3-6,4.4-.12,9.9,3.32,17.79,11.12,9.4,9.3,19.78,15.44,28.93,20.86s16.92,10,22.09,16.49c10.23,12.81,20.35,29.05,20.45,29.21l.48.77-.72.55c-.1.08-10.75,8.31-26.95,23.89-2.27,2.18-4.5,4.54-6.67,6.81-8.29,8.72-16.13,16.95-26.09,16.95h-.43c-7.32-.18-14.91-4.92-23.19-14.51L346.9,117.54c-3.1,2.57-15.5,12.84-21.27,17.24-.58.45-1.25,1-2,1.67C319,140.36,311.54,146.68,300.29,146.68Zm-45.77-29,14.6,12.82c29.5,24.47,45.5,10.91,53.19,4.4.79-.68,1.48-1.26,2.11-1.74,6.55-5,21.76-17.65,21.91-17.77l.71-.6,12.62,13c7.94,9.18,15,13.7,21.77,13.86,9.23.23,16.92-7.82,25-16.33,2.18-2.29,4.44-4.66,6.74-6.87,13.89-13.37,23.74-21.37,26.39-23.47-2.11-3.35-10.94-17.12-19.84-28.27-4.94-6.18-12.63-10.74-21.54-16C389,45.2,378.46,39,368.89,29.53c-7.37-7.29-12.53-10.68-16.35-10.55-3.07.07-5.18,2.39-7.86,5.32-1,1-1.94,2.11-3.05,3.17-7.4,7.08-10.35,13.36-10.38,13.42l-.58,1.26-1-.95s-2.8-2.61-8.91-8.54c-1-1-2.21-2.22-3.58-3.65-6.46-6.67-17.25-17.83-24.58-17.41-5.89.35-10.83,6-15.61,11.57a73.42,73.42,0,0,1-7.29,7.68c-8.09,6.93-13,10.07-20.64,10.36-5.13.19-8,3.54-11.65,7.77-1.34,1.56-2.72,3.16-4.32,4.73-4.61,4.5-15,11.81-24.09,18.27-2.81,2-5.52,3.9-8,5.65a27.72,27.72,0,0,0-11,17.44c2.28,1.59,11.29,8.1,15.35,14.47,5.13,8,12.07,16.59,24.69,19.3,13,2.78,23.66-10.19,23.76-10.32Z" transform="translate(-26.01 -9.59)"/><path class="cls-2" d="M265.59,78.09a49.08,49.08,0,0,0-8.65-7.39A25.09,25.09,0,0,0,252,68.18a19.65,19.65,0,0,0-5.32-1.31,23.7,23.7,0,0,0-10.86,1.44,38.17,38.17,0,0,0-9.89,5.53,26.56,26.56,0,0,1,9.3-7,23.63,23.63,0,0,1,5.68-1.79,21.18,21.18,0,0,1,16.93,4.35A31.38,31.38,0,0,1,265.59,78.09Z" transform="translate(-26.01 -9.59)"/><path class="cls-2" d="M274.56,55.68a58.55,58.55,0,0,1,15.65-.51,62.6,62.6,0,0,1,7.8,1.22,59.53,59.53,0,0,1,7.58,2.29,44.13,44.13,0,0,1,13.57,8.1,37.24,37.24,0,0,1,9.34,12.58A48,48,0,0,0,318.16,68c-1-.81-2.05-1.51-3.08-2.25s-2.15-1.38-3.28-2a48.46,48.46,0,0,0-6.93-3.22A70.46,70.46,0,0,0,290,56.71,93.71,93.71,0,0,0,274.56,55.68Z" transform="translate(-26.01 -9.59)"/><path class="cls-2" d="M228.82,105.22a18.57,18.57,0,0,1,3.05-8A21.65,21.65,0,0,1,238,91a23.72,23.72,0,0,1,8-3.36c.35-.08.7-.18,1.06-.24l1.07-.13,2.15-.23c1.44,0,2.88,0,4.29.14-1.4.34-2.79.53-4.16.84l-2,.53-1,.25c-.33.1-.65.23-1,.34-.65.24-1.29.47-1.94.68s-1.24.57-1.86.85l-.94.42-.88.51c-.57.36-1.19.65-1.73,1.06l-1.66,1.17c-.53.43-1,.9-1.54,1.33a27.16,27.16,0,0,0-2.8,3A29.72,29.72,0,0,0,228.82,105.22Z" transform="translate(-26.01 -9.59)"/><path class="cls-2" d="M285.8,118.63a22.44,22.44,0,0,1,2.37-9,24.69,24.69,0,0,1,5.65-7.58,25.26,25.26,0,0,1,8.05-5,28.36,28.36,0,0,1,4.5-1.34,43,43,0,0,1,4.63-.55c-1.46.57-2.94.94-4.36,1.49l-2.1.87c-.34.15-.7.26-1,.43l-1,.53-2,1-1.87,1.22a15.2,15.2,0,0,0-1.79,1.31,16.48,16.48,0,0,0-1.69,1.44,30.15,30.15,0,0,0-5.64,6.86A36.26,36.26,0,0,0,285.8,118.63Z" transform="translate(-26.01 -9.59)"/><path class="cls-2" d="M381,104.72a12.36,12.36,0,0,1,.38-6.54,15.13,15.13,0,0,1,3.44-5.77,17.73,17.73,0,0,1,5.56-3.7,26.59,26.59,0,0,1,3.13-1c1.08-.19,2.16-.34,3.23-.42-1,.51-1.95.91-2.91,1.35l-1.39.74a11.2,11.2,0,0,0-1.36.75c-.44.28-.87.56-1.31.81a12.21,12.21,0,0,0-1.23.91,19.62,19.62,0,0,0-2.28,2,18.92,18.92,0,0,0-3.43,4.94A21.18,21.18,0,0,0,381,104.72Z" transform="translate(-26.01 -9.59)"/><path class="cls-2" d="M332.31,45c3.88,3.22,7.9,6.21,12,9a136.68,136.68,0,0,0,12.8,7.72,104.18,104.18,0,0,0,13.6,6.1l3.53,1.24c1.19.37,2.4.68,3.6,1l1.8.54,1.83.4c1.22.26,2.45.55,3.68.84-1.25-.08-2.51-.18-3.77-.3l-1.89-.18-1.87-.34c-1.24-.24-2.49-.46-3.73-.73l-3.67-1a76.89,76.89,0,0,1-14.05-5.81,92.94,92.94,0,0,1-12.77-8.23A76.78,76.78,0,0,1,332.31,45Z" transform="translate(-26.01 -9.59)"/><path class="cls-2" d="M439.83,94.74a134.78,134.78,0,0,1-15.5-4.41c-5.08-1.74-10.1-3.69-15.14-5.4l-3.76-1.32c-1.26-.42-2.53-.8-3.8-1.18s-2.55-.67-3.85-.94-2.58-.55-3.89-.69a59.4,59.4,0,0,0-15.76-.07,41.25,41.25,0,0,0-7.67,1.66c-2.48.79-4.92,1.88-7.48,2.82a83.39,83.39,0,0,1-15.76,3.94A170.74,170.74,0,0,1,315,91.22Q306.89,91,298.84,90a88.66,88.66,0,0,1-15.9-3.32c-2.59-.81-5.1-1.75-7.62-2.49a44,44,0,0,0-7.71-1.54c-1.31-.17-2.63-.22-3.95-.33s-2.64-.11-4-.11c-2.66,0-5.32,0-8,.2a170.78,170.78,0,0,0-31.52,5.11c-5.23,1.12-10.48,2.27-15.68,3.54s-10.36,2.7-15.5,4.24a321.92,321.92,0,0,1,30.71-9.72,173,173,0,0,1,31.88-5.17c2.7-.17,5.4-.21,8.1-.2,1.36,0,2.71.08,4.07.11s2.71.17,4.07.35a46,46,0,0,1,8,1.6c2.62.77,5.13,1.71,7.66,2.5A86.09,86.09,0,0,0,299.09,88c5.28.63,10.61,1,15.94,1.18a168.17,168.17,0,0,0,31.86-2,82.26,82.26,0,0,0,15.4-3.85c2.47-.9,4.93-2,7.56-2.85a43.73,43.73,0,0,1,8-1.73,60.94,60.94,0,0,1,16.3.07A74.42,74.42,0,0,1,409.88,83c5,2,9.88,4.26,14.83,6.29S434.68,93.2,439.83,94.74Z" transform="translate(-26.01 -9.59)"/><path class="cls-2" d="M440.91,95.19s28.56,9.4,32.1-1.78l-2.69-2.26S470.33,100.63,440.91,95.19Z" transform="translate(-26.01 -9.59)"/><path class="cls-2" d="M37.17,395.69l-5.07.14c-2,.06-2.79.23-3.3,1a3.79,3.79,0,0,0-.57,1.19c-.07.27-.17.41-.38.41s-.3-.17-.3-.54c0-.55.64-3.64.71-3.91.1-.45.2-.65.41-.65a7.89,7.89,0,0,0,1.46.41c1,.1,2.28.17,3.4.17H47a16,16,0,0,0,2.35-.17,9,9,0,0,1,.91-.17c.24,0,.28.2.28.71,0,.72-.11,3.06-.11,3.95,0,.34-.1.54-.3.54s-.34-.17-.37-.68l0-.37c-.07-.89-1-1.84-4-1.91l-4.28-.1v13.94c0,3.13,0,5.81.17,7.27.1,1,.3,1.7,1.32,1.84a14.08,14.08,0,0,0,1.74.14c.37,0,.54.1.54.27s-.27.34-.65.34c-2.24,0-4.38-.1-5.33-.1-.79,0-2.93.1-4.29.1-.44,0-.68-.1-.68-.34s.14-.27.55-.27a5.39,5.39,0,0,0,1.22-.14c.68-.14.88-.88,1-1.87.17-1.43.17-4.11.17-7.24Z" transform="translate(-26.01 -9.59)"/><path class="cls-2" d="M77.93,407c.07,0,.17,0,.17-.2v-.61c0-4.39,0-5.44-.07-6.36s-.34-1.29-1.29-1.56a5.28,5.28,0,0,0-1.15-.1c-.34,0-.51-.11-.51-.31s.2-.27.64-.27c1.6,0,3.71.07,4.49.07s2.68-.07,3.84-.07c.44,0,.65.07.65.27s-.21.31-.55.31a4.71,4.71,0,0,0-.88.1c-.78.13-1,.54-1.09,1.56s-.07,1.74-.07,6.12v5.1c0,2.65,0,4.93.14,6.19.1.81.27,1.36,1.19,1.49a10.48,10.48,0,0,0,1.53.11c.3,0,.47.17.47.3s-.23.31-.61.31c-1.94,0-3.91-.1-4.72-.1s-2.79.1-4,.1c-.4,0-.64-.1-.64-.31s.13-.3.47-.3a4.34,4.34,0,0,0,1.09-.11c.61-.13.78-.68.89-1.53.13-1.22.13-3.43.13-6.08V409a.18.18,0,0,0-.17-.17H66.64c-.1,0-.2,0-.2.17v2.21c0,2.65,0,4.86.17,6.12.1.81.27,1.36,1.16,1.49a10.69,10.69,0,0,0,1.53.11c.34,0,.47.17.47.3s-.24.31-.61.31c-1.94,0-4-.1-4.86-.1-.68,0-2.65.1-3.84.1-.38,0-.58-.1-.58-.31s.1-.3.47-.3a4.25,4.25,0,0,0,1.06-.11c.61-.13.78-.68.88-1.53.14-1.22.14-3.5.14-6.15V406c0-4.38,0-5.2,0-6.12s-.34-1.29-1.29-1.56a5.43,5.43,0,0,0-1.19-.1c-.3,0-.51-.11-.51-.31s.24-.27.65-.27c1.6,0,3.57.07,4.38.07s2.79-.07,4-.07c.41,0,.61.07.61.27s-.17.31-.54.31a4.2,4.2,0,0,0-.85.1c-.82.13-1,.54-1.12,1.56s-.07,2-.07,6.36v.61c0,.17.1.2.2.2Z" transform="translate(-26.01 -9.59)"/><path class="cls-2" d="M98.23,406c0-4.38,0-5.2,0-6.12s-.34-1.29-1.3-1.56a5.31,5.31,0,0,0-1.19-.1c-.3,0-.51-.11-.51-.31s.24-.27.68-.27c1.57,0,3.47.07,4.32.07s7.58,0,8.16,0,1-.14,1.26-.17a3,3,0,0,1,.47-.14c.17,0,.21.14.21.27a13.29,13.29,0,0,0-.24,1.87c0,.31-.1,1.57-.17,1.91,0,.13-.1.47-.34.47s-.24-.13-.24-.37a2.71,2.71,0,0,0-.2-1.06c-.24-.51-.48-.91-2-1.05-.51-.07-4.08-.14-4.69-.14-.14,0-.21.11-.21.28v7.14c0,.17,0,.3.21.3.68,0,4.55,0,5.23-.07s1.16-.13,1.43-.44.34-.37.47-.37.24.13.24.3-.07.65-.24,2.11c-.06.58-.13,1.73-.13,1.94s0,.64-.31.64-.27-.1-.27-.23c0-.31,0-.68-.1-1.06-.17-.58-.54-1-1.67-1.12-.54-.07-3.94-.13-4.69-.13-.13,0-.17.13-.17.3v2.31c0,1,0,3.44,0,4.29.07,2,1,2.41,4.05,2.41a8.06,8.06,0,0,0,2.82-.37c.75-.34,1.09-1,1.29-2.15.07-.3.14-.44.34-.44s.27.38.27.68a19.57,19.57,0,0,1-.41,3.2c-.2.75-.47.75-1.59.75-2.25,0-4.05,0-5.51-.11s-2.58-.06-3.47-.06c-.34,0-1,0-1.7,0s-1.46.07-2.07.07c-.38,0-.58-.1-.58-.31s.1-.3.48-.3a4.21,4.21,0,0,0,1-.11c.61-.13.78-.68.88-1.53.14-1.22.14-3.5.14-6.15Z" transform="translate(-26.01 -9.59)"/><path class="cls-2" d="M139.88,403.65c0-5.17,0-6.12-.07-7.21s-.34-1.7-1.46-1.94a6.86,6.86,0,0,0-1.33-.1c-.37,0-.57-.07-.57-.31s.23-.3.74-.3c1.81,0,3.95.1,5,.1.81,0,3-.1,4.18-.1.51,0,.75.06.75.3s-.21.31-.55.31a4.87,4.87,0,0,0-1,.1c-.92.17-1.19.75-1.26,1.94s-.07,2-.07,7.21v4.76c0,4.92,1,7,2.65,8.36a6.28,6.28,0,0,0,4.25,1.39,6.64,6.64,0,0,0,4.69-1.83c1.87-1.87,2-4.93,2-8.44v-4.24c0-5.17,0-6.12-.07-7.21s-.34-1.7-1.46-1.94a6.51,6.51,0,0,0-1.23-.1c-.37,0-.58-.07-.58-.31s.24-.3.72-.3c1.73,0,3.87.1,3.91.1.41,0,2.55-.1,3.87-.1.48,0,.72.06.72.3s-.21.31-.62.31a4.94,4.94,0,0,0-1,.1c-.92.17-1.19.75-1.26,1.94s-.07,2-.07,7.21v3.63c0,3.78-.37,7.79-3.23,10.24a10.14,10.14,0,0,1-7.07,2.44c-1.8,0-5.06-.1-7.55-2.34-1.73-1.57-3-4.08-3-9Z" transform="translate(-26.01 -9.59)"/><path class="cls-2" d="M176.46,415.54c.07,2.25.45,2.93,1,3.13a5.11,5.11,0,0,0,1.57.21c.34,0,.51.13.51.3s-.28.31-.68.31c-1.94,0-3.34-.1-3.88-.1-.27,0-1.7.1-3.23.1-.41,0-.68,0-.68-.31s.21-.3.48-.3a6.28,6.28,0,0,0,1.36-.14c.78-.2.88-1,.92-3.5l.27-17.14c0-.57.2-1,.51-1s.78.44,1.29.95,4.86,5,9.21,9.21c2,2,6,6.09,6.46,6.5h.14l-.31-12.85c0-1.77-.3-2.28-1-2.55a5,5,0,0,0-1.56-.17c-.38,0-.48-.14-.48-.31s.31-.27.75-.27c1.56,0,3.16.07,3.81.07.34,0,1.46-.07,2.92-.07.41,0,.68,0,.68.27s-.17.31-.51.31a3.15,3.15,0,0,0-.92.1c-.81.24-1.05.75-1.08,2.38l-.34,18.22c0,.65-.24.92-.48.92a1.78,1.78,0,0,1-1.22-.61c-1.87-1.74-5.61-5.31-8.74-8.33s-6.43-6.63-7-7.14h-.11Z" transform="translate(-26.01 -9.59)"/><path class="cls-2" d="M209.51,406c0-4.38,0-5.2,0-6.12s-.38-1.32-1-1.53a3.92,3.92,0,0,0-1.09-.13c-.31,0-.48-.07-.48-.34s.24-.24.72-.24c1.12,0,3.16.07,4,.07s2.68-.07,3.84-.07c.37,0,.61.07.61.24s-.17.34-.47.34a4,4,0,0,0-.89.1c-.81.13-1.05.54-1.12,1.56s-.07,1.74-.07,6.12v5.1c0,2.79,0,5.1.14,6.32.1.79.3,1.23,1.19,1.36a10.91,10.91,0,0,0,1.53.11c.34,0,.47.17.47.3s-.23.31-.57.31c-2,0-4-.1-4.83-.1s-2.72.1-3.91.1c-.37,0-.58-.1-.58-.31s.1-.3.48-.3a4.21,4.21,0,0,0,1.05-.11c.61-.13.78-.54.89-1.39.13-1.19.13-3.5.13-6.29Z" transform="translate(-26.01 -9.59)"/><path class="cls-2" d="M226.85,400.45c-.68-1.6-1.12-1.87-2.21-2.14a5.36,5.36,0,0,0-1.15-.1c-.28,0-.34-.14-.34-.31s.3-.27.74-.27c1.6,0,3.3.07,4.36.07.74,0,2.31-.07,3.8-.07.38,0,.72.07.72.27s-.21.31-.48.31a2.22,2.22,0,0,0-1.16.2.64.64,0,0,0-.3.58,8.27,8.27,0,0,0,.68,2.17l5,13h.1c1.29-3,5.14-12.31,5.85-14.21a3.91,3.91,0,0,0,.27-1.06c0-.3-.13-.41-.41-.51a4.62,4.62,0,0,0-1.19-.13c-.27,0-.51-.11-.51-.31s.28-.27.85-.27c1.5,0,2.83.07,3.2.07s1.9-.07,2.82-.07c.38,0,.61.07.61.27s-.17.31-.47.31a2.32,2.32,0,0,0-1.46.34c-.38.27-.79.71-1.57,2.55-1.19,2.72-2,4.28-3.6,7.82-1.91,4.21-3.3,7.37-4,8.83-.75,1.67-1,2.11-1.43,2.11s-.64-.37-1.22-1.73Z" transform="translate(-26.01 -9.59)"/><path class="cls-2" d="M257.65,406c0-4.38,0-5.2,0-6.12s-.34-1.29-1.29-1.56a5.43,5.43,0,0,0-1.19-.1c-.31,0-.51-.11-.51-.31s.24-.27.68-.27c1.56,0,3.47.07,4.32.07s7.58,0,8.16,0,1-.14,1.25-.17a2.77,2.77,0,0,1,.48-.14c.17,0,.2.14.2.27a12.56,12.56,0,0,0-.23,1.87c0,.31-.11,1.57-.18,1.91,0,.13-.1.47-.33.47s-.24-.13-.24-.37a2.74,2.74,0,0,0-.21-1.06c-.23-.51-.47-.91-2-1.05-.51-.07-4.08-.14-4.69-.14-.14,0-.2.11-.2.28v7.14c0,.17,0,.3.2.3.68,0,4.56,0,5.24-.07s1.15-.13,1.42-.44.34-.37.48-.37.24.13.24.3-.07.65-.24,2.11c-.07.58-.14,1.73-.14,1.94s0,.64-.3.64-.27-.1-.27-.23c0-.31,0-.68-.11-1.06-.17-.58-.54-1-1.66-1.12-.55-.07-3.95-.13-4.69-.13-.14,0-.17.13-.17.3v2.31c0,1,0,3.44,0,4.29.06,2,1,2.41,4,2.41a8.06,8.06,0,0,0,2.82-.37c.75-.34,1.09-1,1.3-2.15.06-.3.13-.44.34-.44s.27.38.27.68a19.57,19.57,0,0,1-.41,3.2c-.2.75-.48.75-1.6.75-2.24,0-4,0-5.51-.11s-2.58-.06-3.46-.06c-.34,0-1,0-1.7,0s-1.47.07-2.08.07c-.37,0-.58-.1-.58-.31s.11-.3.48-.3a4.21,4.21,0,0,0,1-.11c.62-.13.79-.68.89-1.53.13-1.22.13-3.5.13-6.15Z" transform="translate(-26.01 -9.59)"/><path class="cls-2" d="M282.88,406c0-4.38,0-5.2,0-6.12s-.34-1.29-1.29-1.56a5.43,5.43,0,0,0-1.19-.1c-.31,0-.51-.11-.51-.31s.23-.27.68-.27c1.56,0,3.46.07,4.08.07,1,0,3.74-.07,4.65-.07a10.51,10.51,0,0,1,5.68,1.22,5.06,5.06,0,0,1,2.11,4c0,2.14-1.23,4.05-4.15,6.39,2.65,3.26,4.76,5.88,6.56,7.68a5.6,5.6,0,0,0,3.2,1.91,2.66,2.66,0,0,0,.71.07.35.35,0,0,1,.38.3c0,.24-.21.31-.58.31h-2.86a6.45,6.45,0,0,1-3.26-.58c-1.29-.65-2.41-2-4.08-4.25-1.19-1.56-2.45-3.5-2.82-3.94a.7.7,0,0,0-.55-.21l-2.68-.07a.22.22,0,0,0-.24.24v.41c0,2.69,0,4.93.17,6.15.1.85.24,1.4,1.16,1.53a10.94,10.94,0,0,0,1.46.11.34.34,0,0,1,.37.3c0,.21-.24.31-.61.31-1.73,0-4.22-.1-4.66-.1s-2.48.1-3.67.1c-.37,0-.58-.1-.58-.31s.1-.3.48-.3a4.21,4.21,0,0,0,1.05-.11c.61-.13.78-.68.89-1.53.13-1.22.13-3.5.13-6.15Zm3.81,2.25c0,.3.07.4.27.51a8.39,8.39,0,0,0,2.28.27,3,3,0,0,0,2.11-.48,4.88,4.88,0,0,0,1.94-4.28c0-4.08-2.79-5.14-4.56-5.14a10.44,10.44,0,0,0-1.77.11c-.2.06-.27.17-.27.4Z" transform="translate(-26.01 -9.59)"/><path class="cls-2" d="M310.39,419.11c-.48-.2-.58-.34-.58-1,0-1.57.14-3.37.17-3.84s.14-.75.37-.75.31.27.31.47a5.36,5.36,0,0,0,.27,1.5c.65,2.14,2.89,2.86,4.76,2.86,2.59,0,4.15-1.64,4.15-3.68,0-1.25-.31-2.51-3-4.08l-1.73-1c-3.54-2.07-4.69-4-4.69-6.56,0-3.53,3.4-5.81,7.54-5.81a17.36,17.36,0,0,1,4.25.48c.28.06.41.17.41.37,0,.37-.1,1.19-.1,3.47,0,.61-.14.92-.37.92s-.31-.17-.31-.51a3.3,3.3,0,0,0-.78-1.91,4,4,0,0,0-3.33-1.36c-2.15,0-4.08,1.12-4.08,3.1,0,1.29.47,2.31,3.16,3.8l1.22.68c3.95,2.18,5.17,4.39,5.17,7a6.18,6.18,0,0,1-3,5.4,8.73,8.73,0,0,1-5,1.19A12.67,12.67,0,0,1,310.39,419.11Z" transform="translate(-26.01 -9.59)"/><path class="cls-2" d="M336,406c0-4.38,0-5.2,0-6.12s-.37-1.32-1-1.53a3.88,3.88,0,0,0-1.09-.13c-.3,0-.47-.07-.47-.34s.23-.24.71-.24c1.12,0,3.16.07,4,.07s2.69-.07,3.84-.07c.38,0,.62.07.62.24s-.17.34-.48.34a4,4,0,0,0-.88.1c-.82.13-1.06.54-1.13,1.56S340,401.61,340,406v5.1c0,2.79,0,5.1.13,6.32.1.79.31,1.23,1.19,1.36a10.91,10.91,0,0,0,1.53.11c.34,0,.48.17.48.3s-.24.31-.58.31c-2,0-4-.1-4.83-.1s-2.72.1-3.91.1c-.37,0-.58-.1-.58-.31s.11-.3.48-.3a4.21,4.21,0,0,0,1.05-.11c.62-.13.79-.54.89-1.39.13-1.19.13-3.5.13-6.29Z" transform="translate(-26.01 -9.59)"/><path class="cls-2" d="M360.16,399.4l-4.45.1c-1.73,0-2.45.24-2.89.88a3.29,3.29,0,0,0-.51,1c-.07.24-.14.37-.34.37s-.27-.17-.27-.47c0-.48.58-3.27.64-3.51s.17-.54.34-.54.55.24,1.3.34a28.43,28.43,0,0,0,3,.14h12.14a12.72,12.72,0,0,0,2-.14c.48-.07.72-.14.82-.14s.24.17.24.62c0,.61-.07,2.75-.07,3.5,0,.3-.1.47-.27.47s-.31-.13-.34-.57l0-.31c-.07-.75-.86-1.63-3.54-1.67l-3.77-.06v11.69c0,2.65,0,4.93.17,6.19.1.81.27,1.36,1.15,1.49a10.91,10.91,0,0,0,1.53.11c.34,0,.48.17.48.3s-.24.31-.58.31c-2,0-4-.1-4.83-.1-.68,0-2.72.1-3.91.1-.37,0-.58-.1-.58-.31s.11-.3.48-.3a4,4,0,0,0,1.05-.11c.62-.13.79-.68.89-1.53.13-1.22.13-3.5.13-6.15Z" transform="translate(-26.01 -9.59)"/><path class="cls-2" d="M387.43,412a5.73,5.73,0,0,0-.68-3c-.2-.44-4.28-6.8-5.34-8.33a6.7,6.7,0,0,0-1.93-2,3.07,3.07,0,0,0-1.26-.37c-.24,0-.44-.11-.44-.31s.2-.27.57-.27,2.76.07,3.74.07c.65,0,2-.07,3.4-.07.28,0,.45.07.45.27s-.21.24-.68.37c-.24.07-.41.21-.41.45a2.23,2.23,0,0,0,.37,1c.55.89,4.46,7.65,5,8.47.37-.68,4-6.87,4.45-7.75a3.77,3.77,0,0,0,.44-1.53c0-.28-.13-.55-.64-.65-.28-.07-.55-.1-.55-.34s.17-.27.51-.27c1,0,2,.07,2.93.07.64,0,2.61-.07,3.19-.07.34,0,.54.07.54.24s-.23.34-.57.34a3.58,3.58,0,0,0-1.3.34,4,4,0,0,0-1.56,1.36,95,95,0,0,0-5.81,9.24,6.78,6.78,0,0,0-.38,2.89v2.31c0,.48,0,1.67.07,2.89.07.85.34,1.4,1.23,1.53a11,11,0,0,0,1.49.11c.34,0,.51.17.51.3s-.24.31-.65.31c-1.86,0-3.87-.1-4.69-.1s-2.75.1-3.87.1c-.41,0-.65-.07-.65-.31s.14-.3.48-.3a4.39,4.39,0,0,0,1.05-.11c.61-.13.85-.68.92-1.53.1-1.22.1-2.41.1-2.89Z" transform="translate(-26.01 -9.59)"/><path class="cls-2" d="M423.85,408.54c0-4.93,3.46-11.32,12.54-11.32,7.55,0,12.24,4.18,12.24,10.81s-4.83,11.83-12.55,11.83C427.38,419.86,423.85,413.67,423.85,408.54Zm20.33.54c0-6.39-3.85-10.33-8.67-10.33-3.34,0-7.24,1.77-7.24,8.91,0,5.95,3.4,10.64,9,10.64C439.42,418.3,444.18,417.31,444.18,409.08Z" transform="translate(-26.01 -9.59)"/><path class="cls-2" d="M464.54,411.19c0,2.79,0,4.83.17,6.05.1.85.31,1.4,1.19,1.53a10.36,10.36,0,0,0,1.46.11c.38,0,.52.17.52.3s-.21.31-.65.31c-1.9,0-4-.1-4.79-.1s-2.69.1-3.81.1c-.41,0-.61-.07-.61-.31s.1-.3.44-.3a4.21,4.21,0,0,0,1.05-.11c.61-.13.78-.68.89-1.53.13-1.22.13-3.36.13-6.15V406c0-4.38,0-5.2,0-6.12s-.34-1.32-1.29-1.56a5.43,5.43,0,0,0-1.19-.1c-.28,0-.51-.11-.51-.31s.23-.27.71-.27c1.53,0,3.43.07,4.28.07,1.16,0,7.79,0,8.5,0a8.8,8.8,0,0,0,1.23-.14c.17,0,.3-.17.47-.17s.21.14.21.27-.14.55-.24,1.29c0,.31-.1,2-.14,2.35s-.1.58-.3.58-.38-.14-.38-.48a2.23,2.23,0,0,0-.17-1.09,2.05,2.05,0,0,0-1.9-.88l-5-.1c-.17,0-.27.07-.27.41v7c0,.17,0,.27.21.27l4.18,0c.51,0,.92,0,1.36,0a1.53,1.53,0,0,0,1.26-.51c.17-.17.23-.3.4-.3s.17.1.17.27-.13,1-.23,1.87c-.07.58-.11,1.9-.11,2.11s0,.64-.34.64-.27-.2-.27-.41a2.8,2.8,0,0,0-.2-.88,1.53,1.53,0,0,0-1.43-1.05c-.75-.07-4.28-.1-4.79-.1-.14,0-.21,0-.21.23Z" transform="translate(-26.01 -9.59)"/><path class="cls-2" d="M501.87,403.65c0-5.17,0-6.12-.06-7.21s-.34-1.7-1.47-1.94a6.81,6.81,0,0,0-1.32-.1c-.38,0-.58-.07-.58-.31s.24-.3.75-.3c1.8,0,3.94.1,5,.1.82,0,3-.1,4.18-.1.51,0,.75.06.75.3s-.2.31-.54.31a5,5,0,0,0-1,.1c-.92.17-1.19.75-1.26,1.94s-.06,2-.06,7.21v4.76c0,4.92,1,7,2.65,8.36a6.27,6.27,0,0,0,4.25,1.39,6.66,6.66,0,0,0,4.69-1.83c1.87-1.87,2-4.93,2-8.44v-4.24c0-5.17,0-6.12-.07-7.21s-.34-1.7-1.46-1.94a6.4,6.4,0,0,0-1.22-.1c-.38,0-.58-.07-.58-.31s.24-.3.71-.3c1.74,0,3.88.1,3.91.1.41,0,2.55-.1,3.88-.1.47,0,.71.06.71.3s-.2.31-.61.31a5,5,0,0,0-1,.1c-.91.17-1.19.75-1.25,1.94s-.07,2-.07,7.21v3.63c0,3.78-.38,7.79-3.23,10.24a10.16,10.16,0,0,1-7.07,2.44c-1.8,0-5.07-.1-7.55-2.34-1.73-1.57-3-4.08-3-9Z" transform="translate(-26.01 -9.59)"/><path class="cls-2" d="M541.93,399.4l-4.46.1c-1.73,0-2.45.24-2.89.88a3.55,3.55,0,0,0-.51,1c-.07.24-.13.37-.34.37s-.27-.17-.27-.47c0-.48.58-3.27.65-3.51s.17-.54.34-.54.54.24,1.29.34a28.43,28.43,0,0,0,3,.14h12.14a13,13,0,0,0,2-.14c.47-.07.71-.14.81-.14s.24.17.24.62c0,.61-.07,2.75-.07,3.5,0,.3-.1.47-.27.47s-.31-.13-.34-.57l0-.31c-.07-.75-.85-1.63-3.54-1.67l-3.77-.06v11.69c0,2.65,0,4.93.17,6.19.1.81.27,1.36,1.15,1.49a10.91,10.91,0,0,0,1.53.11c.34,0,.48.17.48.3s-.24.31-.58.31c-2,0-4-.1-4.83-.1-.68,0-2.72.1-3.91.1-.37,0-.57-.1-.57-.31s.1-.3.47-.3a4.13,4.13,0,0,0,1.06-.11c.61-.13.78-.68.88-1.53.14-1.22.14-3.5.14-6.15Z" transform="translate(-26.01 -9.59)"/><path class="cls-2" d="M565,412.21c-.16,0-.2,0-.27.21l-1.6,3.87a5.42,5.42,0,0,0-.44,1.77c0,.51.27.82,1.19.82h.45c.37,0,.44.13.44.3s-.17.31-.48.31c-1,0-2.38-.1-3.33-.1-.31,0-1.9.1-3.47.1-.37,0-.54-.07-.54-.31s.1-.3.34-.3.61,0,.88,0c1.36-.2,1.87-1.09,2.48-2.55l7.82-18.19c.34-.81.58-1.15.89-1.15s.57.27.88.92c.71,1.59,5.71,13.42,7.62,17.81,1.15,2.62,2,3,2.55,3.09a7,7,0,0,0,1.12.11c.27,0,.4.1.4.3s-.17.31-1.29.31-3.23,0-5.74-.07c-.55,0-.89,0-.89-.24s.07-.27.38-.3a.46.46,0,0,0,.27-.65l-2.31-5.81a.29.29,0,0,0-.31-.21Zm6.4-1.6c.13,0,.17-.06.13-.17l-2.82-7.34c0-.1-.07-.27-.14-.27s-.13.17-.17.27l-2.89,7.31c-.06.14,0,.2.11.2Z" transform="translate(-26.01 -9.59)"/><path class="cls-2" d="M607.07,407c.06,0,.17,0,.17-.2v-.61c0-4.39,0-5.44-.07-6.36s-.34-1.29-1.29-1.56a5.31,5.31,0,0,0-1.16-.1c-.34,0-.51-.11-.51-.31s.21-.27.65-.27c1.6,0,3.7.07,4.48.07s2.69-.07,3.85-.07c.44,0,.64.07.64.27s-.2.31-.54.31a4.89,4.89,0,0,0-.89.1c-.78.13-1,.54-1.08,1.56s-.07,1.74-.07,6.12v5.1c0,2.65,0,4.93.13,6.19.11.81.28,1.36,1.19,1.49a10.59,10.59,0,0,0,1.53.11c.31,0,.48.17.48.3s-.24.31-.61.31c-1.94,0-3.91-.1-4.73-.1s-2.78.1-3.94.1c-.41,0-.65-.1-.65-.31s.14-.3.48-.3a4.34,4.34,0,0,0,1.09-.11c.61-.13.78-.68.88-1.53.14-1.22.14-3.43.14-6.08V409a.19.19,0,0,0-.17-.17H595.78c-.1,0-.2,0-.2.17v2.21c0,2.65,0,4.86.17,6.12.1.81.27,1.36,1.15,1.49a10.91,10.91,0,0,0,1.53.11c.34,0,.48.17.48.3s-.24.31-.61.31c-1.94,0-4-.1-4.87-.1-.68,0-2.65.1-3.84.1-.37,0-.58-.1-.58-.31s.11-.3.48-.3a4.21,4.21,0,0,0,1-.11c.62-.13.79-.68.89-1.53.13-1.22.13-3.5.13-6.15V406c0-4.38,0-5.2,0-6.12s-.34-1.29-1.29-1.56a5.43,5.43,0,0,0-1.19-.1c-.31,0-.51-.11-.51-.31s.24-.27.64-.27c1.6,0,3.57.07,4.39.07s2.79-.07,4-.07c.41,0,.61.07.61.27s-.17.31-.54.31a4.2,4.2,0,0,0-.85.1c-.82.13-1.06.54-1.13,1.56s-.06,2-.06,6.36v.61c0,.17.1.2.2.2Z" transform="translate(-26.01 -9.59)"/><path class="cls-2" d="M102.46,248.51H80L56.74,209.94H48.57v38.57H28.42v-91H58.7q13.62,0,21.86,5.93,9.36,6.75,9.36,19.85,0,17.66-14.47,22.23ZM70,186.77q0-13.56-12.95-13.57h-8.5v27h9.15a11.52,11.52,0,0,0,9.21-3.85C69,194,70,190.76,70,186.77Z" transform="translate(-26.01 -9.59)"/><path class="cls-2" d="M162.62,248.51H108.35v-91h52.26v15.7H128.38v24.3h33.53v10.07H128.38v25.36h34.24Z" transform="translate(-26.01 -9.59)"/><path class="cls-2" d="M242.73,203q0,22.58-9.9,33.71-10.43,11.79-32.64,11.79H174v-91h25.06Q242.72,157.5,242.73,203Zm-19.91,0q0-13.94-4.63-21.1-5.64-8.7-18.76-8.71H194.2v59.61h6.42q12.75,0,18-9Q222.82,216.81,222.82,203Z" transform="translate(-26.01 -9.59)"/><path class="cls-2" d="M343.22,222.2q0,11.91-7.71,19.2-7.45,7.11-19.49,7.11H277.09v-91h38.16q10.72,0,17.42,5.93,6.93,6.23,6.93,16.82,0,17.67-16.23,19.91a24,24,0,0,1,14.28,7.23A20.94,20.94,0,0,1,343.22,222.2Zm-23.41-37.26q0-5.7-3.23-8.95t-8.91-3.26H296.82v24.41h12Q319.81,197.14,319.81,184.94Zm3.5,34.78q0-13.58-14-13.57H296.82v27.13H311Q323.31,233.28,323.31,219.72Z" transform="translate(-26.01 -9.59)"/><path class="cls-2" d="M419,219.89q0,14.82-9.31,22.64-8.7,7.28-23.81,7.28-31.94,0-31.94-29.92V157.5h20.2v62.81q0,13.62,13.34,13.62,13.92,0,13.92-16.88V157.5H419Z" transform="translate(-26.01 -9.59)"/><path class="cls-2" d="M489.33,173.2H467.82v75.31H447.67V173.2H426.23V157.5h63.1Z" transform="translate(-26.01 -9.59)"/><path class="cls-2" d="M553.37,173.2h-21.5v75.31H511.72V173.2H490.27V157.5h63.1Z" transform="translate(-26.01 -9.59)"/><path class="cls-2" d="M615.94,248.51H561.67v-91h52.26v15.7H581.7v24.3h33.53v10.07H581.7v25.36h34.24Z" transform="translate(-26.01 -9.59)"/><path class="cls-2" d="M115.4,371.15q-5.78,4.74-16.44,7.7a67.63,67.63,0,0,1-18.22,2.74q-25.92,0-40.51-15.55Q26,350.94,26,324.79q0-25,15.33-41.92,15.85-17.47,40.73-17.48a62.13,62.13,0,0,1,16,2.45q9.86,2.58,14.74,6.29l-3.56,27.7h-6.66V292.2q-6.74-6.15-20.37-6.15-13.84,0-22.22,11.71-7.39,10.37-7.48,24.81-.08,16.67,6.3,26.36,7.55,11.49,23.33,11.48,7.84,0,12.44-1.77V328.79H75.93V316.2H115.4Z" transform="translate(-26.01 -9.59)"/><path class="cls-2" d="M229,380H201.72l-7.94-19.11H154.36l-7,19.11h-24.9L171.6,265.39h7.85Zm-40-30.3-15.5-37.89-15.3,37.89Z" transform="translate(-26.01 -9.59)"/><path class="cls-2" d="M331,380H303l-29.11-48.22H263.64V380H238.46V266.21H276.3q17,0,27.33,7.4,11.7,8.44,11.7,24.82,0,22.08-18.09,27.78Zm-40.55-77.18q0-16.95-16.19-17H263.64V319.6h11.43c4.91,0,8.74-1.6,11.52-4.81Q290.45,310.27,290.45,302.79Z" transform="translate(-26.01 -9.59)"/><path class="cls-2" d="M426.78,323.09q0,28.21-12.37,42.14-13,14.73-40.8,14.74H340.87V266.21H372.2Q426.79,266.21,426.78,323.09Zm-24.88,0q0-17.41-5.79-26.37-7-10.89-23.45-10.89h-6.53v74.51h8q16,0,22.56-11.26Q401.91,340.35,401.9,323.09Z" transform="translate(-26.01 -9.59)"/><path class="cls-2" d="M512.16,380H444.32V266.21h65.32v19.62H469.35V316.2h41.92v12.59H469.35v31.7h42.81Z" transform="translate(-26.01 -9.59)"/><path class="cls-2" d="M615.53,380h-11l-51.8-65.49V380h-24V266.21h11l51.85,65.17V266.21h24Z" transform="translate(-26.01 -9.59)"/></svg>